<svg aria-hidden="true" style="position: absolute; width: 0; height: 0; overflow: hidden;" version="1.1" xmlns="http://www.w3.org/2000/svg" xmlns:xlink="http://www.w3.org/1999/xlink">
<defs>
<symbol id="account-password" viewBox="0 0 32 32">
<path d="M16 16c-0.828 0-1.5 0.672-1.5 1.5s0.672 1.5 1.5 1.5c0.828 0 1.5-0.672 1.5-1.5s-0.672-1.5-1.5-1.5zM12.5 17.5c0-1.933 1.567-3.5 3.5-3.5s3.5 1.567 3.5 3.5c0 1.933-1.567 3.5-3.5 3.5s-3.5-1.567-3.5-3.5z"></path>
<path d="M16 19c0.552 0 1 0.448 1 1v3c0 0.552-0.448 1-1 1s-1-0.448-1-1v-3c0-0.552 0.448-1 1-1z"></path>
<path d="M4 12c0-1.105 0.895-2 2-2h20c1.105 0 2 0.895 2 2v14c0 1.105-0.895 2-2 2h-20c-1.105 0-2-0.895-2-2v-14zM26 12h-20v14h20v-14z"></path>
<path d="M16 3c-0.928 0-1.819 0.369-2.475 1.025s-1.025 1.547-1.025 2.475v4.5c0 0.552-0.448 1-1 1s-1-0.448-1-1v-4.5c0-1.459 0.579-2.858 1.611-3.889s2.43-1.611 3.889-1.611c1.459 0 2.858 0.579 3.889 1.611s1.611 2.43 1.611 3.889v4.5c0 0.552-0.448 1-1 1s-1-0.448-1-1v-4.5c0-0.928-0.369-1.819-1.025-2.475s-1.547-1.025-2.475-1.025z"></path>
</symbol>
<symbol id="account-email" viewBox="0 0 32 32">
<path d="M3 7c0-0.552 0.448-1 1-1h24c0.552 0 1 0.448 1 1v17c0 0.53-0.211 1.039-0.586 1.414s-0.884 0.586-1.414 0.586h-22c-0.53 0-1.039-0.211-1.414-0.586s-0.586-0.884-0.586-1.414v-17zM5 8v16h22v-16h-22z"></path>
<path d="M3.263 6.324c0.373-0.407 1.006-0.435 1.413-0.061l11.324 10.38 11.324-10.38c0.407-0.373 1.040-0.346 1.413 0.061s0.346 1.040-0.061 1.413l-12 11c-0.382 0.351-0.969 0.351-1.351 0l-12-11c-0.407-0.373-0.435-1.006-0.061-1.413z"></path>
</symbol>
<symbol id="account-user" viewBox="0 0 32 32">
<path d="M16 5c-3.866 0-7 3.134-7 7s3.134 7 7 7c3.866 0 7-3.134 7-7s-3.134-7-7-7zM7 12c0-4.971 4.029-9 9-9s9 4.029 9 9c0 4.971-4.029 9-9 9s-9-4.029-9-9z"></path>
<path d="M16 20.998c-2.282 0-4.524 0.601-6.5 1.742s-3.617 2.782-4.758 4.759c-0.276 0.478-0.888 0.642-1.366 0.366s-0.642-0.888-0.366-1.366c1.316-2.281 3.21-4.175 5.49-5.491s4.867-2.010 7.501-2.010 5.22 0.693 7.501 2.010c2.28 1.317 4.174 3.211 5.49 5.491 0.276 0.478 0.112 1.090-0.366 1.366s-1.090 0.112-1.366-0.366c-1.141-1.977-2.782-3.618-4.758-4.759s-4.218-1.742-6.5-1.742z"></path>
</symbol>
<symbol id="header-nft-logo" viewBox="0 0 244 32">
<path fill="#a259ff" style="fill: var(--color1, #a259ff)" d="M6 12.451c0.552 0 1 0.448 1 1v12.55h18v-12.55c0-0.552 0.448-1 1-1s1 0.448 1 1v12.55c0 0.53-0.211 1.039-0.586 1.414s-0.884 0.586-1.414 0.586h-18c-0.53 0-1.039-0.211-1.414-0.586s-0.586-0.884-0.586-1.414v-12.55c0-0.552 0.448-1 1-1z"></path>
<path fill="#a259ff" style="fill: var(--color1, #a259ff)" d="M3 5c0-0.552 0.448-1 1-1h24c0.552 0 1 0.448 1 1s-0.448 1-1 1h-24c-0.552 0-1-0.448-1-1z"></path>
<path fill="#a259ff" style="fill: var(--color1, #a259ff)" d="M4 7c0.552 0 1 0.448 1 1v2c0 0.796 0.316 1.559 0.879 2.121s1.326 0.879 2.121 0.879c0.796 0 1.559-0.316 2.121-0.879s0.879-1.326 0.879-2.121v-2c0-0.552 0.448-1 1-1s1 0.448 1 1v2c0 1.326-0.527 2.598-1.464 3.535s-2.209 1.465-3.536 1.465-2.598-0.527-3.536-1.465c-0.938-0.938-1.464-2.209-1.464-3.535v-2c0-0.552 0.448-1 1-1z"></path>
<path fill="#a259ff" style="fill: var(--color1, #a259ff)" d="M12 7c0.552 0 1 0.448 1 1v2c0 0.796 0.316 1.559 0.879 2.121s1.326 0.879 2.121 0.879 1.559-0.316 2.121-0.879c0.563-0.563 0.879-1.326 0.879-2.121v-2c0-0.552 0.448-1 1-1s1 0.448 1 1v2c0 1.326-0.527 2.598-1.465 3.535s-2.209 1.465-3.535 1.465-2.598-0.527-3.536-1.465c-0.938-0.938-1.464-2.209-1.464-3.535v-2c0-0.552 0.448-1 1-1z"></path>
<path fill="#a259ff" style="fill: var(--color1, #a259ff)" d="M20 7c0.552 0 1 0.448 1 1v2c0 0.796 0.316 1.559 0.879 2.121s1.326 0.879 2.121 0.879 1.559-0.316 2.121-0.879c0.563-0.563 0.879-1.326 0.879-2.121v-2c0-0.552 0.448-1 1-1s1 0.448 1 1v2c0 1.326-0.527 2.598-1.465 3.535s-2.209 1.465-3.535 1.465-2.598-0.527-3.535-1.465c-0.938-0.938-1.465-2.209-1.465-3.535v-2c0-0.552 0.448-1 1-1z"></path>
<path fill="#fff" style="fill: var(--color2, #fff)" d="M51.48 22.547h0.396v-13.948h2.904v15.4h-5.676l-1.804-13.948h-0.396v13.948h-2.904v-15.4h5.676l1.804 13.948z"></path>
<path fill="#fff" style="fill: var(--color2, #fff)" d="M58.065 8.599h9.856v2.772h-6.952v3.52h6.82v2.772h-6.82v6.336h-2.904v-15.4z"></path>
<path fill="#fff" style="fill: var(--color2, #fff)" d="M70.787 8.599h11.088v2.772h-4.092v12.628h-2.904v-12.628h-4.092v-2.772z"></path>
<path fill="#fff" style="fill: var(--color2, #fff)" d="M97.025 8.599h5.104l0.88 11.572v2.244h0.528v-2.244l0.88-11.572h5.104v15.4h-2.64v-10.296l0.264-3.52h-0.528l-1.144 13.816h-4.356l-1.188-13.816h-0.528l0.264 3.52v10.296h-2.64v-15.4z"></path>
<path fill="#fff" style="fill: var(--color2, #fff)" d="M118.789 22.415c-0.293 0.689-0.704 1.181-1.232 1.474-0.528 0.279-1.144 0.418-1.848 0.418-0.66 0-1.283-0.125-1.87-0.374-0.572-0.249-1.078-0.616-1.518-1.1s-0.792-1.071-1.056-1.76c-0.249-0.689-0.374-1.474-0.374-2.354v-0.352c0-0.865 0.125-1.643 0.374-2.332s0.587-1.276 1.012-1.76c0.425-0.484 0.917-0.851 1.474-1.1 0.572-0.264 1.181-0.396 1.826-0.396 0.777 0 1.401 0.132 1.87 0.396 0.484 0.264 0.865 0.675 1.144 1.232h0.396v-1.32h2.772v7.612c0 0.44 0.198 0.66 0.594 0.66h0.418v2.64h-1.892c-0.499 0-0.909-0.147-1.232-0.44-0.308-0.293-0.462-0.675-0.462-1.144h-0.396zM116.325 21.667c0.807 0 1.452-0.264 1.936-0.792 0.484-0.543 0.726-1.276 0.726-2.2v-0.264c0-0.924-0.242-1.65-0.726-2.178-0.484-0.543-1.129-0.814-1.936-0.814s-1.452 0.271-1.936 0.814c-0.484 0.528-0.726 1.254-0.726 2.178v0.264c0 0.924 0.242 1.657 0.726 2.2 0.484 0.528 1.129 0.792 1.936 0.792z"></path>
<path fill="#fff" style="fill: var(--color2, #fff)" d="M124.67 13.087h4.62v1.584h0.396c0.205-0.601 0.55-1.063 1.034-1.386 0.499-0.337 1.093-0.506 1.782-0.506 1.086 0 1.958 0.345 2.618 1.034 0.66 0.675 0.991 1.709 0.991 3.102v0.484l-2.86 0.264v-0.308c0-0.601-0.154-1.078-0.462-1.43-0.308-0.367-0.77-0.55-1.386-0.55s-1.1 0.213-1.452 0.638c-0.352 0.425-0.528 1.034-0.528 1.826v3.52h2.508v2.64h-7.524v-2.64h2.244v-5.632h-1.98v-2.64z"></path>
<path fill="#fff" style="fill: var(--color2, #fff)" d="M142.321 17.091h0.528l2.904-4.004h3.036v0.132l-3.52 4.994v0.396l3.872 5.258v0.132h-3.168l-3.124-4.268h-0.528v4.268h-2.772v-15.4h2.772v8.492z"></path>
<path fill="#fff" style="fill: var(--color2, #fff)" d="M154.581 19.445c0.015 0.323 0.088 0.623 0.22 0.902 0.147 0.264 0.337 0.499 0.572 0.704 0.249 0.191 0.528 0.345 0.836 0.462 0.323 0.103 0.66 0.154 1.012 0.154 0.689 0 1.217-0.117 1.584-0.352 0.367-0.249 0.631-0.543 0.792-0.88l2.376 1.32c-0.132 0.279-0.315 0.572-0.549 0.88-0.235 0.293-0.543 0.565-0.924 0.814-0.367 0.249-0.821 0.455-1.364 0.616-0.528 0.161-1.152 0.242-1.871 0.242-0.821 0-1.569-0.132-2.244-0.396s-1.261-0.645-1.76-1.144c-0.484-0.499-0.865-1.107-1.144-1.826-0.264-0.719-0.396-1.533-0.396-2.442v-0.132c0-0.836 0.14-1.599 0.419-2.288 0.293-0.689 0.689-1.276 1.188-1.76s1.077-0.858 1.737-1.122c0.675-0.279 1.393-0.418 2.156-0.418 0.939 0 1.745 0.169 2.42 0.506 0.675 0.323 1.232 0.741 1.672 1.254 0.44 0.499 0.763 1.056 0.968 1.672 0.205 0.601 0.308 1.188 0.308 1.76v1.474h-8.008zM157.2 15.287c-0.704 0-1.276 0.183-1.716 0.55-0.44 0.352-0.727 0.763-0.859 1.232h5.148c-0.088-0.513-0.367-0.939-0.836-1.276-0.455-0.337-1.033-0.506-1.737-0.506z"></path>
<path fill="#fff" style="fill: var(--color2, #fff)" d="M165.303 13.087h3.233v-4.488h2.772v4.488h3.939v2.64h-3.939v4.972c0 0.44 0.199 0.66 0.595 0.66h2.948v2.64h-4.62c-0.499 0-0.909-0.161-1.232-0.484-0.308-0.323-0.463-0.733-0.463-1.232v-6.556h-3.233v-2.64z"></path>
<path fill="#fff" style="fill: var(--color2, #fff)" d="M181.281 28.399h-2.772v-15.312h2.772v1.584h0.396c0.293-0.601 0.719-1.063 1.276-1.386 0.557-0.337 1.268-0.506 2.133-0.506 0.645 0 1.255 0.125 1.827 0.374 0.587 0.249 1.092 0.616 1.517 1.1 0.44 0.469 0.785 1.049 1.035 1.738 0.264 0.689 0.396 1.474 0.396 2.354v0.396c0 0.895-0.125 1.687-0.375 2.376s-0.587 1.276-1.012 1.76c-0.425 0.469-0.931 0.829-1.517 1.078-0.572 0.235-1.196 0.352-1.871 0.352-0.499 0-0.931-0.051-1.297-0.154s-0.689-0.242-0.968-0.418c-0.264-0.176-0.492-0.374-0.683-0.594-0.176-0.235-0.329-0.477-0.461-0.726h-0.396v5.984zM184.185 21.667c0.865 0 1.561-0.264 2.089-0.792 0.543-0.543 0.815-1.276 0.815-2.2v-0.264c0-0.924-0.272-1.65-0.815-2.178-0.528-0.543-1.224-0.814-2.089-0.814s-1.569 0.279-2.112 0.836c-0.528 0.543-0.792 1.261-0.792 2.156v0.264c0 0.895 0.264 1.621 0.792 2.178 0.543 0.543 1.247 0.814 2.112 0.814z"></path>
<path fill="#fff" style="fill: var(--color2, #fff)" d="M192.485 21.359h3.828v-10.12h-3.696v-2.64h6.468v12.76h3.564v2.64h-10.164v-2.64z"></path>
<path fill="#fff" style="fill: var(--color2, #fff)" d="M213.084 22.415c-0.293 0.689-0.704 1.181-1.232 1.474-0.528 0.279-1.144 0.418-1.848 0.418-0.66 0-1.283-0.125-1.869-0.374-0.572-0.249-1.079-0.616-1.519-1.1s-0.792-1.071-1.056-1.76c-0.249-0.689-0.373-1.474-0.373-2.354v-0.352c0-0.865 0.124-1.643 0.373-2.332s0.587-1.276 1.012-1.76c0.425-0.484 0.917-0.851 1.475-1.1 0.572-0.264 1.18-0.396 1.825-0.396 0.777 0 1.401 0.132 1.871 0.396 0.484 0.264 0.865 0.675 1.144 1.232h0.396v-1.32h2.772v7.612c0 0.44 0.197 0.66 0.593 0.66h0.419v2.64h-1.892c-0.499 0-0.909-0.147-1.232-0.44-0.308-0.293-0.463-0.675-0.463-1.144h-0.396zM210.62 21.667c0.807 0 1.452-0.264 1.936-0.792 0.484-0.543 0.727-1.276 0.727-2.2v-0.264c0-0.924-0.243-1.65-0.727-2.178-0.484-0.543-1.129-0.814-1.936-0.814s-1.452 0.271-1.936 0.814c-0.484 0.528-0.725 1.254-0.725 2.178v0.264c0 0.924 0.241 1.657 0.725 2.2 0.484 0.528 1.129 0.792 1.936 0.792z"></path>
<path fill="#fff" style="fill: var(--color2, #fff)" d="M230.141 19.995c-0.249 1.291-0.844 2.332-1.783 3.124-0.924 0.792-2.163 1.188-3.717 1.188-0.807 0-1.563-0.125-2.267-0.374-0.689-0.249-1.291-0.609-1.804-1.078s-0.916-1.049-1.209-1.738c-0.293-0.689-0.44-1.474-0.44-2.354v-0.264c0-0.88 0.147-1.672 0.44-2.376s0.696-1.305 1.209-1.804c0.528-0.499 1.137-0.88 1.827-1.144 0.704-0.264 1.452-0.396 2.244-0.396 1.525 0 2.757 0.396 3.696 1.188 0.953 0.792 1.555 1.833 1.804 3.124l-2.728 0.704c-0.088-0.645-0.367-1.203-0.836-1.672s-1.129-0.704-1.98-0.704c-0.396 0-0.771 0.073-1.123 0.22s-0.66 0.359-0.924 0.638c-0.264 0.264-0.476 0.594-0.637 0.99-0.147 0.381-0.22 0.814-0.22 1.298v0.132c0 0.484 0.073 0.917 0.22 1.298 0.161 0.367 0.373 0.675 0.637 0.924s0.572 0.44 0.924 0.572c0.352 0.117 0.727 0.176 1.123 0.176 0.851 0 1.496-0.213 1.936-0.638 0.455-0.425 0.748-0.997 0.88-1.716l2.728 0.682z"></path>
<path fill="#fff" style="fill: var(--color2, #fff)" d="M235.405 19.445c0.015 0.323 0.088 0.623 0.22 0.902 0.147 0.264 0.337 0.499 0.572 0.704 0.249 0.191 0.528 0.345 0.836 0.462 0.323 0.103 0.66 0.154 1.012 0.154 0.689 0 1.217-0.117 1.584-0.352 0.367-0.249 0.631-0.543 0.792-0.88l2.376 1.32c-0.132 0.279-0.315 0.572-0.549 0.88-0.235 0.293-0.543 0.565-0.924 0.814-0.367 0.249-0.821 0.455-1.364 0.616-0.528 0.161-1.152 0.242-1.871 0.242-0.821 0-1.569-0.132-2.244-0.396s-1.261-0.645-1.76-1.144c-0.484-0.499-0.865-1.107-1.144-1.826-0.264-0.719-0.396-1.533-0.396-2.442v-0.132c0-0.836 0.14-1.599 0.419-2.288 0.293-0.689 0.689-1.276 1.188-1.76s1.077-0.858 1.737-1.122c0.675-0.279 1.393-0.418 2.156-0.418 0.939 0 1.745 0.169 2.42 0.506 0.675 0.323 1.232 0.741 1.672 1.254 0.44 0.499 0.763 1.056 0.968 1.672 0.205 0.601 0.308 1.188 0.308 1.76v1.474h-8.008zM238.024 15.287c-0.704 0-1.276 0.183-1.716 0.55-0.44 0.352-0.727 0.763-0.859 1.232h5.148c-0.088-0.513-0.367-0.939-0.836-1.276-0.455-0.337-1.033-0.506-1.737-0.506z"></path>
</symbol>
<symbol id="header-burger-menu" viewBox="0 0 32 32">
<path d="M4 16c0-0.552 0.448-1 1-1h22c0.552 0 1 0.448 1 1s-0.448 1-1 1h-22c-0.552 0-1-0.448-1-1z"></path>
<path d="M4 8c0-0.552 0.448-1 1-1h15c0.552 0 1 0.448 1 1s-0.448 1-1 1h-15c-0.552 0-1-0.448-1-1z"></path>
<path d="M4 24c0-0.552 0.448-1 1-1h15c0.552 0 1 0.448 1 1s-0.448 1-1 1h-15c-0.552 0-1-0.448-1-1z"></path>
</symbol>
<symbol id="header-sign-up-user" viewBox="0 0 32 32">
<path d="M16 5c-3.866 0-7 3.134-7 7s3.134 7 7 7c3.866 0 7-3.134 7-7s-3.134-7-7-7zM7 12c0-4.971 4.029-9 9-9s9 4.029 9 9c0 4.971-4.029 9-9 9s-9-4.029-9-9z"></path>
<path d="M16 20.998c-2.282 0-4.524 0.601-6.5 1.742s-3.617 2.782-4.758 4.759c-0.276 0.478-0.888 0.642-1.366 0.366s-0.642-0.888-0.366-1.366c1.316-2.281 3.21-4.175 5.49-5.491s4.867-2.010 7.501-2.010 5.22 0.693 7.501 2.010c2.28 1.317 4.174 3.211 5.49 5.491 0.276 0.478 0.112 1.090-0.366 1.366s-1.090 0.112-1.366-0.366c-1.141-1.977-2.782-3.618-4.758-4.759s-4.218-1.742-6.5-1.742z"></path>
</symbol>
<symbol id="wallet-connect" viewBox="0 0 33 32">
<g clip-path="url(#clip0_4248_8110)">
<path d="M16.5 32C25.3366 32 32.5 24.8366 32.5 16C32.5 7.16344 25.3366 0 16.5 0C7.66344 0 0.5 7.16344 0.5 16C0.5 24.8366 7.66344 32 16.5 32Z" fill="url(#paint0_radial_4248_8110)"/>
<path d="M10.5469 12.3578C13.7656 9.21406 18.9906 9.21406 22.2094 12.3578L22.5969 12.7391C22.7594 12.8953 22.7594 13.1516 22.5969 13.3078L21.2719 14.6016C21.1906 14.6828 21.0594 14.6828 20.9781 14.6016L20.4469 14.0828C18.1969 11.8891 14.5594 11.8891 12.3094 14.0828L11.7406 14.6391C11.6594 14.7203 11.5281 14.7203 11.4469 14.6391L10.1219 13.3453C9.95938 13.1891 9.95938 12.9328 10.1219 12.7766L10.5469 12.3578ZM24.9531 15.0328L26.1344 16.1828C26.2969 16.3391 26.2969 16.5953 26.1344 16.7516L20.8156 21.9453C20.6531 22.1016 20.3906 22.1016 20.2344 21.9453L16.4594 18.2578C16.4219 18.2203 16.3531 18.2203 16.3156 18.2578L12.5406 21.9453C12.3781 22.1016 12.1156 22.1016 11.9594 21.9453L6.62187 16.7516C6.45938 16.5953 6.45938 16.3391 6.62187 16.1828L7.80312 15.0328C7.96562 14.8766 8.22813 14.8766 8.38438 15.0328L12.1594 18.7203C12.1969 18.7578 12.2656 18.7578 12.3031 18.7203L16.0781 15.0328C16.2406 14.8766 16.5031 14.8766 16.6594 15.0328L20.4344 18.7203C20.4719 18.7578 20.5406 18.7578 20.5781 18.7203L24.3531 15.0328C24.5281 14.8766 24.7906 14.8766 24.9531 15.0328Z" fill="white"/>
</g>
<defs>
<radialGradient id="paint0_radial_4248_8110" cx="0" cy="0" r="1" gradientUnits="userSpaceOnUse" gradientTransform="translate(0.500099 16.0005) scale(32)">
<stop stop-color="#5D9DF6"/>
<stop offset="1" stop-color="#006FFF"/>
</radialGradient>
<clipPath id="clip0_4248_8110">
<rect width="32" height="32" fill="white" transform="translate(0.5)"/>
</clipPath>
</defs>
</symbol>
<symbol id="wallet-coinbase" viewBox="0 0 33 32">
<g clip-path="url(#clip0_4248_8116)">
<path d="M16.5 32C25.3366 32 32.5 24.8366 32.5 16C32.5 7.16344 25.3366 0 16.5 0C7.66344 0 0.5 7.16344 0.5 16C0.5 24.8366 7.66344 32 16.5 32Z" fill="#0052FF"/>
<path fill-rule="evenodd" clip-rule="evenodd" d="M5.25 16C5.25 22.2132 10.2868 27.25 16.5 27.25C22.7132 27.25 27.75 22.2132 27.75 16C27.75 9.78678 22.7132 4.75 16.5 4.75C10.2868 4.75 5.25 9.78678 5.25 16ZM13.625 12.375C13.2108 12.375 12.875 12.7108 12.875 13.125V18.875C12.875 19.2892 13.2108 19.625 13.625 19.625H19.375C19.7892 19.625 20.125 19.2892 20.125 18.875V13.125C20.125 12.7108 19.7892 12.375 19.375 12.375H13.625Z" fill="white"/>
</g>
<defs>
<clipPath id="clip0_4248_8116">
<rect width="32" height="32" fill="white" transform="translate(0.5)"/>
</clipPath>
</defs>
</symbol>
<symbol id="wallet-metamask" viewBox="0 0 33 32">
<g clip-path="url(#clip0_4248_8071)">
<path d="M30.9062 1.25L18.4199 10.5237L20.7289 5.05235L30.9062 1.25Z" fill="#E2761B" stroke="#E2761B" stroke-width="0.3125" stroke-linecap="round" stroke-linejoin="round"/>
<path d="M2.08203 1.25L14.4679 10.6116L12.2718 5.05235L2.08203 1.25Z" fill="#E4761B" stroke="#E4761B" stroke-width="0.3125" stroke-linecap="round" stroke-linejoin="round"/>
<path d="M26.4134 22.7461L23.0879 27.841L30.2032 29.7986L32.2487 22.859L26.4134 22.7461Z" fill="#E4761B" stroke="#E4761B" stroke-width="0.3125" stroke-linecap="round" stroke-linejoin="round"/>
<path d="M0.763672 22.859L2.79661 29.7986L9.91191 27.841L6.58642 22.7461L0.763672 22.859Z" fill="#E4761B" stroke="#E4761B" stroke-width="0.3125" stroke-linecap="round" stroke-linejoin="round"/>
<path d="M9.51009 14.1386L7.52734 17.1378L14.5924 17.4515L14.3415 9.85938L9.51009 14.1386Z" fill="#E4761B" stroke="#E4761B" stroke-width="0.3125" stroke-linecap="round" stroke-linejoin="round"/>
<path d="M23.4772 14.1385L18.5831 9.77148L18.4199 17.4515L25.4725 17.1378L23.4772 14.1385Z" fill="#E4761B" stroke="#E4761B" stroke-width="0.3125" stroke-linecap="round" stroke-linejoin="round"/>
<path d="M9.91211 27.8419L14.1537 25.7713L10.4894 22.9102L9.91211 27.8419Z" fill="#E4761B" stroke="#E4761B" stroke-width="0.3125" stroke-linecap="round" stroke-linejoin="round"/>
<path d="M18.834 25.7713L23.0881 27.8419L22.4983 22.9102L18.834 25.7713Z" fill="#E4761B" stroke="#E4761B" stroke-width="0.3125" stroke-linecap="round" stroke-linejoin="round"/>
<path d="M23.0881 27.8421L18.834 25.7715L19.1728 28.5448L19.1352 29.7119L23.0881 27.8421Z" fill="#D7C1B3" stroke="#D7C1B3" stroke-width="0.3125" stroke-linecap="round" stroke-linejoin="round"/>
<path d="M9.91211 27.8421L13.8651 29.7119L13.84 28.5448L14.1537 25.7715L9.91211 27.8421Z" fill="#D7C1B3" stroke="#D7C1B3" stroke-width="0.3125" stroke-linecap="round" stroke-linejoin="round"/>
<path d="M13.9275 21.0781L10.3887 20.0365L12.8859 18.8945L13.9275 21.0781Z" fill="#233447" stroke="#233447" stroke-width="0.3125" stroke-linecap="round" stroke-linejoin="round"/>
<path d="M19.0605 21.0781L20.1021 18.8945L22.6119 20.0365L19.0605 21.0781Z" fill="#233447" stroke="#233447" stroke-width="0.3125" stroke-linecap="round" stroke-linejoin="round"/>
<path d="M9.91143 27.841L10.5138 22.7461L6.58594 22.859L9.91143 27.841Z" fill="#CD6116" stroke="#CD6116" stroke-width="0.3125" stroke-linecap="round" stroke-linejoin="round"/>
<path d="M22.4863 22.7461L23.0887 27.841L26.4142 22.859L22.4863 22.7461Z" fill="#CD6116" stroke="#CD6116" stroke-width="0.3125" stroke-linecap="round" stroke-linejoin="round"/>
<path d="M25.4725 17.1367L18.4199 17.4504L19.0725 21.0771L20.114 18.8936L22.6238 20.0355L25.4725 17.1367Z" fill="#CD6116" stroke="#CD6116" stroke-width="0.3125" stroke-linecap="round" stroke-linejoin="round"/>
<path d="M10.3885 20.0355L12.8983 18.8936L13.9273 21.0771L14.5924 17.4504L7.52734 17.1367L10.3885 20.0355Z" fill="#CD6116" stroke="#CD6116" stroke-width="0.3125" stroke-linecap="round" stroke-linejoin="round"/>
<path d="M7.52734 17.1367L10.4889 22.9093L10.3885 20.0355L7.52734 17.1367Z" fill="#E4751F" stroke="#E4751F" stroke-width="0.3125" stroke-linecap="round" stroke-linejoin="round"/>
<path d="M22.6235 20.0355L22.498 22.9093L25.4722 17.1367L22.6235 20.0355Z" fill="#E4751F" stroke="#E4751F" stroke-width="0.3125" stroke-linecap="round" stroke-linejoin="round"/>
<path d="M14.5928 17.4512L13.9277 21.0778L14.756 25.3571L14.9442 19.7225L14.5928 17.4512Z" fill="#E4751F" stroke="#E4751F" stroke-width="0.3125" stroke-linecap="round" stroke-linejoin="round"/>
<path d="M18.4209 17.4512L18.082 19.71L18.2326 25.3571L19.0734 21.0778L18.4209 17.4512Z" fill="#E4751F" stroke="#E4751F" stroke-width="0.3125" stroke-linecap="round" stroke-linejoin="round"/>
<path d="M19.0732 21.0767L18.2324 25.3559L18.8348 25.7701L22.4991 22.9089L22.6246 20.0352L19.0732 21.0767Z" fill="#F6851B" stroke="#F6851B" stroke-width="0.3125" stroke-linecap="round" stroke-linejoin="round"/>
<path d="M10.3887 20.0352L10.4891 22.9089L14.1534 25.7701L14.7557 25.3559L13.9275 21.0767L10.3887 20.0352Z" fill="#F6851B" stroke="#F6851B" stroke-width="0.3125" stroke-linecap="round" stroke-linejoin="round"/>
<path d="M19.1356 29.7116L19.1733 28.5445L18.8596 28.2685H14.1286L13.84 28.5445L13.8651 29.7116L9.91211 27.8418L11.2925 28.9712L14.0909 30.9163H18.8972L21.7082 28.9712L23.0886 27.8418L19.1356 29.7116Z" fill="#C0AD9E" stroke="#C0AD9E" stroke-width="0.3125" stroke-linecap="round" stroke-linejoin="round"/>
<path d="M18.8344 25.7715L18.232 25.3574H14.7559L14.1536 25.7715L13.8398 28.5449L14.1285 28.2688H18.8595L19.1732 28.5449L18.8344 25.7715Z" fill="#161616" stroke="#161616" stroke-width="0.3125" stroke-linecap="round" stroke-linejoin="round"/>
<path d="M31.4332 11.1261L32.4999 6.00608L30.9061 1.25L18.834 10.21L23.4771 14.1378L30.0403 16.0578L31.4959 14.3637L30.8685 13.912L31.8724 12.9959L31.0944 12.3935L32.0983 11.628L31.4332 11.1261Z" fill="#763D16" stroke="#763D16" stroke-width="0.3125" stroke-linecap="round" stroke-linejoin="round"/>
<path d="M0.5 6.00608L1.56667 11.1261L0.88902 11.628L1.89294 12.3935L1.12745 12.9959L2.13137 13.912L1.50392 14.3637L2.94706 16.0578L9.5102 14.1378L14.1533 10.21L2.08118 1.25L0.5 6.00608Z" fill="#763D16" stroke="#763D16" stroke-width="0.3125" stroke-linecap="round" stroke-linejoin="round"/>
<path d="M30.04 16.0587L23.4769 14.1387L25.4722 17.1379L22.498 22.9104L26.4133 22.8602H32.2486L30.04 16.0587Z" fill="#F6851B" stroke="#F6851B" stroke-width="0.3125" stroke-linecap="round" stroke-linejoin="round"/>
<path d="M9.51034 14.1387L2.9472 16.0587L0.763672 22.8602H6.58642L10.4892 22.9104L7.52759 17.1379L9.51034 14.1387Z" fill="#F6851B" stroke="#F6851B" stroke-width="0.3125" stroke-linecap="round" stroke-linejoin="round"/>
<path d="M18.4205 17.4512L18.8346 10.2104L20.7421 5.05273H12.2715L14.1538 10.2104L14.5931 17.4512L14.7436 19.7351L14.7562 25.357H18.2323L18.2574 19.7351L18.4205 17.4512Z" fill="#F6851B" stroke="#F6851B" stroke-width="0.3125" stroke-linecap="round" stroke-linejoin="round"/>
</g>
<defs>
<clipPath id="clip0_4248_8071">
<rect width="32" height="32" fill="white" transform="translate(0.5)"/>
</clipPath>
</defs></symbol>
<symbol id="icon-RocketLaunch" viewBox="0 0 32 32">
<path d="M9.873 19.919c0.176 0.524-0.106 1.091-0.629 1.267-1.695 0.57-2.596 1.993-3.078 3.44-0.191 0.575-0.307 1.128-0.376 1.585 0.457-0.069 1.011-0.185 1.585-0.376 1.447-0.482 2.87-1.383 3.44-3.078 0.176-0.523 0.743-0.805 1.267-0.629s0.805 0.743 0.629 1.267c-0.855 2.542-2.97 3.76-4.704 4.338-0.876 0.292-1.696 0.436-2.295 0.508-0.301 0.036-0.549 0.054-0.726 0.064-0.088 0.005-0.159 0.007-0.21 0.008-0.025 0.001-0.045 0.001-0.060 0.001l-0.018 0h-0.009c-0 0-0.001 0-0.001-1-1 0-1-0-1-0.001v-0.003l0-0.006 0-0.018c0-0.015 0.001-0.035 0.001-0.060 0.001-0.050 0.004-0.121 0.008-0.209 0.009-0.177 0.028-0.425 0.064-0.726 0.072-0.599 0.216-1.419 0.508-2.295 0.577-1.734 1.795-3.849 4.338-4.704 0.523-0.176 1.091 0.106 1.267 0.629zM4.688 27.313h-1c0 0.552 0.448 1 1 1v-1z"></path>
<path d="M26.474 5.527c0.167 1.161 0.231 4.018-2.694 6.942l-7.78 7.78-4.248-4.248 7.78-7.78c2.924-2.924 5.781-2.861 6.942-2.694zM26.764 3.548c-1.596-0.231-5.155-0.233-8.646 3.258l-8.488 8.488c-0.188 0.188-0.293 0.442-0.293 0.707s0.105 0.52 0.293 0.707l5.662 5.663c0.391 0.391 1.024 0.391 1.414 0l8.488-8.488c3.491-3.491 3.489-7.050 3.258-8.646-0.058-0.427-0.255-0.824-0.56-1.129s-0.701-0.502-1.129-0.56z"></path>
<path d="M23.075 13.588c0.552 0 1 0.448 1 1v8.075l-0 0.014c-0.007 0.525-0.221 1.026-0.595 1.395l-4.036 4.048c-0.256 0.256-0.577 0.437-0.928 0.525s-0.72 0.079-1.066-0.027c-0.346-0.105-0.658-0.303-0.901-0.571s-0.408-0.597-0.479-0.952c-0-0 0 0 0 0l-1.050-5.237c-0.109-0.541 0.242-1.068 0.784-1.177s1.069 0.242 1.177 0.784l1.050 5.239 4.044-4.057v-8.061c0-0.552 0.448-1 1-1z"></path>
<path d="M9.324 7.925l0.014-0h8.075c0.552 0 1 0.448 1 1s-0.448 1-1 1h-8.061l-0.008 0.008-0-0-4.047 4.036 5.238 1.050c0.541 0.109 0.892 0.636 0.784 1.177s-0.636 0.892-1.177 0.784l-5.236-1.050c-0-0-0.001-0-0.001-0-0.355-0.071-0.684-0.236-0.952-0.479s-0.466-0.555-0.571-0.901-0.114-0.715-0.027-1.066c0.088-0.351 0.269-0.672 0.525-0.928l0.002-0.002 4.047-4.034c0.369-0.374 0.87-0.588 1.395-0.595z"></path>
</symbol>
<symbol id="creators-rocket" viewBox="0 0 20 20" >
  <path fill-rule="evenodd" clip-rule="evenodd" d="M6.17053 12.4494C6.28055 12.7766 6.10451 13.131 5.77734 13.241C4.71792 13.5973 4.15489 14.4866 3.85373 15.391C3.73414 15.7501 3.66189 16.0958 3.61848 16.3817C3.90434 16.3383 4.25006 16.266 4.60917 16.1464C5.51355 15.8453 6.4029 15.2823 6.75916 14.2228C6.86918 13.8957 7.2236 13.7196 7.55078 13.8296C7.87795 13.9397 8.05399 14.2941 7.94396 14.6213C7.4096 16.2103 6.08801 16.9715 5.00411 17.3324C4.45655 17.5148 3.94395 17.6048 3.5698 17.6497C3.38182 17.6722 3.22641 17.6836 3.116 17.6894C3.06074 17.6924 3.01658 17.6939 2.98505 17.6946C2.96928 17.695 2.95666 17.6952 2.94737 17.6954L2.93596 17.6955L2.93217 17.6955L2.93077 17.6955L2.93019 17.6955C2.92993 17.6955 2.92969 17.6955 2.92969 17.0705C2.30469 17.0705 2.30469 17.0702 2.30469 17.07L2.30469 17.0694L2.30469 17.068L2.30471 17.0642L2.30481 17.0528C2.30493 17.0435 2.30514 17.0309 2.30553 17.0151C2.30631 16.9836 2.30782 16.9394 2.31072 16.8842C2.31653 16.7738 2.32797 16.6184 2.35052 16.4304C2.3954 16.0562 2.48542 15.5436 2.66776 14.9961C3.0287 13.9122 3.78989 12.5906 5.37891 12.0562C5.70608 11.9462 6.0605 12.1222 6.17053 12.4494ZM2.92969 17.0705H2.30469C2.30469 17.4157 2.58451 17.6955 2.92969 17.6955V17.0705Z" fill="#A259FF" />
  <path fill-rule="evenodd" clip-rule="evenodd" d="M16.5462 3.45406C15.8208 3.34943 14.0351 3.31002 12.2076 5.13753L7.34482 10.0003L10 12.6555L14.8627 7.79271C16.6903 5.9652 16.6508 4.17951 16.5462 3.45406ZM16.7275 2.21727C15.7298 2.07282 13.5058 2.07157 11.3237 4.25365L6.019 9.55834C5.90179 9.67555 5.83594 9.83452 5.83594 10.0003C5.83594 10.166 5.90179 10.325 6.019 10.4422L9.55806 13.9813C9.80214 14.2254 10.1979 14.2254 10.4419 13.9813L15.7466 8.67659C17.9287 6.49452 17.9275 4.27052 17.783 3.27282C17.7465 3.0058 17.6235 2.75803 17.4329 2.5674C17.2422 2.37678 16.9945 2.25382 16.7275 2.21727Z" fill="#A259FF" />
  <path fill-rule="evenodd" clip-rule="evenodd" d="M14.422 8.49219C14.7672 8.49219 15.047 8.77201 15.047 9.11719V14.1641L15.0469 14.173C15.0423 14.5013 14.9086 14.8145 14.675 15.045L12.1527 17.575C11.9926 17.7349 11.7921 17.8484 11.5725 17.9033C11.353 17.9582 11.1227 17.9524 10.9061 17.8867C10.6896 17.8209 10.495 17.6976 10.343 17.5299C10.1912 17.3623 10.0877 17.1567 10.0435 16.9349C10.0434 16.9347 10.0435 16.9351 10.0435 16.9349L9.38731 13.6619C9.31946 13.3235 9.53882 12.9941 9.87727 12.9263C10.2157 12.8584 10.5451 13.0778 10.6129 13.4162L11.2694 16.6906L13.797 14.1552V9.11719C13.797 8.77201 14.0768 8.49219 14.422 8.49219Z" fill="#A259FF" />
  <path fill-rule="evenodd" clip-rule="evenodd" d="M5.82625 4.95319L5.83515 4.95312H10.882C11.2272 4.95312 11.507 5.23295 11.507 5.57812C11.507 5.9233 11.2272 6.20312 10.882 6.20312H5.84399L5.83894 6.20828L5.83891 6.20825L3.30859 8.73075L3.30956 8.73094L6.583 9.38719C6.92144 9.45504 7.1408 9.78441 7.07295 10.1229C7.0051 10.4613 6.67574 10.6807 6.33729 10.6128L3.06483 9.95675C3.06464 9.95671 3.06445 9.95668 3.06426 9.95664C2.84252 9.91244 2.6369 9.80892 2.46933 9.65711C2.30162 9.50516 2.1783 9.31054 2.11254 9.094C2.04677 8.87746 2.04103 8.64712 2.09592 8.42757C2.15081 8.20802 2.26427 8.00749 2.4242 7.84738L2.42514 7.84644L2.42514 7.84644L4.95424 5.32514C5.18475 5.09151 5.49796 4.95786 5.82625 4.95319Z" fill="#A259FF" />
</symbol>
        <symbol id="icon-copy" viewBox="0 0 32 32">
            <path
                d="M10 5c0-0.552 0.448-1 1-1h16c0.552 0 1 0.448 1 1v16c0 0.552-0.448 1-1 1h-6c-0.552 0-1-0.448-1-1s0.448-1 1-1h5v-14h-14v5c0 0.552-0.448 1-1 1s-1-0.448-1-1v-6z">
            </path>
            <path
                d="M4 11c0-0.552 0.448-1 1-1h16c0.552 0 1 0.448 1 1v16c0 0.552-0.448 1-1 1h-16c-0.552 0-1-0.448-1-1v-16zM6 12v14h14v-14h-14z">
            </path>
        </symbol>
        <symbol id="icon-Plus" viewBox="0 0 32 32">
            <path d="M4 16c0-0.552 0.448-1 1-1h22c0.552 0 1 0.448 1 1s-0.448 1-1 1h-22c-0.552 0-1-0.448-1-1z"></path>
            <path d="M16 4c0.552 0 1 0.448 1 1v22c0 0.552-0.448 1-1 1s-1-0.448-1-1v-22c0-0.552 0.448-1 1-1z"></path>
        </symbol>
        <symbol id="icon-globe" viewBox="0 0 32 32">
            <path
                d="M16 5c-6.075 0-11 4.925-11 11s4.925 11 11 11c6.075 0 11-4.925 11-11s-4.925-11-11-11zM3 16c0-7.18 5.82-13 13-13s13 5.82 13 13c0 7.18-5.82 13-13 13s-13-5.82-13-13z">
            </path>
            <path
                d="M3.688 12c0-0.552 0.448-1 1-1h22.625c0.552 0 1 0.448 1 1s-0.448 1-1 1h-22.625c-0.552 0-1-0.448-1-1z">
            </path>
            <path
                d="M3.688 20c0-0.552 0.448-1 1-1h22.625c0.552 0 1 0.448 1 1s-0.448 1-1 1h-22.625c-0.552 0-1-0.448-1-1z">
            </path>
            <path
                d="M13.384 8.139c-0.84 1.961-1.384 4.74-1.384 7.862s0.544 5.901 1.384 7.862c0.421 0.982 0.896 1.713 1.373 2.184 0.473 0.467 0.892 0.629 1.244 0.629s0.771-0.162 1.244-0.629c0.477-0.471 0.952-1.202 1.373-2.184 0.84-1.961 1.384-4.74 1.384-7.862s-0.544-5.901-1.384-7.862c-0.421-0.982-0.896-1.713-1.373-2.184-0.473-0.467-0.892-0.629-1.244-0.629s-0.771 0.162-1.244 0.629c-0.477 0.471-0.952 1.202-1.373 2.184zM13.351 4.532c0.724-0.715 1.62-1.206 2.649-1.206s1.925 0.491 2.649 1.206c0.72 0.711 1.322 1.689 1.806 2.82 0.97 2.264 1.545 5.323 1.545 8.649s-0.575 6.385-1.545 8.649c-0.484 1.13-1.086 2.109-1.806 2.82-0.724 0.715-1.62 1.206-2.649 1.206s-1.925-0.491-2.649-1.206c-0.72-0.711-1.322-1.689-1.806-2.82-0.97-2.265-1.545-5.323-1.545-8.649s0.575-6.385 1.545-8.649c0.484-1.13 1.086-2.109 1.806-2.82z">
            </path>
        </symbol>
        <symbol id="icon-DiscordLogo" viewBox="0 0 32 32">
            <path
                d="M12 19.5c0.828 0 1.5-0.672 1.5-1.5s-0.672-1.5-1.5-1.5c-0.828 0-1.5 0.672-1.5 1.5s0.672 1.5 1.5 1.5z">
            </path>
            <path
                d="M20 19.5c0.828 0 1.5-0.672 1.5-1.5s-0.672-1.5-1.5-1.5c-0.828 0-1.5 0.672-1.5 1.5s0.672 1.5 1.5 1.5z">
            </path>
            <path
                d="M15.992 9.999c-2.168-0.016-4.325 0.306-6.394 0.954-0.527 0.165-1.088-0.128-1.253-0.655s0.128-1.088 0.655-1.253c2.265-0.71 4.626-1.063 6.999-1.046 2.373-0.017 4.734 0.336 6.999 1.046 0.527 0.165 0.82 0.726 0.655 1.253s-0.726 0.82-1.253 0.655c-2.069-0.648-4.226-0.97-6.393-0.954h-0.015z">
            </path>
            <path
                d="M8.346 21.701c0.165-0.527 0.726-0.82 1.253-0.655 2.069 0.648 4.226 0.97 6.394 0.954h0.015c2.168 0.016 4.325-0.306 6.393-0.954 0.527-0.165 1.088 0.128 1.253 0.655s-0.128 1.088-0.655 1.253c-2.265 0.71-4.626 1.063-6.999 1.046-2.373 0.017-4.734-0.336-6.999-1.046-0.527-0.165-0.82-0.726-0.655-1.253z">
            </path>
            <path
                d="M20.221 4.812c0.43-0.243 0.935-0.319 1.418-0.213 1.317 0.286 2.607 0.686 3.855 1.197 0.281 0.108 0.533 0.28 0.737 0.501 0.206 0.224 0.357 0.492 0.442 0.785l4.236 14.144c0.111 0.369 0.113 0.761 0.007 1.131s-0.315 0.702-0.604 0.956l-0.005 0.005c-2.067 1.799-4.869 3.161-8.051 3.941-0.442 0.113-0.909 0.069-1.323-0.124-0.412-0.192-0.745-0.52-0.943-0.929l-1.508-2.992c-0.249-0.493-0.050-1.095 0.443-1.343s1.095-0.050 1.343 0.443l1.514 3.002c2.938-0.721 5.432-1.958 7.212-3.506l0.656 0.754-0.662-0.75c0.002-0.002 0.003-0.004 0.004-0.006s0.001-0.005 0-0.007l-4.236-14.145c-0.003-0.001-0.007-0.003-0.011-0.004-1.143-0.469-2.325-0.836-3.532-1.098l-0.002-0c-0.003-0.001-0.006-0-0.009 0.001s-0.004 0.003-0.005 0.006l-0.985 2.98c-0.173 0.524-0.739 0.809-1.263 0.636s-0.809-0.739-0.636-1.263l0.99-2.996c0.16-0.468 0.486-0.861 0.917-1.104z">
            </path>
            <path
                d="M10.798 6.554c-0.003-0.002-0.006-0.002-0.009-0.001l-0.002 0c-1.207 0.262-2.389 0.629-3.532 1.098-0.004 0.001-0.007 0.003-0.011 0.004l-4.236 14.145c-0.001 0.002-0.001 0.005-0 0.007s0.002 0.004 0.003 0.005c1.78 1.547 4.272 2.783 7.207 3.502l0.001-0.002 1.512-3c0.249-0.493 0.85-0.691 1.343-0.443s0.691 0.85 0.443 1.343l-1.508 2.992c-0.198 0.409-0.531 0.737-0.942 0.929-0.413 0.193-0.881 0.237-1.323 0.124-3.182-0.78-5.983-2.142-8.051-3.941l-0.005-0.005c-0.288-0.255-0.498-0.586-0.604-0.956s-0.103-0.762 0.007-1.131c-0 0 0-0 0 0l4.236-14.145c0.085-0.292 0.236-0.561 0.442-0.785 0.204-0.221 0.456-0.393 0.737-0.501 1.248-0.511 2.538-0.912 3.856-1.197 0.482-0.105 0.987-0.029 1.417 0.213s0.757 0.636 0.917 1.104l0.003 0.009 0.988 2.988c0.173 0.524-0.111 1.090-0.636 1.263s-1.090-0.111-1.263-0.636l-0.985-2.98c-0.001-0.003-0.003-0.005-0.005-0.006z">
            </path>
        </symbol>
        <symbol id="icon-YoutubeLogo" viewBox="0 0 32 32">
            <path
                d="M13.528 11.118c0.325-0.174 0.72-0.155 1.027 0.050l6 4c0.278 0.185 0.445 0.498 0.445 0.832s-0.167 0.647-0.445 0.832l-6 4c-0.307 0.205-0.701 0.224-1.027 0.050s-0.528-0.513-0.528-0.882v-8c0-0.369 0.203-0.708 0.528-0.882zM15 13.869v4.263l3.197-2.131-3.197-2.131z">
            </path>
            <path
                d="M15.999 5.050h0.083c0.054 0 0.134 0.001 0.236 0.002 0.204 0.002 0.497 0.007 0.863 0.018 0.729 0.022 1.746 0.068 2.897 0.165 2.276 0.192 5.174 0.591 7.406 1.444l0.015 0.006c0.438 0.175 0.829 0.451 1.141 0.806s0.536 0.777 0.655 1.234l0.001 0.004c0.311 1.219 0.706 3.478 0.706 7.273s-0.395 6.054-0.706 7.273l-0.001 0.004c-0.119 0.457-0.343 0.88-0.655 1.234s-0.703 0.63-1.141 0.806l-0.015 0.006c-2.231 0.853-5.129 1.251-7.406 1.444-1.151 0.097-2.167 0.143-2.897 0.165-0.365 0.011-0.659 0.016-0.863 0.018-0.102 0.001-0.181 0.001-0.236 0.002h-0.162c-0.054-0-0.134-0.001-0.236-0.002-0.204-0.002-0.497-0.007-0.863-0.018-0.729-0.022-1.746-0.068-2.897-0.165-2.276-0.192-5.174-0.591-7.406-1.444l-0.015-0.006c-0.438-0.175-0.829-0.451-1.141-0.806s-0.536-0.777-0.655-1.234l-0.001-0.004c-0.311-1.219-0.706-3.478-0.706-7.273s0.395-6.054 0.706-7.273l0.001-0.004c0.119-0.457 0.343-0.88 0.655-1.234s0.703-0.63 1.141-0.806l0.015-0.006c2.231-0.853 5.129-1.251 7.406-1.444 1.151-0.097 2.168-0.143 2.897-0.165 0.365-0.011 0.659-0.016 0.863-0.018 0.102-0.001 0.181-0.001 0.236-0.002h0.080zM15.995 24.95l0.011-0 0.003 0h0.068c0.049-0 0.123-0.001 0.219-0.001 0.192-0.002 0.473-0.007 0.824-0.017 0.702-0.021 1.682-0.065 2.789-0.159 2.236-0.189 4.896-0.57 6.852-1.316 0.145-0.059 0.274-0.151 0.377-0.268 0.105-0.119 0.18-0.26 0.22-0.413 0.264-1.032 0.643-3.122 0.643-6.775s-0.38-5.743-0.643-6.775c-0.040-0.153-0.115-0.294-0.22-0.413-0.103-0.117-0.233-0.209-0.377-0.268-1.955-0.745-4.615-1.127-6.852-1.316-1.107-0.093-2.086-0.138-2.789-0.159-0.351-0.011-0.632-0.015-0.824-0.017-0.096-0.001-0.17-0.001-0.219-0.002l-0.153-0c-0.049 0-0.123 0-0.219 0.002-0.192 0.002-0.473 0.007-0.824 0.017-0.702 0.021-1.682 0.066-2.789 0.159-2.236 0.189-4.896 0.57-6.852 1.316-0.145 0.059-0.274 0.151-0.377 0.268-0.104 0.119-0.18 0.26-0.22 0.413-0.264 1.032-0.643 3.122-0.643 6.775s0.38 5.743 0.643 6.775c0.040 0.153 0.115 0.294 0.22 0.413 0.103 0.117 0.233 0.209 0.377 0.268 1.956 0.745 4.616 1.127 6.852 1.316 1.107 0.093 2.086 0.138 2.789 0.159 0.351 0.011 0.632 0.015 0.824 0.017 0.096 0.001 0.17 0.001 0.219 0.001h0.071z">
            </path>
        </symbol>
        <symbol id="icon-twit2-optimized" viewBox="0 0 32 32">
            <path fill="none" stroke="#858584" style="stroke: var(--color1, #858584)" stroke-linejoin="round"
                stroke-linecap="round" stroke-miterlimit="4" stroke-width="2"
                d="M16 11c0-2.75 2.313-5.037 5.063-5 2.015 0.024 3.741 1.237 4.512 2.968l0.013 0.032h4.413l-4.038 4.038c-0.555 8.377-7.486 14.962-15.955 14.962-0.002 0-0.005 0-0.007 0h0c-4 0-5-1.5-5-1.5s3.999-1.5 5.999-4.5c0 0-8-4-6-15 0 0 5 5 11 6v-2z">
            </path>
        </symbol>
        <symbol id="icon-InstagramLogo" viewBox="0 0 32 32">
            <path
                d="M16 12c-2.209 0-4 1.791-4 4s1.791 4 4 4c2.209 0 4-1.791 4-4s-1.791-4-4-4zM10 16c0-3.314 2.686-6 6-6s6 2.686 6 6c0 3.314-2.686 6-6 6s-6-2.686-6-6z">
            </path>
            <path
                d="M10.5 5.5c-2.761 0-5 2.239-5 5v11c0 2.761 2.239 5 5 5h11c2.761 0 5-2.239 5-5v-11c0-2.761-2.239-5-5-5h-11zM3.5 10.5c0-3.866 3.134-7 7-7h11c3.866 0 7 3.134 7 7v11c0 3.866-3.134 7-7 7h-11c-3.866 0-7-3.134-7-7v-11z">
            </path>
            <path
                d="M22.5 11c0.828 0 1.5-0.672 1.5-1.5s-0.672-1.5-1.5-1.5c-0.828 0-1.5 0.672-1.5 1.5s0.672 1.5 1.5 1.5z">
            </path>
        </symbol><symbol id="button-icon"  viewBox="0 0 20 20">
  <path fill-rule="evenodd" clip-rule="evenodd" d="M1.875 4.375C1.875 4.02982 2.15482 3.75 2.5 3.75H17.5C17.8452 3.75 18.125 4.02982 18.125 4.375V15C18.125 15.3315 17.9933 15.6495 17.7589 15.8839C17.5245 16.1183 17.2065 16.25 16.875 16.25H3.125C2.79348 16.25 2.47554 16.1183 2.24112 15.8839C2.0067 15.6495 1.875 15.3315 1.875 15V4.375ZM3.125 5V15H16.875V5H3.125Z" fill="white" />
  <path fill-rule="evenodd" clip-rule="evenodd" d="M2.03928 3.95268C2.27253 3.69823 2.66788 3.68104 2.92233 3.91428L10 10.4021L17.0777 3.91428C17.3321 3.68104 17.7275 3.69823 17.9607 3.95268C18.194 4.20713 18.1768 4.60248 17.9223 4.83573L10.4223 11.7107C10.1834 11.9298 9.81663 11.9298 9.57768 11.7107L2.07768 4.83573C1.82323 4.60248 1.80604 4.20713 2.03928 3.95268Z" fill="white" />
</symbol>

<symbol id="hiw-svg-1" viewBox="0 0 100 101">
  <path d="M50.0006 92.1673C73.0126 92.1673 91.6673 73.5126 91.6673 50.5006C91.6673 27.4888 73.0126 8.83398 50.0006 8.83398C26.9888 8.83398 8.33398 27.4888 8.33398 50.5006C8.33398 73.5126 26.9888 92.1673 50.0006 92.1673Z" fill="url(#paint0_linear_6202_4240)" />
  <path fill-rule="evenodd" clip-rule="evenodd" d="M47.1364 16.6527C47.8335 16.6527 48.3987 16.0876 48.3987 15.3905C48.3987 14.6934 47.8335 14.1283 47.1364 14.1283C46.4393 14.1283 45.8745 14.6934 45.8745 15.3905C45.8745 16.0876 46.4393 16.6527 47.1364 16.6527ZM47.1364 17.5994C48.3564 17.5994 49.3455 16.6104 49.3455 15.3905C49.3455 14.1706 48.3564 13.1816 47.1364 13.1816C45.9165 13.1816 44.9277 14.1706 44.9277 15.3905C44.9277 16.6104 45.9165 17.5994 47.1364 17.5994Z" fill="white" />
  <path fill-rule="evenodd" clip-rule="evenodd" d="M17.0643 74.6234C17.7614 74.6234 18.3265 74.0581 18.3265 73.361C18.3265 72.6639 17.7614 72.0991 17.0643 72.0991C16.3672 72.0991 15.8021 72.6639 15.8021 73.361C15.8021 74.0581 16.3672 74.6234 17.0643 74.6234ZM17.0643 75.5701C18.2842 75.5701 19.2732 74.581 19.2732 73.361C19.2732 72.1411 18.2842 71.1523 17.0643 71.1523C15.8444 71.1523 14.8555 72.1411 14.8555 73.361C14.8555 74.581 15.8444 75.5701 17.0643 75.5701Z" fill="white" />
  <path fill-rule="evenodd" clip-rule="evenodd" d="M86.2673 71.7249C86.9644 71.7249 87.5296 71.1597 87.5296 70.4626C87.5296 69.7655 86.9644 69.2006 86.2673 69.2006C85.5702 69.2006 85.0053 69.7655 85.0053 70.4626C85.0053 71.1597 85.5702 71.7249 86.2673 71.7249ZM86.2673 72.6717C87.4872 72.6717 88.4764 71.6825 88.4764 70.4626C88.4764 69.2427 87.4872 68.2539 86.2673 68.2539C85.0474 68.2539 84.0586 69.2427 84.0586 70.4626C84.0586 71.6825 85.0474 72.6717 86.2673 72.6717Z" fill="white" />
  <path d="M26.5912 22.308C26.6841 21.9234 27.2311 21.9234 27.324 22.308L27.6364 23.6024C27.6696 23.7398 27.7769 23.8471 27.9144 23.8803L29.2088 24.1928C29.5934 24.2856 29.5934 24.8327 29.2088 24.9255L27.9144 25.238C27.7769 25.2712 27.6696 25.3785 27.6364 25.5159L27.324 26.8103C27.2311 27.1949 26.6841 27.1949 26.5912 26.8103L26.2788 25.5159C26.2456 25.3785 26.1383 25.2712 26.0008 25.238L24.7064 24.9255C24.3218 24.8327 24.3218 24.2856 24.7064 24.1928L26.0008 23.8803C26.1383 23.8471 26.2456 23.7398 26.2788 23.6024L26.5912 22.308Z" fill="white" />
  <path d="M80.1791 78.9742C80.2809 78.5529 80.8806 78.5529 80.9824 78.9742L81.3248 80.3931C81.361 80.5438 81.4788 80.6616 81.6295 80.6978L83.0483 81.0405C83.4697 81.142 83.4697 81.7416 83.0483 81.8434L81.6295 82.1862C81.4788 82.2224 81.361 82.3402 81.3248 82.4905L80.9824 83.9094C80.8806 84.3311 80.2809 84.3311 80.1791 83.9094L79.8364 82.4905C79.8001 82.3402 79.6824 82.2224 79.532 82.1862L78.1132 81.8434C77.6914 81.7416 77.6914 81.142 78.1132 81.0405L79.532 80.6978C79.6824 80.6616 79.8001 80.5438 79.8364 80.3931L80.1791 78.9742Z" fill="url(#paint1_linear_6202_4240)" />
  <path d="M20.6626 84.2817C21.1423 84.2049 21.5253 84.6759 21.3519 85.1299L20.182 88.1933C20.0087 88.6473 19.409 88.7433 19.1027 88.3661L17.0346 85.8212C16.7282 85.4444 16.9448 84.877 17.4245 84.8002L20.6626 84.2817Z" fill="url(#paint2_linear_6202_4240)" />
  <path d="M82.2389 25.5026C82.119 25.0318 82.5534 24.6076 83.0212 24.7391L86.1784 25.6263C86.6458 25.7577 86.7962 26.3461 86.4483 26.6855L84.1016 28.9759C83.7538 29.3152 83.1694 29.151 83.0491 28.6802L82.2389 25.5026Z" fill="url(#paint3_linear_6202_4240)" />
  <path d="M71.7275 47.4964L64.8823 48.8272C62.9344 49.2054 61.6627 51.0913 62.0413 53.0388C62.4199 54.9862 64.3054 56.258 66.2529 55.8797L73.0986 54.5489C75.046 54.1703 76.3178 52.2848 75.9391 50.3373C75.5609 48.3899 73.675 47.1177 71.7275 47.4964Z" fill="url(#paint4_linear_6202_4240)" />
  <path d="M74.4172 51.0089C74.4516 50.1223 73.761 49.3755 72.8741 49.3411C71.9875 49.3063 71.2408 49.9973 71.2063 50.8839C71.1716 51.7705 71.8625 52.5172 72.7491 52.552C73.636 52.5864 74.3828 51.8955 74.4172 51.0089Z" fill="#EBEBEB" />
  <path d="M72.9788 51.8091C73.4556 51.7163 73.7668 51.2547 73.6744 50.7783C73.5817 50.3015 73.1201 49.9903 72.6433 50.0826C72.1668 50.1754 71.8552 50.637 71.948 51.1138C72.0407 51.5903 72.5023 51.9018 72.9788 51.8091Z" fill="#DBDBDB" />
  <path d="M60.8735 36.6766L25.9208 43.4709C23.9565 43.8524 22.6737 45.7546 23.0555 47.7187L27.778 72.0136C28.1598 73.9781 30.0617 75.2607 32.026 74.8788L66.9786 68.085C68.9431 67.7031 70.2257 65.8013 69.8442 63.8368L65.1213 39.5419C64.7398 37.5777 62.838 36.2948 60.8735 36.6766Z" fill="url(#paint5_linear_6202_4240)" />
  <path d="M60.2338 25.6308L67.3737 44.0857C67.7733 45.1173 67.2596 46.2774 66.2298 46.6763L36.9606 57.9999C35.9308 58.3991 34.7707 57.8854 34.3709 56.8538L27.2312 38.3988C26.8606 37.4386 27.3367 36.3598 28.2971 35.9892L57.8233 24.5671C58.7838 24.1966 59.8625 24.6727 60.2331 25.6331L60.2338 25.6308Z" fill="url(#paint6_linear_6202_4240)" />
  <path d="M61.6105 43.3242C61.9765 44.2731 61.5058 45.3401 60.5569 45.706C59.6084 46.0723 58.541 45.6013 58.175 44.6524C57.8087 43.7039 58.2797 42.6368 59.2286 42.2705C60.1772 41.9046 61.2446 42.3756 61.6105 43.3242Z" fill="url(#paint7_linear_6202_4240)" />
  <path d="M63.7236 42.5056C64.0899 43.4545 63.6189 44.5216 62.6704 44.8879C61.7214 45.2538 60.6544 44.7828 60.2881 43.8343C59.9222 42.8853 60.3932 41.8183 61.3417 41.4524C62.2906 41.0861 63.3577 41.5571 63.7236 42.5056Z" fill="url(#paint8_linear_6202_4240)" />
  <path d="M36.0547 36.6308L31.2593 38.4859C30.8727 38.6355 30.6805 39.0703 30.8301 39.4569L31.945 42.3388C32.0945 42.7254 32.5293 42.9178 32.9159 42.7682L37.7111 40.9127C38.0981 40.7634 38.2901 40.3287 38.1405 39.9421L37.0256 37.0602C36.876 36.6734 36.4412 36.4813 36.0547 36.6308Z" fill="url(#paint9_linear_6202_4240)" />
  <path d="M57.8797 30.8851L55.0757 31.9691C54.4268 32.2183 53.6986 31.8967 53.4475 31.2483C53.1986 30.5993 53.5199 29.8709 54.1685 29.6201L56.9721 28.5362C57.6207 28.2854 58.3497 28.6085 58.6004 29.257C58.8497 29.906 58.5279 30.6343 57.8797 30.8851Z" fill="white" />
  <path d="M33.4967 47.0266L33.3008 47.274C33.3008 47.274 33.2846 47.2918 33.2729 47.2961C33.2496 47.3052 33.2244 47.2994 33.208 47.2867C33.1768 47.2603 33.1727 47.2197 33.1987 47.1925L33.4644 46.8476C33.487 46.8215 33.5326 46.8157 33.5585 46.8382C33.5726 46.8501 33.58 46.8642 33.5847 46.8816L34.2238 48.5316C34.2366 48.565 34.2225 48.603 34.1858 48.6171C34.1524 48.6298 34.1131 48.6124 34.1004 48.5791L33.5001 47.0251L33.4967 47.0266Z" fill="#F8F8F8" />
  <path d="M34.6433 48.3146L35.1888 47.232C35.2531 47.1001 35.2591 46.9563 35.2097 46.8277C35.1675 46.7175 35.0835 46.6237 34.9695 46.5657C34.8409 46.5005 34.6943 46.4972 34.5698 46.5469C34.4563 46.5907 34.3609 46.6712 34.3016 46.786L34.2455 46.8994C34.2301 46.9338 34.1878 46.9483 34.1582 46.9309C34.1235 46.9154 34.1092 46.8733 34.1265 46.8436L34.1819 46.7284C34.2569 46.5849 34.3805 46.478 34.5224 46.4237C34.6792 46.3632 34.8608 46.3625 35.0282 46.4494C35.1768 46.5226 35.2807 46.6436 35.3338 46.782C35.3947 46.9407 35.3928 47.1251 35.3098 47.2929L34.8427 48.2208L35.6937 47.894C35.7264 47.8795 35.765 47.8954 35.7791 47.932C35.7919 47.9654 35.7745 48.0049 35.7411 48.0175L34.7396 48.4056L34.7296 48.4096C34.7112 48.4168 34.6909 48.4186 34.6758 48.4092C34.6416 48.3896 34.6268 48.3512 34.6423 48.3168L34.6433 48.3146Z" fill="#F8F8F8" />
  <path d="M36.6381 45.7339L36.3584 46.3908C36.4805 46.3709 36.6095 46.3825 36.7297 46.4361C36.8935 46.5089 37.0138 46.6426 37.0739 46.7995C37.1341 46.9564 37.1359 47.1357 37.0613 47.3002C36.9884 47.4643 36.8551 47.5861 36.6989 47.648C36.5457 47.7067 36.3663 47.7085 36.2017 47.6339C36.1678 47.6201 36.1507 47.581 36.1672 47.5441C36.1803 47.5082 36.2203 47.493 36.2573 47.5093C36.3877 47.5647 36.5272 47.5647 36.6508 47.5172C36.7743 47.4698 36.8797 47.3756 36.9392 47.2459C36.9975 47.114 36.9953 46.9734 36.9479 46.8498C36.9004 46.7263 36.8066 46.6209 36.6761 46.5658C36.546 46.5064 36.4055 46.5089 36.2819 46.556C36.262 46.564 36.2395 46.5607 36.2205 46.5509L36.2172 46.5524C36.1809 46.5375 36.1649 46.4959 36.182 46.4604L36.4508 45.8288L35.7616 46.0933C35.7255 46.1093 35.6863 46.0919 35.6729 46.0567C35.6588 46.0201 35.6762 45.9806 35.7113 45.9672L36.5522 45.6444C36.5881 45.6288 36.6276 45.6462 36.641 45.6814C36.645 45.6912 36.6453 45.7027 36.6435 45.7129C36.6435 45.7223 36.641 45.731 36.6377 45.7379L36.6381 45.7339Z" fill="#F8F8F8" />
  <path d="M38.6548 46.4642L37.6819 46.8414L37.6736 46.8446C37.6602 46.8497 37.6439 46.8522 37.6301 46.8461C37.5939 46.837 37.5747 46.7964 37.5885 46.7624L38.1279 45.066L38.1298 45.0613C38.1424 45.024 38.1761 45.0073 38.2135 45.0196C38.2265 45.0243 38.2363 45.0341 38.245 45.0421C38.2468 45.0472 38.2515 45.049 38.2522 45.0508L38.2555 45.0591L38.7319 46.291L38.8522 46.2446C38.8888 46.2309 38.9283 46.2483 38.941 46.2816C38.9537 46.3149 38.9363 46.3541 38.9011 46.3675L38.7812 46.4138L38.8997 46.7225C38.9124 46.7559 38.895 46.795 38.8598 46.8084C38.8265 46.8214 38.7874 46.8037 38.7743 46.7704L38.6558 46.4617L38.6548 46.4642ZM38.6077 46.3406L38.2 45.2892L37.758 46.6707L38.6087 46.3439L38.6077 46.3406Z" fill="#F8F8F8" />
  <path d="M40.9801 45.7855C40.9438 45.7707 40.9279 45.729 40.9456 45.6953C40.9612 45.6609 41.0022 45.6431 41.0373 45.6602C41.1677 45.7156 41.3076 45.7156 41.4308 45.6681C41.5543 45.6207 41.6565 45.5279 41.7152 45.3964C41.7739 45.2645 41.7721 45.1254 41.7246 45.0022C41.6768 44.8768 41.5826 44.7714 41.4533 44.7138C41.3246 44.658 41.1833 44.6587 41.0598 44.7058C40.9344 44.754 40.8308 44.8475 40.7721 44.979C40.7565 45.0138 40.7148 45.0297 40.6819 45.0138C40.6717 45.012 40.6634 45.0055 40.6594 44.9993L40.658 44.996C40.658 44.996 40.6529 44.9924 40.6514 44.9892C40.6464 44.9852 40.6431 44.9768 40.6406 44.9703C40.6391 44.9671 40.6388 44.9613 40.6369 44.9562L40.4435 44.1979C40.4359 44.1779 40.4395 44.1573 40.4507 44.1417C40.4569 44.1276 40.4699 44.1171 40.4866 44.1105L41.3243 43.7892C41.3601 43.7732 41.3993 43.7906 41.413 43.8258C41.4275 43.8642 41.4094 43.9018 41.3746 43.9152L40.5902 44.2163L40.733 44.7779C40.8036 44.6873 40.8978 44.6189 41.0065 44.5772C41.1634 44.5171 41.338 44.5131 41.5047 44.5888C41.6721 44.6605 41.7877 44.7921 41.8493 44.9522C41.908 45.1058 41.9145 45.2873 41.838 45.4526C41.7645 45.6145 41.6297 45.7373 41.4746 45.7968C41.3177 45.8569 41.1384 45.8587 40.9746 45.7859L40.9801 45.7855Z" fill="#F8F8F8" />
  <path d="M42.2176 43.8956C42.2575 43.6296 42.402 43.3883 42.6962 43.2619C42.7285 43.2459 42.7676 43.2633 42.7839 43.2956C42.7977 43.3321 42.7803 43.3713 42.7477 43.3858C42.4995 43.4927 42.3912 43.6836 42.3491 43.914C42.3278 44.0427 42.3365 44.185 42.3607 44.3231C42.422 44.1579 42.5495 44.0169 42.7267 43.9492C43.0586 43.8216 43.4256 43.985 43.5513 44.3122C43.6774 44.6408 43.5155 45.0071 43.1857 45.1358C42.864 45.2593 42.5046 45.1064 42.3705 44.7923C42.351 44.7557 42.3361 44.7173 42.3202 44.6756C42.2303 44.4365 42.1781 44.1557 42.2194 43.8948L42.2176 43.8956ZM42.4919 44.734C42.497 44.7474 42.5042 44.7561 42.5097 44.7655C42.5129 44.7738 42.5147 44.7789 42.5133 44.785C42.6328 45.0017 42.8991 45.1021 43.1347 45.0119C43.3966 44.9115 43.5252 44.6187 43.4267 44.3619C43.3281 44.105 43.0354 43.976 42.7734 44.0767C42.5165 44.1753 42.3876 44.4677 42.4865 44.7249L42.4901 44.7347L42.4919 44.734Z" fill="#F8F8F8" />
  <path d="M44.3995 44.5684L44.4539 42.7347L43.5843 43.0684C43.5517 43.0825 43.5129 43.0669 43.5002 43.0336C43.4876 43.0002 43.505 42.9607 43.5383 42.9481L44.4894 42.5829C44.5006 42.5727 44.5126 42.5684 44.5278 42.5684C44.5459 42.5709 44.5651 42.5807 44.576 42.5937C44.5825 42.601 44.5861 42.6053 44.5887 42.6118C44.5937 42.6252 44.5941 42.6365 44.5912 42.6492L44.535 44.5716C44.5339 44.5988 44.5162 44.6231 44.493 44.6318C44.4829 44.6358 44.4778 44.6376 44.4658 44.6365C44.4292 44.6354 44.3995 44.6028 44.3977 44.5687L44.3995 44.5684Z" fill="#F8F8F8" />
  <path d="M45.5123 42.1692C45.7177 42.0906 45.9518 42.192 46.0308 42.3971C46.0786 42.5224 46.0587 42.6543 45.9938 42.7598C46.2406 42.7645 46.4714 42.917 46.5645 43.159C46.6888 43.4826 46.5301 43.8424 46.2069 43.9681C45.8848 44.092 45.5235 43.9337 45.3978 43.6108C45.3047 43.3688 45.3728 43.1014 45.5489 42.9326C45.4326 42.8985 45.3308 42.8134 45.283 42.688C45.204 42.4829 45.3029 42.2514 45.5116 42.1714L45.5123 42.1692ZM46.1605 43.8424C46.4174 43.7438 46.5398 43.4594 46.4427 43.2058C46.346 42.954 46.063 42.825 45.8058 42.9239C45.5522 43.021 45.4272 43.3083 45.5239 43.5605C45.6217 43.8156 45.9069 43.9398 46.1605 43.8424ZM45.7551 42.796C45.892 42.7395 45.9619 42.5826 45.909 42.4438C45.8558 42.3054 45.7 42.2387 45.5616 42.292C45.4232 42.3453 45.3558 42.4993 45.409 42.6377C45.4623 42.7761 45.6174 42.8467 45.7565 42.7953L45.7551 42.796Z" fill="#F8F8F8" />
  <path d="M48.7056 40.9342C49.0143 40.8157 49.3516 40.9469 49.4983 41.2291C49.5034 41.2331 49.5049 41.2364 49.5085 41.2407C49.5302 41.2878 49.552 41.3389 49.5723 41.3922C49.6639 41.631 49.7157 41.9154 49.6777 42.1752C49.636 42.436 49.49 42.6835 49.1991 42.8085L49.1958 42.8099C49.1592 42.8241 49.1212 42.8099 49.1081 42.7766C49.0944 42.7397 49.1089 42.7034 49.1444 42.686C49.3886 42.5788 49.5045 42.3871 49.5429 42.1578C49.5628 42.0259 49.5589 41.8857 49.5313 41.7487C49.4701 41.9139 49.3404 42.0498 49.1603 42.119C48.8331 42.2444 48.4665 42.0868 48.3371 41.7552C48.2118 41.4284 48.3752 41.061 48.7023 40.9357L48.7056 40.9342ZM49.4038 41.3422C49.3052 41.0853 49.0154 40.9589 48.7534 41.0596C48.4965 41.1581 48.3672 41.4491 48.465 41.7045C48.5657 41.9665 48.8563 42.09 49.1132 41.9915C49.3752 41.8911 49.5045 41.6041 49.402 41.3425L49.4038 41.3422Z" fill="#F8F8F8" />
  <path d="M50.1077 41.4265C50.015 41.1848 49.9903 40.9413 50.036 40.7305C50.0845 40.5283 50.199 40.358 50.3809 40.2881C50.5628 40.2182 50.7635 40.2674 50.9345 40.3837C51.107 40.5091 51.2584 40.7037 51.353 40.945C51.4458 41.1866 51.4653 41.4319 51.42 41.6388C51.3722 41.8428 51.2581 42.0149 51.0762 42.0848C50.8943 42.1544 50.6936 42.1051 50.5215 41.9855C50.3487 41.8645 50.2001 41.6671 50.107 41.425L50.1077 41.4265ZM50.2327 41.3787C50.3175 41.599 50.4537 41.7743 50.6005 41.8769C50.7461 41.9779 50.8998 42.0091 51.0284 41.9595C51.1566 41.9102 51.2461 41.7841 51.2889 41.6109C51.3273 41.437 51.3128 41.2149 51.2284 40.9946C51.144 40.7743 51.0041 40.6 50.8592 40.4968C50.7099 40.3917 50.5599 40.3649 50.4313 40.4142C50.3026 40.4634 50.2081 40.5859 50.1708 40.7631C50.1324 40.9366 50.1501 41.1577 50.2353 41.3798L50.2327 41.3787Z" fill="#F8F8F8" />
  <path d="M51.9049 39.9072L51.7092 40.1551C51.7092 40.1551 51.6929 40.1725 51.6813 40.1772C51.6578 40.1862 51.6328 40.1804 51.6161 40.1677C51.585 40.1413 51.581 40.1007 51.6071 40.0735L51.8726 39.7283C51.8955 39.7025 51.9408 39.6964 51.9668 39.7192C51.981 39.7308 51.9882 39.7453 51.9929 39.7627L52.6321 41.4123C52.6447 41.446 52.6306 41.4837 52.594 41.4978C52.5607 41.5109 52.5216 41.4931 52.5085 41.4598L51.9085 39.9062L51.9049 39.9072Z" fill="#F8F8F8" />
  <path d="M53.0517 41.1931L53.597 40.1109C53.6615 39.979 53.6673 39.8348 53.618 39.7065C53.5757 39.5964 53.492 39.5022 53.3778 39.4445C53.2492 39.379 53.1025 39.3761 52.9782 39.4257C52.8648 39.4692 52.7699 39.5514 52.7097 39.6645L52.6539 39.7779C52.6383 39.8127 52.5959 39.8268 52.5666 39.8094C52.5318 39.7942 52.5173 39.7518 52.5347 39.7221L52.5901 39.6072C52.6651 39.4634 52.7887 39.3565 52.93 39.3003C53.0869 39.2402 53.2684 39.2395 53.4358 39.3264C53.5844 39.3996 53.6883 39.5206 53.7416 39.659C53.8025 39.8174 53.8003 40.0022 53.7173 40.1699L53.2503 41.0978L54.1014 40.771C54.134 40.7565 54.1735 40.7739 54.1869 40.809C54.1996 40.8424 54.1822 40.8815 54.1488 40.8945L53.1474 41.2826L53.1372 41.2866C53.1188 41.2935 53.0985 41.2956 53.0836 41.2862C53.0492 41.2666 53.0344 41.2282 53.0499 41.1938L53.0517 41.1931Z" fill="#F8F8F8" />
  <path d="M56.5836 38.0171L56.3035 38.6744C56.426 38.6541 56.555 38.6657 56.6749 38.7193C56.839 38.7921 56.9593 38.9258 57.0195 39.0827C57.0796 39.2396 57.0814 39.4189 57.0068 39.5834C56.9336 39.7475 56.8006 39.8693 56.6459 39.9305C56.4926 39.9896 56.3115 39.9921 56.147 39.9175C56.1129 39.9037 56.0959 39.8642 56.1126 39.8273C56.1263 39.7932 56.1655 39.7762 56.2024 39.7925C56.3329 39.8479 56.4727 39.8479 56.5963 39.8004C56.7195 39.753 56.8253 39.6588 56.8843 39.5291C56.943 39.3975 56.9405 39.2566 56.8934 39.133C56.8459 39.0099 56.7517 38.9041 56.6213 38.849C56.4916 38.7896 56.3506 38.7921 56.2271 38.8396C56.2071 38.8472 56.185 38.8443 56.1658 38.8341L56.1626 38.8356C56.1263 38.8207 56.11 38.7791 56.1274 38.7436L56.3959 38.1124L55.7068 38.3769C55.6709 38.3925 55.6318 38.3751 55.618 38.3399C55.6042 38.3033 55.6216 38.2638 55.6564 38.2504L56.4974 37.9276C56.5336 37.912 56.5727 37.9294 56.5861 37.9646C56.5901 37.9747 56.5905 37.9859 56.5887 37.9961C56.5887 38.0059 56.5861 38.0142 56.5832 38.0211L56.5836 38.0171Z" fill="#F8F8F8" />
  <path d="M58.6008 38.7487L57.6265 39.123L57.6236 39.1259L57.6189 39.1277C57.6055 39.1327 57.5899 39.1371 57.5754 39.1291C57.5392 39.1201 57.52 39.0795 57.5338 39.0454L58.0733 37.349L58.0751 37.3443C58.0877 37.307 58.1214 37.2903 58.1588 37.303C58.1718 37.3074 58.1816 37.3172 58.1903 37.3251C58.1921 37.3302 58.1954 37.3327 58.1975 37.3338L58.2008 37.3422L58.6772 38.574L58.7975 38.528C58.8341 38.5139 58.8736 38.5313 58.8863 38.5646C58.899 38.598 58.8816 38.6375 58.8464 38.6509L58.7265 38.6969L58.845 39.0056C58.8577 39.0389 58.8403 39.078 58.8051 39.0914C58.7718 39.1045 58.7327 39.0871 58.7196 39.0534L58.6012 38.7447L58.6008 38.7487ZM58.5533 38.6255L58.1461 37.5737L57.7037 38.9552L58.5548 38.6288L58.5533 38.6255Z" fill="#F8F8F8" />
  <path d="M59.3883 38.6646C59.352 38.6497 59.3361 38.6081 59.3538 38.5744C59.3691 38.5399 59.4111 38.5236 59.4455 38.5392C59.576 38.5943 59.7154 38.5943 59.839 38.5472C59.9625 38.4997 60.0647 38.407 60.1234 38.2751C60.1821 38.1436 60.1803 38.0044 60.1328 37.8809C60.0847 37.7559 59.9908 37.6504 59.8615 37.5928C59.7321 37.5352 59.5912 37.5374 59.468 37.5849C59.3426 37.6331 59.239 37.7265 59.1803 37.8581C59.1647 37.8928 59.1238 37.9102 59.0901 37.8925C59.0799 37.8907 59.0716 37.8845 59.0676 37.8783L59.0662 37.8751C59.0662 37.8751 59.0611 37.8715 59.0596 37.8678C59.0542 37.8642 59.0513 37.8559 59.0488 37.8494C59.0473 37.8457 59.047 37.8403 59.0452 37.8352L58.8517 37.0769C58.8441 37.0566 58.8477 37.0363 58.8589 37.0204C58.8651 37.0066 58.8781 36.9957 58.8948 36.9896L59.7321 36.6679C59.7683 36.6522 59.8075 36.6696 59.8209 36.7047C59.8357 36.7432 59.8176 36.7805 59.7825 36.7939L58.9984 37.095L59.1412 37.6566C59.2125 37.5682 59.306 37.4975 59.4147 37.4562C59.5712 37.3957 59.7459 37.3921 59.9129 37.4678C60.0803 37.5396 60.1959 37.6711 60.2575 37.8312C60.3162 37.9849 60.3227 38.166 60.2462 38.3312C60.1727 38.4936 60.0379 38.616 59.8828 38.6758C59.726 38.736 59.5466 38.7378 59.3828 38.6649L59.3883 38.6646Z" fill="#F8F8F8" />
  <path d="M60.6241 36.7746C60.6639 36.5085 60.8078 36.2655 61.1027 36.1409C61.1349 36.1247 61.1741 36.1422 61.19 36.1743C61.2041 36.211 61.1868 36.2502 61.1541 36.2647C60.9067 36.3731 60.7973 36.5625 60.7556 36.793C60.7342 36.9217 60.7429 37.0637 60.7672 37.2021C60.8284 37.0369 60.956 36.8959 61.1328 36.8282C61.465 36.7006 61.832 36.864 61.9578 37.1909C62.0839 37.5198 61.9219 37.8862 61.5922 38.0148C61.2701 38.1383 60.911 37.9854 60.777 37.6709C60.757 37.6347 60.7426 37.5963 60.7266 37.5546C60.6364 37.3151 60.5842 37.0347 60.6259 36.7738L60.6241 36.7746ZM60.8983 37.613C60.9034 37.6264 60.9107 37.6351 60.9161 37.6445C60.9194 37.6528 60.9212 37.6579 60.9197 37.664C61.0393 37.8804 61.3056 37.9811 61.5407 37.8909C61.8027 37.7901 61.9317 37.4977 61.8331 37.2409C61.7346 36.9836 61.4418 36.855 61.1799 36.9554C60.923 37.0543 60.794 37.3467 60.8925 37.6035L60.8965 37.6137L60.8983 37.613Z" fill="#F8F8F8" />
  <path d="M51.214 45.5742L35.541 51.6376L35.8389 52.4076L51.5118 46.3441L51.214 45.5742Z" fill="url(#paint10_linear_6202_4240)" />
  <path d="M47.2991 49.0566L36.2031 53.3494L36.5009 54.1197L47.5969 49.8269L47.2991 49.0566Z" fill="url(#paint11_linear_6202_4240)" />
  <path d="M51.5305 30.6412L44.4848 33.3669C44.2721 33.4492 44.1664 33.6883 44.2486 33.9009C44.3308 34.1136 44.57 34.2193 44.7827 34.137L51.8283 31.4113C52.041 31.329 52.1464 31.0899 52.0642 30.8773C51.9819 30.6646 51.7428 30.5589 51.5305 30.6412Z" fill="#3B3B3B" />
  <path d="M64.4428 50.3145L27.7207 57.4529L30.5784 72.1543L67.3007 65.0163L64.4428 50.3145Z" fill="url(#paint12_linear_6202_4240)" />
  <path opacity="0.2" d="M64.4428 50.3145L27.7207 57.4529L30.5784 72.1543L67.3007 65.0163L64.4428 50.3145Z" fill="black" />
  <path d="M67.8342 73.8144L31.6544 75.6452C29.8529 75.7365 28.2588 74.4887 27.9146 72.7181L22.7065 45.9246C22.5836 45.2923 23.2333 44.7898 23.8144 45.0677C24.4888 45.3898 25.2381 45.5264 25.985 45.4634L58.4864 42.6833C60.3317 42.5253 61.9987 43.784 62.352 45.6018L67.8357 73.8123C67.8357 73.813 67.835 73.8141 67.8342 73.8144Z" fill="url(#paint13_linear_6202_4240)" />
  <path d="M60.1493 60.62C60.9913 60.4565 61.5228 59.546 61.3362 58.587C61.15 57.6279 60.3163 56.983 59.4743 57.1464C58.6322 57.3102 58.1007 58.2203 58.2873 59.1797C58.4739 60.1388 59.3076 60.7837 60.1493 60.62Z" fill="#EBEBEB" />
  <path d="M60.5206 58.7455C60.6072 59.1911 60.3601 59.6143 59.9688 59.69C59.5775 59.7661 59.1898 59.4665 59.1032 59.0208C59.0166 58.5755 59.2637 58.1523 59.655 58.0763C60.0463 58.0002 60.434 58.2998 60.5206 58.7455Z" fill="#DBDBDB" />
  <defs>
    <linearGradient id="paint0_linear_6202_4240" x1="19.9584" y1="8.83398" x2="83.5597" y2="22.0735" gradientUnits="userSpaceOnUse">
      <stop stop-color="#A259FF" />
      <stop offset="1" stop-color="#3B3B3B" />
    </linearGradient>
    <linearGradient id="paint1_linear_6202_4240" x1="81.7708" y1="79.8956" x2="87.1077" y2="84.0873" gradientUnits="userSpaceOnUse">
      <stop stop-color="#A259FF" />
      <stop offset="1" stop-color="#377DF7" />
    </linearGradient>
    <linearGradient id="paint2_linear_6202_4240" x1="21.1573" y1="85.8353" x2="20.979" y2="91.1455" gradientUnits="userSpaceOnUse">
      <stop stop-color="#A259FF" />
      <stop offset="1" stop-color="#377DF7" />
    </linearGradient>
    <linearGradient id="paint3_linear_6202_4240" x1="83.7415" y1="24.8689" x2="89.0458" y2="24.5647" gradientUnits="userSpaceOnUse">
      <stop stop-color="#A259FF" />
      <stop offset="1" stop-color="#377DF7" />
    </linearGradient>
    <linearGradient id="paint4_linear_6202_4240" x1="63.6058" y1="49.075" x2="76.6859" y2="51.3366" gradientUnits="userSpaceOnUse">
      <stop stop-color="#A259FF" />
      <stop offset="1" stop-color="#3B3B3B" />
    </linearGradient>
    <linearGradient id="paint5_linear_6202_4240" x1="54.9992" y1="81.9832" x2="40.8692" y2="54.235" gradientUnits="userSpaceOnUse">
      <stop stop-color="#A259FF" />
      <stop offset="1" stop-color="#3B3B3B" />
    </linearGradient>
    <linearGradient id="paint6_linear_6202_4240" x1="31.889" y1="34.5224" x2="65.9183" y2="31.5831" gradientUnits="userSpaceOnUse">
      <stop stop-color="#A259FF" />
      <stop offset="1" stop-color="#FF6250" />
    </linearGradient>
    <linearGradient id="paint7_linear_6202_4240" x1="58.0699" y1="42.7155" x2="61.6417" y2="42.0803" gradientUnits="userSpaceOnUse">
      <stop stop-color="#A259FF" />
      <stop offset="1" stop-color="#FF6250" />
    </linearGradient>
    <linearGradient id="paint8_linear_6202_4240" x1="60.1834" y1="41.8969" x2="63.7548" y2="41.2618" gradientUnits="userSpaceOnUse">
      <stop stop-color="#A259FF" />
      <stop offset="1" stop-color="#3B3B3B" />
    </linearGradient>
    <linearGradient id="paint9_linear_6202_4240" x1="31.5623" y1="38.3689" x2="37.9499" y2="37.7471" gradientUnits="userSpaceOnUse">
      <stop stop-color="#A259FF" />
      <stop offset="1" stop-color="#3B3B3B" />
    </linearGradient>
    <linearGradient id="paint10_linear_6202_4240" x1="38.0784" y1="50.6557" x2="40.4915" y2="54.046" gradientUnits="userSpaceOnUse">
      <stop stop-color="#A259FF" />
      <stop offset="1" stop-color="#FF6250" />
    </linearGradient>
    <linearGradient id="paint11_linear_6202_4240" x1="37.9995" y1="52.6545" x2="40.6473" y2="55.7066" gradientUnits="userSpaceOnUse">
      <stop stop-color="#A259FF" />
      <stop offset="1" stop-color="#FF6250" />
    </linearGradient>
    <linearGradient id="paint12_linear_6202_4240" x1="33.6662" y1="56.2971" x2="66.3594" y2="64.8869" gradientUnits="userSpaceOnUse">
      <stop stop-color="#A259FF" />
      <stop offset="1" stop-color="#3B3B3B" />
    </linearGradient>
    <linearGradient id="paint13_linear_6202_4240" x1="58.0777" y1="64.8902" x2="1.44225" y2="37.709" gradientUnits="userSpaceOnUse">
      <stop stop-color="#A259FF" />
      <stop offset="0.666667" stop-color="white" />
    </linearGradient>
  </defs>
</symbol>
<symbol id="hiw-svg-2">
  <path d="M50.0006 91.6673C73.0126 91.6673 91.6673 73.0126 91.6673 50.0006C91.6673 26.9888 73.0126 8.33398 50.0006 8.33398C26.9888 8.33398 8.33398 26.9888 8.33398 50.0006C8.33398 73.0126 26.9888 91.6673 50.0006 91.6673Z" fill="url(#paint0_linear_6202_4288)" />
  <path fill-rule="evenodd" clip-rule="evenodd" d="M30.1073 18.6878C30.8044 18.6878 31.3695 18.1227 31.3695 17.4256C31.3695 16.7286 30.8044 16.1635 30.1073 16.1635C29.4102 16.1635 28.8451 16.7286 28.8451 17.4256C28.8451 18.1227 29.4102 18.6878 30.1073 18.6878ZM30.1073 19.6345C31.3272 19.6345 32.3162 18.6456 32.3162 17.4256C32.3162 16.2057 31.3272 15.2168 30.1073 15.2168C28.8874 15.2168 27.8984 16.2057 27.8984 17.4256C27.8984 18.6456 28.8874 19.6345 30.1073 19.6345Z" fill="white" />
  <path fill-rule="evenodd" clip-rule="evenodd" d="M18.5135 71.9495C19.2106 71.9495 19.7757 71.3843 19.7757 70.6872C19.7757 69.9901 19.2106 69.4253 18.5135 69.4253C17.8165 69.4253 17.2514 69.9901 17.2514 70.6872C17.2514 71.3843 17.8165 71.9495 18.5135 71.9495ZM18.5135 72.8963C19.7335 72.8963 20.7224 71.9071 20.7224 70.6872C20.7224 69.4673 19.7335 68.4785 18.5135 68.4785C17.2936 68.4785 16.3047 69.4673 16.3047 70.6872C16.3047 71.9071 17.2936 72.8963 18.5135 72.8963Z" fill="white" />
  <path fill-rule="evenodd" clip-rule="evenodd" d="M81.9196 36.4417C82.6167 36.4417 83.182 35.8766 83.182 35.1795C83.182 34.4825 82.6167 33.9174 81.9196 33.9174C81.2225 33.9174 80.6577 34.4825 80.6577 35.1795C80.6577 35.8766 81.2225 36.4417 81.9196 36.4417ZM81.9196 37.3885C83.1396 37.3885 84.1287 36.3993 84.1287 35.1795C84.1287 33.9597 83.1396 32.9707 81.9196 32.9707C80.6997 32.9707 79.7109 33.9597 79.7109 35.1795C79.7109 36.3993 80.6997 37.3885 81.9196 37.3885Z" fill="white" />
  <path d="M15.7221 18.9095C15.8149 18.5249 16.362 18.5249 16.4548 18.9095L16.7673 20.204C16.8005 20.3414 16.9078 20.4487 17.0452 20.4819L18.3396 20.7944C18.7242 20.8872 18.7242 21.4343 18.3396 21.5271L17.0452 21.8395C16.9078 21.8727 16.8005 21.98 16.7673 22.1175L16.4548 23.4119C16.362 23.7965 15.8149 23.7965 15.7221 23.4119L15.4096 22.1175C15.3764 21.98 15.2692 21.8727 15.1317 21.8395L13.8373 21.5271C13.4527 21.4343 13.4527 20.8872 13.8373 20.7944L15.1317 20.4819C15.2692 20.4487 15.3764 20.3414 15.4096 20.204L15.7221 18.9095Z" fill="white" />
  <path d="M83.0777 18.6931C83.1791 18.2716 83.7787 18.2716 83.8805 18.6931L84.2233 20.112C84.2595 20.2626 84.3773 20.3803 84.5276 20.4166L85.9465 20.7591C86.3682 20.8609 86.3682 21.4605 85.9465 21.5623L84.5276 21.9048C84.3773 21.9412 84.2595 22.0588 84.2233 22.2094L83.8805 23.6283C83.7787 24.0499 83.1791 24.0499 83.0777 23.6283L82.7349 22.2094C82.6987 22.0588 82.5809 21.9412 82.4302 21.9048L81.0113 21.5623C80.59 21.4605 80.59 20.8609 81.0113 20.7591L82.4302 20.4166C82.5809 20.3803 82.6987 20.2626 82.7349 20.112L83.0777 18.6931Z" fill="url(#paint1_linear_6202_4288)" />
  <path d="M19.938 80.1587C20.4177 80.0819 20.8007 80.5529 20.6273 81.0069L19.4574 84.0703C19.2841 84.5243 18.6844 84.6203 18.378 84.2431L16.31 81.6982C16.0035 81.3214 16.2202 80.754 16.6999 80.6772L19.938 80.1587Z" fill="url(#paint2_linear_6202_4288)" />
  <path d="M77.528 71.7411C77.4081 71.27 77.8425 70.8461 78.3102 70.9773L81.4675 71.8646C81.9349 71.9961 82.0852 72.5845 81.7374 72.9237L79.3907 75.2142C79.0428 75.5537 78.4584 75.3892 78.3381 74.9186L77.528 71.7411Z" fill="url(#paint3_linear_6202_4288)" />
  <path d="M66.1272 55.7474L37.9942 45.5075C35.8377 44.7227 33.4532 45.8347 32.6683 47.9912L26.0271 66.2376C25.2422 68.3941 26.3541 70.7785 28.5106 71.5633L56.6439 81.8032C58.8004 82.5879 61.1848 81.476 61.9696 79.3195L68.6109 61.0731C69.3957 58.9166 68.2837 56.5322 66.1272 55.7474Z" fill="url(#paint4_linear_6202_4288)" />
  <path d="M64.9848 61.3983L73.2953 49.4277C74.604 47.5425 74.1369 44.9534 72.2518 43.6447L60.2811 35.3341C58.396 34.0254 55.8069 34.4926 54.4982 36.3777L46.1877 48.3483C44.879 50.2335 45.346 52.8226 47.2311 54.1313L59.2018 62.4418C61.0869 63.7505 63.6761 63.2831 64.9848 61.3983Z" fill="url(#paint5_linear_6202_4288)" />
  <path d="M55.5236 51.872C55.0153 52.5727 54.0385 52.7278 53.3377 52.2191C52.637 51.7108 52.4823 50.7339 52.9907 50.0332C53.4993 49.3325 54.4762 49.1774 55.1769 49.6861C55.8772 50.1948 56.0323 51.1716 55.5236 51.872Z" fill="url(#paint6_linear_6202_4288)" />
  <path d="M60.1473 45.4905L59.1803 44.7891L54.5625 51.1568L55.5295 51.8583L60.1473 45.4905Z" fill="url(#paint7_linear_6202_4288)" />
  <path d="M60.9574 53.0028C60.4487 53.7036 59.4719 53.8586 58.7715 53.3499C58.0708 52.8416 57.9157 51.8648 58.4244 51.1641C58.9327 50.4634 59.9095 50.3083 60.6103 50.817C61.311 51.3257 61.4661 52.3025 60.9574 53.0028Z" fill="url(#paint8_linear_6202_4288)" />
  <path d="M65.5919 46.6171L64.6248 45.916L60.0078 52.2845L60.9752 52.9856L65.5919 46.6171Z" fill="url(#paint9_linear_6202_4288)" />
  <path d="M65.5787 46.6343L58.5664 45.6416L59.1823 44.7891L66.1936 45.7851L65.5787 46.6343Z" fill="url(#paint10_linear_6202_4288)" />
  <path d="M64.415 48.2379L57.4023 47.2451L58.0183 46.3926L65.0328 47.3897L64.415 48.2379Z" fill="url(#paint11_linear_6202_4288)" />
  <path d="M58.8311 34.9024L56.3975 23.6271C55.9134 21.3839 53.7022 19.9579 51.459 20.4421L36.7148 23.6245C34.4717 24.1086 33.0458 26.3196 33.53 28.5629L35.9637 39.8382C36.4478 42.0813 38.6587 43.5074 40.9022 43.0233L55.646 39.8407C57.8895 39.3567 59.3152 37.1458 58.8311 34.9024Z" fill="url(#paint12_linear_6202_4288)" />
  <path d="M58.6382 33.7434L50.3734 27.1074L47.1781 33.4068L43.8121 31.4663L39.1585 37.9442L35.668 38.6964L35.8342 39.4776C36.3951 42.0707 38.9505 43.7203 41.5437 43.1591L55.1187 40.2297C57.7118 39.6689 59.3614 37.1134 58.8002 34.5204L58.6342 33.7434H58.6382Z" fill="url(#paint13_linear_6202_4288)" />
  <path opacity="0.9" d="M39.0753 30.7144C40.3677 30.6812 41.2028 29.3847 40.6999 28.1963C40.4173 27.5315 39.7402 27.0952 39.017 27.1118C37.7249 27.145 36.8894 28.4415 37.3923 29.6299C37.6749 30.2947 38.3521 30.731 39.0753 30.7144Z" fill="white" />
  <path d="M61.5331 78.6525C60.9581 81.0698 58.4042 82.4456 56.0694 81.5956L27.9886 71.3749C26.0062 70.6535 24.8791 68.5612 25.3674 66.5086L29.355 49.7463C29.9301 47.3289 32.4838 45.9532 34.8187 46.8032L62.8995 57.0238C64.8817 57.7452 66.0089 59.8376 65.5208 61.8901L61.5331 78.6525Z" fill="url(#paint14_linear_6202_4288)" />
  <defs>
    <linearGradient id="paint0_linear_6202_4288" x1="19.9584" y1="8.33398" x2="83.5597" y2="21.5735" gradientUnits="userSpaceOnUse">
      <stop stop-color="#A259FF" />
      <stop offset="1" stop-color="#3B3B3B" />
    </linearGradient>
    <linearGradient id="paint1_linear_6202_4288" x1="84.6693" y1="19.6142" x2="90.0063" y2="23.8061" gradientUnits="userSpaceOnUse">
      <stop stop-color="#A259FF" />
      <stop offset="1" stop-color="#377DF7" />
    </linearGradient>
    <linearGradient id="paint2_linear_6202_4288" x1="20.4327" y1="81.7123" x2="20.2544" y2="87.0224" gradientUnits="userSpaceOnUse">
      <stop stop-color="#A259FF" />
      <stop offset="1" stop-color="#377DF7" />
    </linearGradient>
    <linearGradient id="paint3_linear_6202_4288" x1="79.0305" y1="71.1074" x2="84.3349" y2="70.803" gradientUnits="userSpaceOnUse">
      <stop stop-color="#A259FF" />
      <stop offset="1" stop-color="#377DF7" />
    </linearGradient>
    <linearGradient id="paint4_linear_6202_4288" x1="57.6377" y1="59.2144" x2="73.1576" y2="96.3068" gradientUnits="userSpaceOnUse">
      <stop stop-color="#A259FF" />
      <stop offset="0.416667" stop-color="#A259FF" stop-opacity="0" />
    </linearGradient>
    <linearGradient id="paint5_linear_6202_4288" x1="62.1728" y1="56.5317" x2="35.5111" y2="64.7248" gradientUnits="userSpaceOnUse">
      <stop stop-color="#FF7262" />
      <stop offset="0.317708" stop-color="#A259FF" />
    </linearGradient>
    <linearGradient id="paint6_linear_6202_4288" x1="57.9816" y1="44.6205" x2="60.9367" y2="50.8448" gradientUnits="userSpaceOnUse">
      <stop stop-color="#3B3B3B" />
      <stop offset="1" stop-color="#A259FF" />
    </linearGradient>
    <linearGradient id="paint7_linear_6202_4288" x1="68.4197" y1="33.9329" x2="71.0252" y2="36.4905" gradientUnits="userSpaceOnUse">
      <stop stop-color="#3B3B3B" />
      <stop offset="1" stop-color="#A259FF" />
    </linearGradient>
    <linearGradient id="paint8_linear_6202_4288" x1="63.4153" y1="45.7518" x2="66.37" y2="51.9757" gradientUnits="userSpaceOnUse">
      <stop stop-color="#3B3B3B" />
      <stop offset="1" stop-color="#A259FF" />
    </linearGradient>
    <linearGradient id="paint9_linear_6202_4288" x1="73.8625" y1="35.058" x2="76.4683" y2="37.6153" gradientUnits="userSpaceOnUse">
      <stop stop-color="#3B3B3B" />
      <stop offset="1" stop-color="#A259FF" />
    </linearGradient>
    <linearGradient id="paint10_linear_6202_4288" x1="67.2211" y1="41.4017" x2="67.1146" y2="48.7235" gradientUnits="userSpaceOnUse">
      <stop stop-color="#3B3B3B" />
      <stop offset="1" stop-color="#A259FF" />
    </linearGradient>
    <linearGradient id="paint11_linear_6202_4288" x1="66.06" y1="43.0064" x2="65.9527" y2="50.3281" gradientUnits="userSpaceOnUse">
      <stop stop-color="#3B3B3B" />
      <stop offset="1" stop-color="#A259FF" />
    </linearGradient>
    <linearGradient id="paint12_linear_6202_4288" x1="49.4822" y1="23.5129" x2="54.1873" y2="38.8914" gradientUnits="userSpaceOnUse">
      <stop stop-color="#FF7262" />
      <stop offset="1" stop-color="#A259FF" />
    </linearGradient>
    <linearGradient id="paint13_linear_6202_4288" x1="46.1571" y1="49.2758" x2="41.0462" y2="30.3973" gradientUnits="userSpaceOnUse">
      <stop stop-color="#A259FF" />
      <stop offset="1" stop-color="white" />
    </linearGradient>
    <linearGradient id="paint14_linear_6202_4288" x1="54.8056" y1="73.4807" x2="35.2615" y2="23.7547" gradientUnits="userSpaceOnUse">
      <stop stop-color="#A259FF" />
      <stop offset="0.666667" stop-color="white" />
    </linearGradient>
  </defs>
</symbol>

<symbol id="hiw-svg-3">
  <path d="M50.0006 92.1673C73.0126 92.1673 91.6673 73.5126 91.6673 50.5006C91.6673 27.4888 73.0126 8.83398 50.0006 8.83398C26.9888 8.83398 8.33398 27.4888 8.33398 50.5006C8.33398 73.5126 26.9888 92.1673 50.0006 92.1673Z" fill="url(#paint0_linear_6202_4315)" />
  <path fill-rule="evenodd" clip-rule="evenodd" d="M22.4979 33.3187C23.195 33.3187 23.7601 32.7536 23.7601 32.0565C23.7601 31.3594 23.195 30.7943 22.4979 30.7943C21.8008 30.7943 21.2357 31.3594 21.2357 32.0565C21.2357 32.7536 21.8008 33.3187 22.4979 33.3187ZM22.4979 34.2654C23.7178 34.2654 24.7068 33.2764 24.7068 32.0565C24.7068 30.8366 23.7178 29.8477 22.4979 29.8477C21.278 29.8477 20.2891 30.8366 20.2891 32.0565C20.2891 33.2764 21.278 34.2654 22.4979 34.2654Z" fill="white" />
  <path fill-rule="evenodd" clip-rule="evenodd" d="M18.5135 72.4495C19.2106 72.4495 19.7757 71.8843 19.7757 71.1872C19.7757 70.4901 19.2106 69.9253 18.5135 69.9253C17.8165 69.9253 17.2514 70.4901 17.2514 71.1872C17.2514 71.8843 17.8165 72.4495 18.5135 72.4495ZM18.5135 73.3963C19.7335 73.3963 20.7224 72.4071 20.7224 71.1872C20.7224 69.9673 19.7335 68.9785 18.5135 68.9785C17.2936 68.9785 16.3047 69.9673 16.3047 71.1872C16.3047 72.4071 17.2936 73.3963 18.5135 73.3963Z" fill="white" />
  <path fill-rule="evenodd" clip-rule="evenodd" d="M77.2087 19.1878C77.9058 19.1878 78.471 18.6227 78.471 17.9256C78.471 17.2286 77.9058 16.6635 77.2087 16.6635C76.5116 16.6635 75.9467 17.2286 75.9467 17.9256C75.9467 18.6227 76.5116 19.1878 77.2087 19.1878ZM77.2087 20.1345C78.4286 20.1345 79.4177 19.1456 79.4177 17.9256C79.4177 16.7057 78.4286 15.7168 77.2087 15.7168C75.9888 15.7168 75 16.7057 75 17.9256C75 19.1456 75.9888 20.1345 77.2087 20.1345Z" fill="white" />
  <path d="M23.6928 15.7865C23.7856 15.4019 24.3327 15.4019 24.4255 15.7865L24.738 17.0809C24.7712 17.2183 24.8785 17.3257 25.0159 17.3589L26.3103 17.6713C26.6949 17.7641 26.6949 18.3112 26.3103 18.404L25.0159 18.7165C24.8785 18.7497 24.7712 18.857 24.738 18.9944L24.4255 20.2889C24.3327 20.6735 23.7856 20.6735 23.6928 20.2889L23.3803 18.9944C23.3471 18.857 23.2398 18.7497 23.1024 18.7165L21.808 18.404C21.4234 18.3112 21.4234 17.7641 21.808 17.6713L23.1024 17.3589C23.2398 17.3257 23.3471 17.2183 23.3803 17.0809L23.6928 15.7865Z" fill="white" />
  <path d="M81.9898 28.9744C82.0912 28.5528 82.6908 28.5528 82.7927 28.9744L83.1354 30.3932C83.1716 30.5439 83.2894 30.6615 83.4398 30.6979L84.8586 31.0404C85.2803 31.1421 85.2803 31.7418 84.8586 31.8435L83.4398 32.186C83.2894 32.2224 83.1716 32.34 83.1354 32.4907L82.7927 33.9096C82.6908 34.3311 82.0912 34.3311 81.9898 33.9096L81.647 32.4907C81.6108 32.34 81.493 32.2224 81.3423 32.186L79.9235 31.8435C79.5021 31.7418 79.5021 31.1421 79.9235 31.0404L81.3423 30.6979C81.493 30.6615 81.6108 30.5439 81.647 30.3932L81.9898 28.9744Z" fill="url(#paint1_linear_6202_4315)" />
  <path d="M19.938 80.6587C20.4177 80.5819 20.8006 81.0529 20.6273 81.5069L19.4574 84.5703C19.2841 85.0243 18.6844 85.1203 18.378 84.7431L16.31 82.1982C16.0035 81.8214 16.2202 81.254 16.6999 81.1772L19.938 80.6587Z" fill="url(#paint2_linear_6202_4315)" />
  <path d="M76.442 73.6903C76.3221 73.2193 76.7565 72.7953 77.2243 72.9265L80.3815 73.8138C80.8489 73.9453 80.9993 74.5337 80.6515 74.8729L78.3047 77.1635C77.9569 77.503 77.3725 77.3385 77.2522 76.8678L76.442 73.6903Z" fill="url(#paint3_linear_6202_4315)" />
  <g filter="url(#filter0_f_6202_4315)">
    <path d="M72.1117 82.5533C72.1117 84.7888 61.507 86.6008 48.4258 86.6008C35.3447 86.6008 24.7402 84.7888 24.7402 82.5533C24.7402 80.3178 35.3447 78.5059 48.4258 78.5059C61.507 78.5059 72.1117 80.3178 72.1117 82.5533Z" fill="url(#paint4_radial_6202_4315)" />
  </g>
  <g filter="url(#filter1_i_6202_4315)">
    <path d="M48.8866 24.4452L33.4595 27.1653C32.2202 27.3839 31.3927 28.5657 31.6112 29.8051L35.4992 51.8555C35.7178 53.0949 36.8996 53.9225 38.139 53.7036L53.5659 50.9837C54.8054 50.7652 55.6329 49.5833 55.4145 48.3439L51.5264 26.2935C51.3076 25.0542 50.1257 24.2266 48.8866 24.4452Z" fill="url(#paint5_linear_6202_4315)" />
  </g>
  <path d="M49.1089 35.7809L37.125 37.894C36.7214 37.9652 36.452 38.35 36.5231 38.7536L36.5235 38.7559C36.5947 39.1595 36.9795 39.4289 37.383 39.3578L49.3672 37.2447C49.7705 37.1735 50.04 36.7887 49.969 36.3851L49.9687 36.3828C49.8973 35.9792 49.5125 35.7098 49.1089 35.7809Z" fill="url(#paint6_linear_6202_4315)" />
  <path d="M50.9327 46.078L39.0518 48.1729C38.6517 48.2436 38.3833 48.6175 38.4522 49.0084L38.4526 49.011C38.5215 49.4019 38.9018 49.6617 39.3018 49.591L51.1827 47.4961C51.5831 47.4255 51.8512 47.0515 51.7824 46.6606L51.782 46.6581C51.7132 46.2671 51.3327 46.0073 50.9327 46.078Z" fill="url(#paint7_linear_6202_4315)" />
  <path d="M49.9818 40.6912L38.1006 42.7862C37.7005 42.8568 37.4321 43.2307 37.501 43.6217L37.5014 43.6242C37.5703 44.0152 37.9506 44.2749 38.3506 44.2043L50.2318 42.1094C50.6318 42.0387 50.9002 41.6646 50.8314 41.2737L50.831 41.2714C50.7618 40.8804 50.3818 40.6207 49.9818 40.6912Z" fill="url(#paint8_linear_6202_4315)" />
  <path d="M40.1614 29.4946L36.6593 30.1121C35.8836 30.2489 35.3656 30.9886 35.5024 31.7643L35.6737 32.7362C35.8105 33.512 36.5503 34.0299 37.326 33.8931L40.8281 33.2756C41.6037 33.1389 42.1219 32.3991 41.9849 31.6234L41.8135 30.6515C41.6769 29.8758 40.9371 29.3578 40.1614 29.4946Z" fill="#A259FF" />
  <g filter="url(#filter2_i_6202_4315)">
    <path d="M67.2716 30.5273H46.8608C45.9097 30.5273 45.1387 31.2984 45.1387 32.2495V41.8433C45.1387 42.7944 45.9097 43.5654 46.8608 43.5654H67.2716C68.2227 43.5654 68.9937 42.7944 68.9937 41.8433V32.2495C68.9937 31.2984 68.2227 30.5273 67.2716 30.5273Z" fill="url(#paint9_linear_6202_4315)" />
  </g>
  <path d="M50.175 39.0243C51.2685 39.0243 52.1551 38.1378 52.1551 37.0443C52.1551 35.9509 51.2685 35.0645 50.175 35.0645C49.0815 35.0645 48.1953 35.9509 48.1953 37.0443C48.1953 38.1378 49.0815 39.0243 50.175 39.0243Z" fill="white" />
  <path d="M57.2516 39.0243C58.345 39.0243 59.2313 38.1378 59.2313 37.0443C59.2313 35.9509 58.345 35.0645 57.2516 35.0645C56.1581 35.0645 55.2715 35.9509 55.2715 37.0443C55.2715 38.1378 56.1581 39.0243 57.2516 39.0243Z" fill="white" />
  <path d="M64.3277 39.0243C65.4212 39.0243 66.3074 38.1378 66.3074 37.0443C66.3074 35.9509 65.4212 35.0645 64.3277 35.0645C63.2343 35.0645 62.3477 35.9509 62.3477 37.0443C62.3477 38.1378 63.2343 39.0243 64.3277 39.0243Z" fill="white" />
  <path fill-rule="evenodd" clip-rule="evenodd" d="M46.4555 64.9983C46.6266 64.0276 47.5519 63.3798 48.5226 63.5508L58.7179 65.3486C60.111 65.5943 61.37 66.241 62.2624 67.1758C63.1545 68.1099 63.7588 69.4378 63.4997 70.9081C63.2403 72.3784 62.2182 73.4197 61.061 73.9928C59.9026 74.5664 58.4979 74.7447 57.1045 74.499L32.8791 70.2273C31.9086 70.0563 31.2606 69.1305 31.4317 68.1602C31.6028 67.1896 32.5283 66.5418 33.4988 66.7128L57.7244 70.9845C58.4468 71.1117 59.0689 70.9972 59.4773 70.795C59.886 70.5925 59.97 70.3758 59.9853 70.2885C60.0005 70.2015 59.9961 69.97 59.6816 69.6403C59.3671 69.311 58.8215 68.9907 58.0983 68.8631L47.861 66.7019C46.8907 66.5309 46.2842 65.9686 46.4555 64.9983Z" fill="url(#paint10_linear_6202_4315)" />
  <path fill-rule="evenodd" clip-rule="evenodd" d="M66.1483 46.8314C66.5317 46.0079 67.4208 45.5448 68.3154 45.7024L76.3081 47.1119C77.3994 47.3043 78.1284 48.3448 77.936 49.4365C77.7433 50.5278 76.7027 51.2564 75.6114 51.064L69.1356 49.922L65.3103 58.1332C64.8425 59.138 63.6487 59.5727 62.644 59.105C61.6396 58.6369 61.2045 57.443 61.6726 56.4387L66.1483 46.8314Z" fill="url(#paint11_linear_6202_4315)" />
  <path d="M37.6593 77.3358C40.0236 77.7528 42.2782 76.1738 42.6953 73.8097C43.1119 71.4452 41.5333 69.1909 39.169 68.7738C36.8047 68.3568 34.5501 69.9358 34.1332 72.2999C33.7163 74.6644 35.295 76.9188 37.6593 77.3358Z" fill="url(#paint12_linear_6202_4315)" />
  <path d="M64.3048 50.4602L34.8035 45.2584C32.5921 44.8685 30.6279 46.4562 30.7819 48.5066L31.1503 60.4722C31.2621 61.9533 32.4709 63.203 34.068 63.4845L59.7838 69.7544L66.9791 54.8946C68.637 51.8852 66.5215 50.8512 64.3048 50.4602Z" fill="url(#paint13_linear_6202_4315)" />
  <path d="M37.9164 75.1905C39.1042 75.3999 40.2369 74.6068 40.4464 73.4191C40.6558 72.2314 39.8627 71.0984 38.6748 70.889C37.487 70.6796 36.3543 71.4727 36.1449 72.6607C35.9354 73.8484 36.7286 74.981 37.9164 75.1905Z" fill="url(#paint14_linear_6202_4315)" />
  <mask id="mask0_6202_4315" style="mask-type:alpha" maskUnits="userSpaceOnUse" x="30" y="45" width="38" height="25">
    <path d="M64.305 50.4602L34.8035 45.2584C32.5921 44.8685 30.6279 46.4562 30.7819 48.5066L31.1503 60.4722C31.2621 61.9533 32.4709 63.203 34.068 63.4845L59.7836 69.7544L66.9792 54.8946C67.826 53.0153 66.5216 50.8512 64.305 50.4602Z" fill="url(#paint15_linear_6202_4315)" />
  </mask>
  <g mask="url(#mask0_6202_4315)">
    <path d="M50.031 58.3507C50.1589 57.6731 50.8121 57.226 51.49 57.351C52.1676 57.4764 52.6132 58.1271 52.4853 58.8043L50.7966 67.7365C50.6687 68.4137 50.0154 68.8612 49.3379 68.7358C48.66 68.6108 48.2143 67.9601 48.3422 67.2829L50.031 58.3507Z" fill="#A259FF" />
    <path d="M72.069 52.5409C72.6349 52.6391 73.0157 53.1779 72.9201 53.7442L72.8505 54.1543C72.7545 54.7206 72.2179 55.1 71.652 55.0018L30.4027 47.8377C29.8368 47.7391 29.4559 47.2004 29.5519 46.6344L29.6214 46.2243C29.7174 45.658 30.254 45.2786 30.8198 45.3768L72.069 52.5409Z" fill="#A259FF" />
    <path d="M56.9724 59.6043C57.1003 58.9271 57.7535 58.4797 58.4311 58.605C59.109 58.7304 59.5546 59.3811 59.4264 60.0583L57.738 68.9905C57.6101 69.6677 56.9568 70.1152 56.2789 69.9898C55.6014 69.8648 55.1557 69.2141 55.2836 68.5369L56.9724 59.6043Z" fill="#A259FF" />
    <path d="M43.0896 57.0948C43.2175 56.4176 43.8707 55.9702 44.5483 56.0952C45.2262 56.2205 45.6718 56.8712 45.5436 57.5484L43.8552 66.4807C43.7273 67.1578 43.074 67.6053 42.3961 67.4803C41.7186 67.3549 41.2729 66.7042 41.4008 66.027L43.0896 57.0948Z" fill="#A259FF" />
    <path d="M36.0679 55.8585C36.1959 55.1813 36.8491 54.7338 37.5269 54.8588C38.2046 54.9842 38.6502 55.6349 38.5222 56.3121L36.8336 65.2443C36.7056 65.9215 36.0524 66.369 35.3747 66.244C34.697 66.1186 34.2513 65.4679 34.3794 64.7907L36.0679 55.8585Z" fill="#A259FF" />
    <path d="M29.9719 45.3831C30.1016 44.6476 30.8028 44.1567 31.5381 44.2864L67.5887 50.6429C68.3239 50.7726 68.8148 51.4741 68.6851 52.2092C68.5554 52.9447 67.8543 53.4357 67.1191 53.306L31.0686 46.9491C30.3333 46.8197 29.8423 46.1183 29.9719 45.3831Z" fill="url(#paint16_linear_6202_4315)" />
  </g>
  <defs>
    <filter id="filter0_f_6202_4315" x="4.05283" y="57.8185" width="88.7459" height="49.4705" filterUnits="userSpaceOnUse" color-interpolation-filters="sRGB">
      <feFlood flood-opacity="0" result="BackgroundImageFix" />
      <feBlend mode="normal" in="SourceGraphic" in2="BackgroundImageFix" result="shape" />
      <feGaussianBlur stdDeviation="10.3437" result="effect1_foregroundBlur_6202_4315" />
    </filter>
    <filter id="filter1_i_6202_4315" x="31.5762" y="24.4102" width="26.2576" height="34.8921" filterUnits="userSpaceOnUse" color-interpolation-filters="sRGB">
      <feFlood flood-opacity="0" result="BackgroundImageFix" />
      <feBlend mode="normal" in="SourceGraphic" in2="BackgroundImageFix" result="shape" />
      <feColorMatrix in="SourceAlpha" type="matrix" values="0 0 0 0 0 0 0 0 0 0 0 0 0 0 0 0 0 0 127 0" result="hardAlpha" />
      <feOffset dx="2.38455" dy="5.56394" />
      <feGaussianBlur stdDeviation="5.96137" />
      <feComposite in2="hardAlpha" operator="arithmetic" k2="-1" k3="1" />
      <feColorMatrix type="matrix" values="0 0 0 0 0.104618 0 0 0 0 0.465612 0 0 0 0 0.545833 0 0 0 0.15 0" />
      <feBlend mode="normal" in2="shape" result="effect1_innerShadow_6202_4315" />
    </filter>
    <filter id="filter2_i_6202_4315" x="45.1387" y="30.5273" width="29.4813" height="16.7877" filterUnits="userSpaceOnUse" color-interpolation-filters="sRGB">
      <feFlood flood-opacity="0" result="BackgroundImageFix" />
      <feBlend mode="normal" in="SourceGraphic" in2="BackgroundImageFix" result="shape" />
      <feColorMatrix in="SourceAlpha" type="matrix" values="0 0 0 0 0 0 0 0 0 0 0 0 0 0 0 0 0 0 127 0" result="hardAlpha" />
      <feOffset dx="5.62585" dy="3.75056" />
      <feGaussianBlur stdDeviation="6.09467" />
      <feComposite in2="hardAlpha" operator="arithmetic" k2="-1" k3="1" />
      <feColorMatrix type="matrix" values="0 0 0 0 0.104618 0 0 0 0 0.465612 0 0 0 0 0.545833 0 0 0 0.09 0" />
      <feBlend mode="normal" in2="shape" result="effect1_innerShadow_6202_4315" />
    </filter>
    <linearGradient id="paint0_linear_6202_4315" x1="19.9584" y1="8.83399" x2="83.5597" y2="22.0735" gradientUnits="userSpaceOnUse">
      <stop stop-color="#A259FF" />
      <stop offset="1" stop-color="#3B3B3B" />
    </linearGradient>
    <linearGradient id="paint1_linear_6202_4315" x1="83.5814" y1="29.8954" x2="88.9184" y2="34.0873" gradientUnits="userSpaceOnUse">
      <stop stop-color="#A259FF" />
      <stop offset="1" stop-color="#377DF7" />
    </linearGradient>
    <linearGradient id="paint2_linear_6202_4315" x1="20.4327" y1="82.2123" x2="20.2544" y2="87.5224" gradientUnits="userSpaceOnUse">
      <stop stop-color="#A259FF" />
      <stop offset="1" stop-color="#377DF7" />
    </linearGradient>
    <linearGradient id="paint3_linear_6202_4315" x1="77.9446" y1="73.0566" x2="83.2489" y2="72.7522" gradientUnits="userSpaceOnUse">
      <stop stop-color="#A259FF" />
      <stop offset="1" stop-color="#377DF7" />
    </linearGradient>
    <radialGradient id="paint4_radial_6202_4315" cx="0" cy="0" r="1" gradientUnits="userSpaceOnUse" gradientTransform="translate(48.4258 82.5533) rotate(90) scale(4.04753 23.6857)">
      <stop stop-color="#2B2B2B" />
      <stop offset="1" stop-color="#2B2B2B" stop-opacity="0" />
    </radialGradient>
    <linearGradient id="paint5_linear_6202_4315" x1="34.4398" y1="26.9925" x2="54.5036" y2="26.3742" gradientUnits="userSpaceOnUse">
      <stop stop-color="#A259FF" />
      <stop offset="1" stop-color="#3B3B3B" />
    </linearGradient>
    <linearGradient id="paint6_linear_6202_4315" x1="47.3082" y1="37.1808" x2="45.9911" y2="33.2769" gradientUnits="userSpaceOnUse">
      <stop stop-color="#A259FF" />
      <stop offset="0.666667" stop-color="white" />
    </linearGradient>
    <linearGradient id="paint7_linear_6202_4315" x1="49.1432" y1="47.4421" x2="47.8795" y2="43.6537" gradientUnits="userSpaceOnUse">
      <stop stop-color="#A259FF" />
      <stop offset="0.666667" stop-color="white" />
    </linearGradient>
    <linearGradient id="paint8_linear_6202_4315" x1="48.1919" y1="42.0554" x2="46.9281" y2="38.267" gradientUnits="userSpaceOnUse">
      <stop stop-color="#A259FF" />
      <stop offset="0.666667" stop-color="white" />
    </linearGradient>
    <linearGradient id="paint9_linear_6202_4315" x1="45.1387" y1="46.4944" x2="59.818" y2="24.4632" gradientUnits="userSpaceOnUse">
      <stop stop-color="#A259FF" />
      <stop offset="1" stop-color="#FF6250" />
    </linearGradient>
    <linearGradient id="paint10_linear_6202_4315" x1="56.77" y1="71.7707" x2="51.7374" y2="48.1512" gradientUnits="userSpaceOnUse">
      <stop stop-color="#A259FF" />
      <stop offset="0.666667" stop-color="white" />
    </linearGradient>
    <linearGradient id="paint11_linear_6202_4315" x1="73.5436" y1="49.8405" x2="85.1599" y2="63.3611" gradientUnits="userSpaceOnUse">
      <stop stop-color="#A259FF" />
      <stop offset="1" stop-color="#377DF7" />
    </linearGradient>
    <linearGradient id="paint12_linear_6202_4315" x1="40.6374" y1="75.3633" x2="30.708" y2="65.2184" gradientUnits="userSpaceOnUse">
      <stop stop-color="#A259FF" />
      <stop offset="0.666667" stop-color="white" />
    </linearGradient>
    <linearGradient id="paint13_linear_6202_4315" x1="58.0892" y1="63.7718" x2="38.1305" y2="23.9815" gradientUnits="userSpaceOnUse">
      <stop stop-color="#A259FF" />
      <stop offset="0.666667" stop-color="white" />
    </linearGradient>
    <linearGradient id="paint14_linear_6202_4315" x1="35.8262" y1="73.7126" x2="42.0233" y2="74.9068" gradientUnits="userSpaceOnUse">
      <stop stop-color="white" />
      <stop offset="1" stop-color="#BCF3FF" />
    </linearGradient>
    <linearGradient id="paint15_linear_6202_4315" x1="30.5227" y1="49.2066" x2="67.06" y2="56.1001" gradientUnits="userSpaceOnUse">
      <stop stop-color="#AFF1FF" />
      <stop offset="1" stop-color="#65C8DE" />
    </linearGradient>
    <linearGradient id="paint16_linear_6202_4315" x1="60.7608" y1="51.4081" x2="61.355" y2="43.885" gradientUnits="userSpaceOnUse">
      <stop stop-color="#A259FF" />
      <stop offset="0.666667" stop-color="white" />
    </linearGradient>
  </defs>
</symbol>

</defs>
</svg>
