<svg aria-hidden="true" style="position: absolute; width: 0; height: 0; overflow: hidden;" version="1.1" xmlns="http://www.w3.org/2000/svg" xmlns:xlink="http://www.w3.org/1999/xlink">
<defs>
<symbol id="account-password" viewBox="0 0 32 32">
<path d="M16 16c-0.828 0-1.5 0.672-1.5 1.5s0.672 1.5 1.5 1.5c0.828 0 1.5-0.672 1.5-1.5s-0.672-1.5-1.5-1.5zM12.5 17.5c0-1.933 1.567-3.5 3.5-3.5s3.5 1.567 3.5 3.5c0 1.933-1.567 3.5-3.5 3.5s-3.5-1.567-3.5-3.5z"></path>
<path d="M16 19c0.552 0 1 0.448 1 1v3c0 0.552-0.448 1-1 1s-1-0.448-1-1v-3c0-0.552 0.448-1 1-1z"></path>
<path d="M4 12c0-1.105 0.895-2 2-2h20c1.105 0 2 0.895 2 2v14c0 1.105-0.895 2-2 2h-20c-1.105 0-2-0.895-2-2v-14zM26 12h-20v14h20v-14z"></path>
<path d="M16 3c-0.928 0-1.819 0.369-2.475 1.025s-1.025 1.547-1.025 2.475v4.5c0 0.552-0.448 1-1 1s-1-0.448-1-1v-4.5c0-1.459 0.579-2.858 1.611-3.889s2.43-1.611 3.889-1.611c1.459 0 2.858 0.579 3.889 1.611s1.611 2.43 1.611 3.889v4.5c0 0.552-0.448 1-1 1s-1-0.448-1-1v-4.5c0-0.928-0.369-1.819-1.025-2.475s-1.547-1.025-2.475-1.025z"></path>
</symbol>
<symbol id="account-email" viewBox="0 0 32 32">
<path d="M3 7c0-0.552 0.448-1 1-1h24c0.552 0 1 0.448 1 1v17c0 0.53-0.211 1.039-0.586 1.414s-0.884 0.586-1.414 0.586h-22c-0.53 0-1.039-0.211-1.414-0.586s-0.586-0.884-0.586-1.414v-17zM5 8v16h22v-16h-22z"></path>
<path d="M3.263 6.324c0.373-0.407 1.006-0.435 1.413-0.061l11.324 10.38 11.324-10.38c0.407-0.373 1.040-0.346 1.413 0.061s0.346 1.040-0.061 1.413l-12 11c-0.382 0.351-0.969 0.351-1.351 0l-12-11c-0.407-0.373-0.435-1.006-0.061-1.413z"></path>
</symbol>
<symbol id="account-user" viewBox="0 0 32 32">
<path d="M16 5c-3.866 0-7 3.134-7 7s3.134 7 7 7c3.866 0 7-3.134 7-7s-3.134-7-7-7zM7 12c0-4.971 4.029-9 9-9s9 4.029 9 9c0 4.971-4.029 9-9 9s-9-4.029-9-9z"></path>
<path d="M16 20.998c-2.282 0-4.524 0.601-6.5 1.742s-3.617 2.782-4.758 4.759c-0.276 0.478-0.888 0.642-1.366 0.366s-0.642-0.888-0.366-1.366c1.316-2.281 3.21-4.175 5.49-5.491s4.867-2.010 7.501-2.010 5.22 0.693 7.501 2.010c2.28 1.317 4.174 3.211 5.49 5.491 0.276 0.478 0.112 1.090-0.366 1.366s-1.090 0.112-1.366-0.366c-1.141-1.977-2.782-3.618-4.758-4.759s-4.218-1.742-6.5-1.742z"></path>
</symbol>
<symbol id="header-nft-logo" viewBox="0 0 244 32">
<path fill="#a259ff" style="fill: var(--color1, #a259ff)" d="M6 12.451c0.552 0 1 0.448 1 1v12.55h18v-12.55c0-0.552 0.448-1 1-1s1 0.448 1 1v12.55c0 0.53-0.211 1.039-0.586 1.414s-0.884 0.586-1.414 0.586h-18c-0.53 0-1.039-0.211-1.414-0.586s-0.586-0.884-0.586-1.414v-12.55c0-0.552 0.448-1 1-1z"></path>
<path fill="#a259ff" style="fill: var(--color1, #a259ff)" d="M3 5c0-0.552 0.448-1 1-1h24c0.552 0 1 0.448 1 1s-0.448 1-1 1h-24c-0.552 0-1-0.448-1-1z"></path>
<path fill="#a259ff" style="fill: var(--color1, #a259ff)" d="M4 7c0.552 0 1 0.448 1 1v2c0 0.796 0.316 1.559 0.879 2.121s1.326 0.879 2.121 0.879c0.796 0 1.559-0.316 2.121-0.879s0.879-1.326 0.879-2.121v-2c0-0.552 0.448-1 1-1s1 0.448 1 1v2c0 1.326-0.527 2.598-1.464 3.535s-2.209 1.465-3.536 1.465-2.598-0.527-3.536-1.465c-0.938-0.938-1.464-2.209-1.464-3.535v-2c0-0.552 0.448-1 1-1z"></path>
<path fill="#a259ff" style="fill: var(--color1, #a259ff)" d="M12 7c0.552 0 1 0.448 1 1v2c0 0.796 0.316 1.559 0.879 2.121s1.326 0.879 2.121 0.879 1.559-0.316 2.121-0.879c0.563-0.563 0.879-1.326 0.879-2.121v-2c0-0.552 0.448-1 1-1s1 0.448 1 1v2c0 1.326-0.527 2.598-1.465 3.535s-2.209 1.465-3.535 1.465-2.598-0.527-3.536-1.465c-0.938-0.938-1.464-2.209-1.464-3.535v-2c0-0.552 0.448-1 1-1z"></path>
<path fill="#a259ff" style="fill: var(--color1, #a259ff)" d="M20 7c0.552 0 1 0.448 1 1v2c0 0.796 0.316 1.559 0.879 2.121s1.326 0.879 2.121 0.879 1.559-0.316 2.121-0.879c0.563-0.563 0.879-1.326 0.879-2.121v-2c0-0.552 0.448-1 1-1s1 0.448 1 1v2c0 1.326-0.527 2.598-1.465 3.535s-2.209 1.465-3.535 1.465-2.598-0.527-3.535-1.465c-0.938-0.938-1.465-2.209-1.465-3.535v-2c0-0.552 0.448-1 1-1z"></path>
<path fill="#fff" style="fill: var(--color2, #fff)" d="M51.48 22.547h0.396v-13.948h2.904v15.4h-5.676l-1.804-13.948h-0.396v13.948h-2.904v-15.4h5.676l1.804 13.948z"></path>
<path fill="#fff" style="fill: var(--color2, #fff)" d="M58.065 8.599h9.856v2.772h-6.952v3.52h6.82v2.772h-6.82v6.336h-2.904v-15.4z"></path>
<path fill="#fff" style="fill: var(--color2, #fff)" d="M70.787 8.599h11.088v2.772h-4.092v12.628h-2.904v-12.628h-4.092v-2.772z"></path>
<path fill="#fff" style="fill: var(--color2, #fff)" d="M97.025 8.599h5.104l0.88 11.572v2.244h0.528v-2.244l0.88-11.572h5.104v15.4h-2.64v-10.296l0.264-3.52h-0.528l-1.144 13.816h-4.356l-1.188-13.816h-0.528l0.264 3.52v10.296h-2.64v-15.4z"></path>
<path fill="#fff" style="fill: var(--color2, #fff)" d="M118.789 22.415c-0.293 0.689-0.704 1.181-1.232 1.474-0.528 0.279-1.144 0.418-1.848 0.418-0.66 0-1.283-0.125-1.87-0.374-0.572-0.249-1.078-0.616-1.518-1.1s-0.792-1.071-1.056-1.76c-0.249-0.689-0.374-1.474-0.374-2.354v-0.352c0-0.865 0.125-1.643 0.374-2.332s0.587-1.276 1.012-1.76c0.425-0.484 0.917-0.851 1.474-1.1 0.572-0.264 1.181-0.396 1.826-0.396 0.777 0 1.401 0.132 1.87 0.396 0.484 0.264 0.865 0.675 1.144 1.232h0.396v-1.32h2.772v7.612c0 0.44 0.198 0.66 0.594 0.66h0.418v2.64h-1.892c-0.499 0-0.909-0.147-1.232-0.44-0.308-0.293-0.462-0.675-0.462-1.144h-0.396zM116.325 21.667c0.807 0 1.452-0.264 1.936-0.792 0.484-0.543 0.726-1.276 0.726-2.2v-0.264c0-0.924-0.242-1.65-0.726-2.178-0.484-0.543-1.129-0.814-1.936-0.814s-1.452 0.271-1.936 0.814c-0.484 0.528-0.726 1.254-0.726 2.178v0.264c0 0.924 0.242 1.657 0.726 2.2 0.484 0.528 1.129 0.792 1.936 0.792z"></path>
<path fill="#fff" style="fill: var(--color2, #fff)" d="M124.67 13.087h4.62v1.584h0.396c0.205-0.601 0.55-1.063 1.034-1.386 0.499-0.337 1.093-0.506 1.782-0.506 1.086 0 1.958 0.345 2.618 1.034 0.66 0.675 0.991 1.709 0.991 3.102v0.484l-2.86 0.264v-0.308c0-0.601-0.154-1.078-0.462-1.43-0.308-0.367-0.77-0.55-1.386-0.55s-1.1 0.213-1.452 0.638c-0.352 0.425-0.528 1.034-0.528 1.826v3.52h2.508v2.64h-7.524v-2.64h2.244v-5.632h-1.98v-2.64z"></path>
<path fill="#fff" style="fill: var(--color2, #fff)" d="M142.321 17.091h0.528l2.904-4.004h3.036v0.132l-3.52 4.994v0.396l3.872 5.258v0.132h-3.168l-3.124-4.268h-0.528v4.268h-2.772v-15.4h2.772v8.492z"></path>
<path fill="#fff" style="fill: var(--color2, #fff)" d="M154.581 19.445c0.015 0.323 0.088 0.623 0.22 0.902 0.147 0.264 0.337 0.499 0.572 0.704 0.249 0.191 0.528 0.345 0.836 0.462 0.323 0.103 0.66 0.154 1.012 0.154 0.689 0 1.217-0.117 1.584-0.352 0.367-0.249 0.631-0.543 0.792-0.88l2.376 1.32c-0.132 0.279-0.315 0.572-0.549 0.88-0.235 0.293-0.543 0.565-0.924 0.814-0.367 0.249-0.821 0.455-1.364 0.616-0.528 0.161-1.152 0.242-1.871 0.242-0.821 0-1.569-0.132-2.244-0.396s-1.261-0.645-1.76-1.144c-0.484-0.499-0.865-1.107-1.144-1.826-0.264-0.719-0.396-1.533-0.396-2.442v-0.132c0-0.836 0.14-1.599 0.419-2.288 0.293-0.689 0.689-1.276 1.188-1.76s1.077-0.858 1.737-1.122c0.675-0.279 1.393-0.418 2.156-0.418 0.939 0 1.745 0.169 2.42 0.506 0.675 0.323 1.232 0.741 1.672 1.254 0.44 0.499 0.763 1.056 0.968 1.672 0.205 0.601 0.308 1.188 0.308 1.76v1.474h-8.008zM157.2 15.287c-0.704 0-1.276 0.183-1.716 0.55-0.44 0.352-0.727 0.763-0.859 1.232h5.148c-0.088-0.513-0.367-0.939-0.836-1.276-0.455-0.337-1.033-0.506-1.737-0.506z"></path>
<path fill="#fff" style="fill: var(--color2, #fff)" d="M165.303 13.087h3.233v-4.488h2.772v4.488h3.939v2.64h-3.939v4.972c0 0.44 0.199 0.66 0.595 0.66h2.948v2.64h-4.62c-0.499 0-0.909-0.161-1.232-0.484-0.308-0.323-0.463-0.733-0.463-1.232v-6.556h-3.233v-2.64z"></path>
<path fill="#fff" style="fill: var(--color2, #fff)" d="M181.281 28.399h-2.772v-15.312h2.772v1.584h0.396c0.293-0.601 0.719-1.063 1.276-1.386 0.557-0.337 1.268-0.506 2.133-0.506 0.645 0 1.255 0.125 1.827 0.374 0.587 0.249 1.092 0.616 1.517 1.1 0.44 0.469 0.785 1.049 1.035 1.738 0.264 0.689 0.396 1.474 0.396 2.354v0.396c0 0.895-0.125 1.687-0.375 2.376s-0.587 1.276-1.012 1.76c-0.425 0.469-0.931 0.829-1.517 1.078-0.572 0.235-1.196 0.352-1.871 0.352-0.499 0-0.931-0.051-1.297-0.154s-0.689-0.242-0.968-0.418c-0.264-0.176-0.492-0.374-0.683-0.594-0.176-0.235-0.329-0.477-0.461-0.726h-0.396v5.984zM184.185 21.667c0.865 0 1.561-0.264 2.089-0.792 0.543-0.543 0.815-1.276 0.815-2.2v-0.264c0-0.924-0.272-1.65-0.815-2.178-0.528-0.543-1.224-0.814-2.089-0.814s-1.569 0.279-2.112 0.836c-0.528 0.543-0.792 1.261-0.792 2.156v0.264c0 0.895 0.264 1.621 0.792 2.178 0.543 0.543 1.247 0.814 2.112 0.814z"></path>
<path fill="#fff" style="fill: var(--color2, #fff)" d="M192.485 21.359h3.828v-10.12h-3.696v-2.64h6.468v12.76h3.564v2.64h-10.164v-2.64z"></path>
<path fill="#fff" style="fill: var(--color2, #fff)" d="M213.084 22.415c-0.293 0.689-0.704 1.181-1.232 1.474-0.528 0.279-1.144 0.418-1.848 0.418-0.66 0-1.283-0.125-1.869-0.374-0.572-0.249-1.079-0.616-1.519-1.1s-0.792-1.071-1.056-1.76c-0.249-0.689-0.373-1.474-0.373-2.354v-0.352c0-0.865 0.124-1.643 0.373-2.332s0.587-1.276 1.012-1.76c0.425-0.484 0.917-0.851 1.475-1.1 0.572-0.264 1.18-0.396 1.825-0.396 0.777 0 1.401 0.132 1.871 0.396 0.484 0.264 0.865 0.675 1.144 1.232h0.396v-1.32h2.772v7.612c0 0.44 0.197 0.66 0.593 0.66h0.419v2.64h-1.892c-0.499 0-0.909-0.147-1.232-0.44-0.308-0.293-0.463-0.675-0.463-1.144h-0.396zM210.62 21.667c0.807 0 1.452-0.264 1.936-0.792 0.484-0.543 0.727-1.276 0.727-2.2v-0.264c0-0.924-0.243-1.65-0.727-2.178-0.484-0.543-1.129-0.814-1.936-0.814s-1.452 0.271-1.936 0.814c-0.484 0.528-0.725 1.254-0.725 2.178v0.264c0 0.924 0.241 1.657 0.725 2.2 0.484 0.528 1.129 0.792 1.936 0.792z"></path>
<path fill="#fff" style="fill: var(--color2, #fff)" d="M230.141 19.995c-0.249 1.291-0.844 2.332-1.783 3.124-0.924 0.792-2.163 1.188-3.717 1.188-0.807 0-1.563-0.125-2.267-0.374-0.689-0.249-1.291-0.609-1.804-1.078s-0.916-1.049-1.209-1.738c-0.293-0.689-0.44-1.474-0.44-2.354v-0.264c0-0.88 0.147-1.672 0.44-2.376s0.696-1.305 1.209-1.804c0.528-0.499 1.137-0.88 1.827-1.144 0.704-0.264 1.452-0.396 2.244-0.396 1.525 0 2.757 0.396 3.696 1.188 0.953 0.792 1.555 1.833 1.804 3.124l-2.728 0.704c-0.088-0.645-0.367-1.203-0.836-1.672s-1.129-0.704-1.98-0.704c-0.396 0-0.771 0.073-1.123 0.22s-0.66 0.359-0.924 0.638c-0.264 0.264-0.476 0.594-0.637 0.99-0.147 0.381-0.22 0.814-0.22 1.298v0.132c0 0.484 0.073 0.917 0.22 1.298 0.161 0.367 0.373 0.675 0.637 0.924s0.572 0.44 0.924 0.572c0.352 0.117 0.727 0.176 1.123 0.176 0.851 0 1.496-0.213 1.936-0.638 0.455-0.425 0.748-0.997 0.88-1.716l2.728 0.682z"></path>
<path fill="#fff" style="fill: var(--color2, #fff)" d="M235.405 19.445c0.015 0.323 0.088 0.623 0.22 0.902 0.147 0.264 0.337 0.499 0.572 0.704 0.249 0.191 0.528 0.345 0.836 0.462 0.323 0.103 0.66 0.154 1.012 0.154 0.689 0 1.217-0.117 1.584-0.352 0.367-0.249 0.631-0.543 0.792-0.88l2.376 1.32c-0.132 0.279-0.315 0.572-0.549 0.88-0.235 0.293-0.543 0.565-0.924 0.814-0.367 0.249-0.821 0.455-1.364 0.616-0.528 0.161-1.152 0.242-1.871 0.242-0.821 0-1.569-0.132-2.244-0.396s-1.261-0.645-1.76-1.144c-0.484-0.499-0.865-1.107-1.144-1.826-0.264-0.719-0.396-1.533-0.396-2.442v-0.132c0-0.836 0.14-1.599 0.419-2.288 0.293-0.689 0.689-1.276 1.188-1.76s1.077-0.858 1.737-1.122c0.675-0.279 1.393-0.418 2.156-0.418 0.939 0 1.745 0.169 2.42 0.506 0.675 0.323 1.232 0.741 1.672 1.254 0.44 0.499 0.763 1.056 0.968 1.672 0.205 0.601 0.308 1.188 0.308 1.76v1.474h-8.008zM238.024 15.287c-0.704 0-1.276 0.183-1.716 0.55-0.44 0.352-0.727 0.763-0.859 1.232h5.148c-0.088-0.513-0.367-0.939-0.836-1.276-0.455-0.337-1.033-0.506-1.737-0.506z"></path>
</symbol>
<symbol id="header-burger-menu" viewBox="0 0 32 32">
<path d="M4 16c0-0.552 0.448-1 1-1h22c0.552 0 1 0.448 1 1s-0.448 1-1 1h-22c-0.552 0-1-0.448-1-1z"></path>
<path d="M4 8c0-0.552 0.448-1 1-1h15c0.552 0 1 0.448 1 1s-0.448 1-1 1h-15c-0.552 0-1-0.448-1-1z"></path>
<path d="M4 24c0-0.552 0.448-1 1-1h15c0.552 0 1 0.448 1 1s-0.448 1-1 1h-15c-0.552 0-1-0.448-1-1z"></path>
</symbol>
<symbol id="header-sign-up-user" viewBox="0 0 32 32">
<path d="M16 5c-3.866 0-7 3.134-7 7s3.134 7 7 7c3.866 0 7-3.134 7-7s-3.134-7-7-7zM7 12c0-4.971 4.029-9 9-9s9 4.029 9 9c0 4.971-4.029 9-9 9s-9-4.029-9-9z"></path>
<path d="M16 20.998c-2.282 0-4.524 0.601-6.5 1.742s-3.617 2.782-4.758 4.759c-0.276 0.478-0.888 0.642-1.366 0.366s-0.642-0.888-0.366-1.366c1.316-2.281 3.21-4.175 5.49-5.491s4.867-2.010 7.501-2.010 5.22 0.693 7.501 2.010c2.28 1.317 4.174 3.211 5.49 5.491 0.276 0.478 0.112 1.090-0.366 1.366s-1.090 0.112-1.366-0.366c-1.141-1.977-2.782-3.618-4.758-4.759s-4.218-1.742-6.5-1.742z"></path>
</symbol>
<symbol id="wallet-connect" viewBox="0 0 33 32">
<g clip-path="url(#clip0_4248_8110)">
<path d="M16.5 32C25.3366 32 32.5 24.8366 32.5 16C32.5 7.16344 25.3366 0 16.5 0C7.66344 0 0.5 7.16344 0.5 16C0.5 24.8366 7.66344 32 16.5 32Z" fill="url(#paint0_radial_4248_8110)"/>
<path d="M10.5469 12.3578C13.7656 9.21406 18.9906 9.21406 22.2094 12.3578L22.5969 12.7391C22.7594 12.8953 22.7594 13.1516 22.5969 13.3078L21.2719 14.6016C21.1906 14.6828 21.0594 14.6828 20.9781 14.6016L20.4469 14.0828C18.1969 11.8891 14.5594 11.8891 12.3094 14.0828L11.7406 14.6391C11.6594 14.7203 11.5281 14.7203 11.4469 14.6391L10.1219 13.3453C9.95938 13.1891 9.95938 12.9328 10.1219 12.7766L10.5469 12.3578ZM24.9531 15.0328L26.1344 16.1828C26.2969 16.3391 26.2969 16.5953 26.1344 16.7516L20.8156 21.9453C20.6531 22.1016 20.3906 22.1016 20.2344 21.9453L16.4594 18.2578C16.4219 18.2203 16.3531 18.2203 16.3156 18.2578L12.5406 21.9453C12.3781 22.1016 12.1156 22.1016 11.9594 21.9453L6.62187 16.7516C6.45938 16.5953 6.45938 16.3391 6.62187 16.1828L7.80312 15.0328C7.96562 14.8766 8.22813 14.8766 8.38438 15.0328L12.1594 18.7203C12.1969 18.7578 12.2656 18.7578 12.3031 18.7203L16.0781 15.0328C16.2406 14.8766 16.5031 14.8766 16.6594 15.0328L20.4344 18.7203C20.4719 18.7578 20.5406 18.7578 20.5781 18.7203L24.3531 15.0328C24.5281 14.8766 24.7906 14.8766 24.9531 15.0328Z" fill="white"/>
</g>
<defs>
<radialGradient id="paint0_radial_4248_8110" cx="0" cy="0" r="1" gradientUnits="userSpaceOnUse" gradientTransform="translate(0.500099 16.0005) scale(32)">
<stop stop-color="#5D9DF6"/>
<stop offset="1" stop-color="#006FFF"/>
</radialGradient>
<clipPath id="clip0_4248_8110">
<rect width="32" height="32" fill="white" transform="translate(0.5)"/>
</clipPath>
</defs>
</symbol>
<symbol id="wallet-coinbase" viewBox="0 0 33 32">
<g clip-path="url(#clip0_4248_8116)">
<path d="M16.5 32C25.3366 32 32.5 24.8366 32.5 16C32.5 7.16344 25.3366 0 16.5 0C7.66344 0 0.5 7.16344 0.5 16C0.5 24.8366 7.66344 32 16.5 32Z" fill="#0052FF"/>
<path fill-rule="evenodd" clip-rule="evenodd" d="M5.25 16C5.25 22.2132 10.2868 27.25 16.5 27.25C22.7132 27.25 27.75 22.2132 27.75 16C27.75 9.78678 22.7132 4.75 16.5 4.75C10.2868 4.75 5.25 9.78678 5.25 16ZM13.625 12.375C13.2108 12.375 12.875 12.7108 12.875 13.125V18.875C12.875 19.2892 13.2108 19.625 13.625 19.625H19.375C19.7892 19.625 20.125 19.2892 20.125 18.875V13.125C20.125 12.7108 19.7892 12.375 19.375 12.375H13.625Z" fill="white"/>
</g>
<defs>
<clipPath id="clip0_4248_8116">
<rect width="32" height="32" fill="white" transform="translate(0.5)"/>
</clipPath>
</defs>
</symbol>
<symbol id="wallet-metamask" viewBox="0 0 33 32">
<g clip-path="url(#clip0_4248_8071)">
<path d="M30.9062 1.25L18.4199 10.5237L20.7289 5.05235L30.9062 1.25Z" fill="#E2761B" stroke="#E2761B" stroke-width="0.3125" stroke-linecap="round" stroke-linejoin="round"/>
<path d="M2.08203 1.25L14.4679 10.6116L12.2718 5.05235L2.08203 1.25Z" fill="#E4761B" stroke="#E4761B" stroke-width="0.3125" stroke-linecap="round" stroke-linejoin="round"/>
<path d="M26.4134 22.7461L23.0879 27.841L30.2032 29.7986L32.2487 22.859L26.4134 22.7461Z" fill="#E4761B" stroke="#E4761B" stroke-width="0.3125" stroke-linecap="round" stroke-linejoin="round"/>
<path d="M0.763672 22.859L2.79661 29.7986L9.91191 27.841L6.58642 22.7461L0.763672 22.859Z" fill="#E4761B" stroke="#E4761B" stroke-width="0.3125" stroke-linecap="round" stroke-linejoin="round"/>
<path d="M9.51009 14.1386L7.52734 17.1378L14.5924 17.4515L14.3415 9.85938L9.51009 14.1386Z" fill="#E4761B" stroke="#E4761B" stroke-width="0.3125" stroke-linecap="round" stroke-linejoin="round"/>
<path d="M23.4772 14.1385L18.5831 9.77148L18.4199 17.4515L25.4725 17.1378L23.4772 14.1385Z" fill="#E4761B" stroke="#E4761B" stroke-width="0.3125" stroke-linecap="round" stroke-linejoin="round"/>
<path d="M9.91211 27.8419L14.1537 25.7713L10.4894 22.9102L9.91211 27.8419Z" fill="#E4761B" stroke="#E4761B" stroke-width="0.3125" stroke-linecap="round" stroke-linejoin="round"/>
<path d="M18.834 25.7713L23.0881 27.8419L22.4983 22.9102L18.834 25.7713Z" fill="#E4761B" stroke="#E4761B" stroke-width="0.3125" stroke-linecap="round" stroke-linejoin="round"/>
<path d="M23.0881 27.8421L18.834 25.7715L19.1728 28.5448L19.1352 29.7119L23.0881 27.8421Z" fill="#D7C1B3" stroke="#D7C1B3" stroke-width="0.3125" stroke-linecap="round" stroke-linejoin="round"/>
<path d="M9.91211 27.8421L13.8651 29.7119L13.84 28.5448L14.1537 25.7715L9.91211 27.8421Z" fill="#D7C1B3" stroke="#D7C1B3" stroke-width="0.3125" stroke-linecap="round" stroke-linejoin="round"/>
<path d="M13.9275 21.0781L10.3887 20.0365L12.8859 18.8945L13.9275 21.0781Z" fill="#233447" stroke="#233447" stroke-width="0.3125" stroke-linecap="round" stroke-linejoin="round"/>
<path d="M19.0605 21.0781L20.1021 18.8945L22.6119 20.0365L19.0605 21.0781Z" fill="#233447" stroke="#233447" stroke-width="0.3125" stroke-linecap="round" stroke-linejoin="round"/>
<path d="M9.91143 27.841L10.5138 22.7461L6.58594 22.859L9.91143 27.841Z" fill="#CD6116" stroke="#CD6116" stroke-width="0.3125" stroke-linecap="round" stroke-linejoin="round"/>
<path d="M22.4863 22.7461L23.0887 27.841L26.4142 22.859L22.4863 22.7461Z" fill="#CD6116" stroke="#CD6116" stroke-width="0.3125" stroke-linecap="round" stroke-linejoin="round"/>
<path d="M25.4725 17.1367L18.4199 17.4504L19.0725 21.0771L20.114 18.8936L22.6238 20.0355L25.4725 17.1367Z" fill="#CD6116" stroke="#CD6116" stroke-width="0.3125" stroke-linecap="round" stroke-linejoin="round"/>
<path d="M10.3885 20.0355L12.8983 18.8936L13.9273 21.0771L14.5924 17.4504L7.52734 17.1367L10.3885 20.0355Z" fill="#CD6116" stroke="#CD6116" stroke-width="0.3125" stroke-linecap="round" stroke-linejoin="round"/>
<path d="M7.52734 17.1367L10.4889 22.9093L10.3885 20.0355L7.52734 17.1367Z" fill="#E4751F" stroke="#E4751F" stroke-width="0.3125" stroke-linecap="round" stroke-linejoin="round"/>
<path d="M22.6235 20.0355L22.498 22.9093L25.4722 17.1367L22.6235 20.0355Z" fill="#E4751F" stroke="#E4751F" stroke-width="0.3125" stroke-linecap="round" stroke-linejoin="round"/>
<path d="M14.5928 17.4512L13.9277 21.0778L14.756 25.3571L14.9442 19.7225L14.5928 17.4512Z" fill="#E4751F" stroke="#E4751F" stroke-width="0.3125" stroke-linecap="round" stroke-linejoin="round"/>
<path d="M18.4209 17.4512L18.082 19.71L18.2326 25.3571L19.0734 21.0778L18.4209 17.4512Z" fill="#E4751F" stroke="#E4751F" stroke-width="0.3125" stroke-linecap="round" stroke-linejoin="round"/>
<path d="M19.0732 21.0767L18.2324 25.3559L18.8348 25.7701L22.4991 22.9089L22.6246 20.0352L19.0732 21.0767Z" fill="#F6851B" stroke="#F6851B" stroke-width="0.3125" stroke-linecap="round" stroke-linejoin="round"/>
<path d="M10.3887 20.0352L10.4891 22.9089L14.1534 25.7701L14.7557 25.3559L13.9275 21.0767L10.3887 20.0352Z" fill="#F6851B" stroke="#F6851B" stroke-width="0.3125" stroke-linecap="round" stroke-linejoin="round"/>
<path d="M19.1356 29.7116L19.1733 28.5445L18.8596 28.2685H14.1286L13.84 28.5445L13.8651 29.7116L9.91211 27.8418L11.2925 28.9712L14.0909 30.9163H18.8972L21.7082 28.9712L23.0886 27.8418L19.1356 29.7116Z" fill="#C0AD9E" stroke="#C0AD9E" stroke-width="0.3125" stroke-linecap="round" stroke-linejoin="round"/>
<path d="M18.8344 25.7715L18.232 25.3574H14.7559L14.1536 25.7715L13.8398 28.5449L14.1285 28.2688H18.8595L19.1732 28.5449L18.8344 25.7715Z" fill="#161616" stroke="#161616" stroke-width="0.3125" stroke-linecap="round" stroke-linejoin="round"/>
<path d="M31.4332 11.1261L32.4999 6.00608L30.9061 1.25L18.834 10.21L23.4771 14.1378L30.0403 16.0578L31.4959 14.3637L30.8685 13.912L31.8724 12.9959L31.0944 12.3935L32.0983 11.628L31.4332 11.1261Z" fill="#763D16" stroke="#763D16" stroke-width="0.3125" stroke-linecap="round" stroke-linejoin="round"/>
<path d="M0.5 6.00608L1.56667 11.1261L0.88902 11.628L1.89294 12.3935L1.12745 12.9959L2.13137 13.912L1.50392 14.3637L2.94706 16.0578L9.5102 14.1378L14.1533 10.21L2.08118 1.25L0.5 6.00608Z" fill="#763D16" stroke="#763D16" stroke-width="0.3125" stroke-linecap="round" stroke-linejoin="round"/>
<path d="M30.04 16.0587L23.4769 14.1387L25.4722 17.1379L22.498 22.9104L26.4133 22.8602H32.2486L30.04 16.0587Z" fill="#F6851B" stroke="#F6851B" stroke-width="0.3125" stroke-linecap="round" stroke-linejoin="round"/>
<path d="M9.51034 14.1387L2.9472 16.0587L0.763672 22.8602H6.58642L10.4892 22.9104L7.52759 17.1379L9.51034 14.1387Z" fill="#F6851B" stroke="#F6851B" stroke-width="0.3125" stroke-linecap="round" stroke-linejoin="round"/>
<path d="M18.4205 17.4512L18.8346 10.2104L20.7421 5.05273H12.2715L14.1538 10.2104L14.5931 17.4512L14.7436 19.7351L14.7562 25.357H18.2323L18.2574 19.7351L18.4205 17.4512Z" fill="#F6851B" stroke="#F6851B" stroke-width="0.3125" stroke-linecap="round" stroke-linejoin="round"/>
</g>
<defs>
<clipPath id="clip0_4248_8071">
<rect width="32" height="32" fill="white" transform="translate(0.5)"/>
</clipPath>
</defs></symbol>
<symbol id="icon-RocketLaunch" viewBox="0 0 32 32">
<path d="M9.873 19.919c0.176 0.524-0.106 1.091-0.629 1.267-1.695 0.57-2.596 1.993-3.078 3.44-0.191 0.575-0.307 1.128-0.376 1.585 0.457-0.069 1.011-0.185 1.585-0.376 1.447-0.482 2.87-1.383 3.44-3.078 0.176-0.523 0.743-0.805 1.267-0.629s0.805 0.743 0.629 1.267c-0.855 2.542-2.97 3.76-4.704 4.338-0.876 0.292-1.696 0.436-2.295 0.508-0.301 0.036-0.549 0.054-0.726 0.064-0.088 0.005-0.159 0.007-0.21 0.008-0.025 0.001-0.045 0.001-0.060 0.001l-0.018 0h-0.009c-0 0-0.001 0-0.001-1-1 0-1-0-1-0.001v-0.003l0-0.006 0-0.018c0-0.015 0.001-0.035 0.001-0.060 0.001-0.050 0.004-0.121 0.008-0.209 0.009-0.177 0.028-0.425 0.064-0.726 0.072-0.599 0.216-1.419 0.508-2.295 0.577-1.734 1.795-3.849 4.338-4.704 0.523-0.176 1.091 0.106 1.267 0.629zM4.688 27.313h-1c0 0.552 0.448 1 1 1v-1z"></path>
<path d="M26.474 5.527c0.167 1.161 0.231 4.018-2.694 6.942l-7.78 7.78-4.248-4.248 7.78-7.78c2.924-2.924 5.781-2.861 6.942-2.694zM26.764 3.548c-1.596-0.231-5.155-0.233-8.646 3.258l-8.488 8.488c-0.188 0.188-0.293 0.442-0.293 0.707s0.105 0.52 0.293 0.707l5.662 5.663c0.391 0.391 1.024 0.391 1.414 0l8.488-8.488c3.491-3.491 3.489-7.050 3.258-8.646-0.058-0.427-0.255-0.824-0.56-1.129s-0.701-0.502-1.129-0.56z"></path>
<path d="M23.075 13.588c0.552 0 1 0.448 1 1v8.075l-0 0.014c-0.007 0.525-0.221 1.026-0.595 1.395l-4.036 4.048c-0.256 0.256-0.577 0.437-0.928 0.525s-0.72 0.079-1.066-0.027c-0.346-0.105-0.658-0.303-0.901-0.571s-0.408-0.597-0.479-0.952c-0-0 0 0 0 0l-1.050-5.237c-0.109-0.541 0.242-1.068 0.784-1.177s1.069 0.242 1.177 0.784l1.050 5.239 4.044-4.057v-8.061c0-0.552 0.448-1 1-1z"></path>
<path d="M9.324 7.925l0.014-0h8.075c0.552 0 1 0.448 1 1s-0.448 1-1 1h-8.061l-0.008 0.008-0-0-4.047 4.036 5.238 1.050c0.541 0.109 0.892 0.636 0.784 1.177s-0.636 0.892-1.177 0.784l-5.236-1.050c-0-0-0.001-0-0.001-0-0.355-0.071-0.684-0.236-0.952-0.479s-0.466-0.555-0.571-0.901-0.114-0.715-0.027-1.066c0.088-0.351 0.269-0.672 0.525-0.928l0.002-0.002 4.047-4.034c0.369-0.374 0.87-0.588 1.395-0.595z"></path>
</symbol>
<symbol id="creators-rocket" viewBox="0 0 20 20" >
  <path fill-rule="evenodd" clip-rule="evenodd" d="M6.17053 12.4494C6.28055 12.7766 6.10451 13.131 5.77734 13.241C4.71792 13.5973 4.15489 14.4866 3.85373 15.391C3.73414 15.7501 3.66189 16.0958 3.61848 16.3817C3.90434 16.3383 4.25006 16.266 4.60917 16.1464C5.51355 15.8453 6.4029 15.2823 6.75916 14.2228C6.86918 13.8957 7.2236 13.7196 7.55078 13.8296C7.87795 13.9397 8.05399 14.2941 7.94396 14.6213C7.4096 16.2103 6.08801 16.9715 5.00411 17.3324C4.45655 17.5148 3.94395 17.6048 3.5698 17.6497C3.38182 17.6722 3.22641 17.6836 3.116 17.6894C3.06074 17.6924 3.01658 17.6939 2.98505 17.6946C2.96928 17.695 2.95666 17.6952 2.94737 17.6954L2.93596 17.6955L2.93217 17.6955L2.93077 17.6955L2.93019 17.6955C2.92993 17.6955 2.92969 17.6955 2.92969 17.0705C2.30469 17.0705 2.30469 17.0702 2.30469 17.07L2.30469 17.0694L2.30469 17.068L2.30471 17.0642L2.30481 17.0528C2.30493 17.0435 2.30514 17.0309 2.30553 17.0151C2.30631 16.9836 2.30782 16.9394 2.31072 16.8842C2.31653 16.7738 2.32797 16.6184 2.35052 16.4304C2.3954 16.0562 2.48542 15.5436 2.66776 14.9961C3.0287 13.9122 3.78989 12.5906 5.37891 12.0562C5.70608 11.9462 6.0605 12.1222 6.17053 12.4494ZM2.92969 17.0705H2.30469C2.30469 17.4157 2.58451 17.6955 2.92969 17.6955V17.0705Z" fill="#A259FF" />
  <path fill-rule="evenodd" clip-rule="evenodd" d="M16.5462 3.45406C15.8208 3.34943 14.0351 3.31002 12.2076 5.13753L7.34482 10.0003L10 12.6555L14.8627 7.79271C16.6903 5.9652 16.6508 4.17951 16.5462 3.45406ZM16.7275 2.21727C15.7298 2.07282 13.5058 2.07157 11.3237 4.25365L6.019 9.55834C5.90179 9.67555 5.83594 9.83452 5.83594 10.0003C5.83594 10.166 5.90179 10.325 6.019 10.4422L9.55806 13.9813C9.80214 14.2254 10.1979 14.2254 10.4419 13.9813L15.7466 8.67659C17.9287 6.49452 17.9275 4.27052 17.783 3.27282C17.7465 3.0058 17.6235 2.75803 17.4329 2.5674C17.2422 2.37678 16.9945 2.25382 16.7275 2.21727Z" fill="#A259FF" />
  <path fill-rule="evenodd" clip-rule="evenodd" d="M14.422 8.49219C14.7672 8.49219 15.047 8.77201 15.047 9.11719V14.1641L15.0469 14.173C15.0423 14.5013 14.9086 14.8145 14.675 15.045L12.1527 17.575C11.9926 17.7349 11.7921 17.8484 11.5725 17.9033C11.353 17.9582 11.1227 17.9524 10.9061 17.8867C10.6896 17.8209 10.495 17.6976 10.343 17.5299C10.1912 17.3623 10.0877 17.1567 10.0435 16.9349C10.0434 16.9347 10.0435 16.9351 10.0435 16.9349L9.38731 13.6619C9.31946 13.3235 9.53882 12.9941 9.87727 12.9263C10.2157 12.8584 10.5451 13.0778 10.6129 13.4162L11.2694 16.6906L13.797 14.1552V9.11719C13.797 8.77201 14.0768 8.49219 14.422 8.49219Z" fill="#A259FF" />
  <path fill-rule="evenodd" clip-rule="evenodd" d="M5.82625 4.95319L5.83515 4.95312H10.882C11.2272 4.95312 11.507 5.23295 11.507 5.57812C11.507 5.9233 11.2272 6.20312 10.882 6.20312H5.84399L5.83894 6.20828L5.83891 6.20825L3.30859 8.73075L3.30956 8.73094L6.583 9.38719C6.92144 9.45504 7.1408 9.78441 7.07295 10.1229C7.0051 10.4613 6.67574 10.6807 6.33729 10.6128L3.06483 9.95675C3.06464 9.95671 3.06445 9.95668 3.06426 9.95664C2.84252 9.91244 2.6369 9.80892 2.46933 9.65711C2.30162 9.50516 2.1783 9.31054 2.11254 9.094C2.04677 8.87746 2.04103 8.64712 2.09592 8.42757C2.15081 8.20802 2.26427 8.00749 2.4242 7.84738L2.42514 7.84644L2.42514 7.84644L4.95424 5.32514C5.18475 5.09151 5.49796 4.95786 5.82625 4.95319Z" fill="#A259FF" />
</symbol>
        <symbol id="icon-copy" viewBox="0 0 32 32">
            <path
                d="M10 5c0-0.552 0.448-1 1-1h16c0.552 0 1 0.448 1 1v16c0 0.552-0.448 1-1 1h-6c-0.552 0-1-0.448-1-1s0.448-1 1-1h5v-14h-14v5c0 0.552-0.448 1-1 1s-1-0.448-1-1v-6z">
            </path>
            <path
                d="M4 11c0-0.552 0.448-1 1-1h16c0.552 0 1 0.448 1 1v16c0 0.552-0.448 1-1 1h-16c-0.552 0-1-0.448-1-1v-16zM6 12v14h14v-14h-14z">
            </path>
        </symbol>
        <symbol id="icon-Plus" viewBox="0 0 32 32">
            <path d="M4 16c0-0.552 0.448-1 1-1h22c0.552 0 1 0.448 1 1s-0.448 1-1 1h-22c-0.552 0-1-0.448-1-1z"></path>
            <path d="M16 4c0.552 0 1 0.448 1 1v22c0 0.552-0.448 1-1 1s-1-0.448-1-1v-22c0-0.552 0.448-1 1-1z"></path>
        </symbol>
        <symbol id="icon-globe" viewBox="0 0 32 32">
            <path
                d="M16 5c-6.075 0-11 4.925-11 11s4.925 11 11 11c6.075 0 11-4.925 11-11s-4.925-11-11-11zM3 16c0-7.18 5.82-13 13-13s13 5.82 13 13c0 7.18-5.82 13-13 13s-13-5.82-13-13z">
            </path>
            <path
                d="M3.688 12c0-0.552 0.448-1 1-1h22.625c0.552 0 1 0.448 1 1s-0.448 1-1 1h-22.625c-0.552 0-1-0.448-1-1z">
            </path>
            <path
                d="M3.688 20c0-0.552 0.448-1 1-1h22.625c0.552 0 1 0.448 1 1s-0.448 1-1 1h-22.625c-0.552 0-1-0.448-1-1z">
            </path>
            <path
                d="M13.384 8.139c-0.84 1.961-1.384 4.74-1.384 7.862s0.544 5.901 1.384 7.862c0.421 0.982 0.896 1.713 1.373 2.184 0.473 0.467 0.892 0.629 1.244 0.629s0.771-0.162 1.244-0.629c0.477-0.471 0.952-1.202 1.373-2.184 0.84-1.961 1.384-4.74 1.384-7.862s-0.544-5.901-1.384-7.862c-0.421-0.982-0.896-1.713-1.373-2.184-0.473-0.467-0.892-0.629-1.244-0.629s-0.771 0.162-1.244 0.629c-0.477 0.471-0.952 1.202-1.373 2.184zM13.351 4.532c0.724-0.715 1.62-1.206 2.649-1.206s1.925 0.491 2.649 1.206c0.72 0.711 1.322 1.689 1.806 2.82 0.97 2.264 1.545 5.323 1.545 8.649s-0.575 6.385-1.545 8.649c-0.484 1.13-1.086 2.109-1.806 2.82-0.724 0.715-1.62 1.206-2.649 1.206s-1.925-0.491-2.649-1.206c-0.72-0.711-1.322-1.689-1.806-2.82-0.97-2.265-1.545-5.323-1.545-8.649s0.575-6.385 1.545-8.649c0.484-1.13 1.086-2.109 1.806-2.82z">
            </path>
        </symbol>
        <symbol id="icon-DiscordLogo" viewBox="0 0 32 32">
            <path
                d="M12 19.5c0.828 0 1.5-0.672 1.5-1.5s-0.672-1.5-1.5-1.5c-0.828 0-1.5 0.672-1.5 1.5s0.672 1.5 1.5 1.5z">
            </path>
            <path
                d="M20 19.5c0.828 0 1.5-0.672 1.5-1.5s-0.672-1.5-1.5-1.5c-0.828 0-1.5 0.672-1.5 1.5s0.672 1.5 1.5 1.5z">
            </path>
            <path
                d="M15.992 9.999c-2.168-0.016-4.325 0.306-6.394 0.954-0.527 0.165-1.088-0.128-1.253-0.655s0.128-1.088 0.655-1.253c2.265-0.71 4.626-1.063 6.999-1.046 2.373-0.017 4.734 0.336 6.999 1.046 0.527 0.165 0.82 0.726 0.655 1.253s-0.726 0.82-1.253 0.655c-2.069-0.648-4.226-0.97-6.393-0.954h-0.015z">
            </path>
            <path
                d="M8.346 21.701c0.165-0.527 0.726-0.82 1.253-0.655 2.069 0.648 4.226 0.97 6.394 0.954h0.015c2.168 0.016 4.325-0.306 6.393-0.954 0.527-0.165 1.088 0.128 1.253 0.655s-0.128 1.088-0.655 1.253c-2.265 0.71-4.626 1.063-6.999 1.046-2.373 0.017-4.734-0.336-6.999-1.046-0.527-0.165-0.82-0.726-0.655-1.253z">
            </path>
            <path
                d="M20.221 4.812c0.43-0.243 0.935-0.319 1.418-0.213 1.317 0.286 2.607 0.686 3.855 1.197 0.281 0.108 0.533 0.28 0.737 0.501 0.206 0.224 0.357 0.492 0.442 0.785l4.236 14.144c0.111 0.369 0.113 0.761 0.007 1.131s-0.315 0.702-0.604 0.956l-0.005 0.005c-2.067 1.799-4.869 3.161-8.051 3.941-0.442 0.113-0.909 0.069-1.323-0.124-0.412-0.192-0.745-0.52-0.943-0.929l-1.508-2.992c-0.249-0.493-0.050-1.095 0.443-1.343s1.095-0.050 1.343 0.443l1.514 3.002c2.938-0.721 5.432-1.958 7.212-3.506l0.656 0.754-0.662-0.75c0.002-0.002 0.003-0.004 0.004-0.006s0.001-0.005 0-0.007l-4.236-14.145c-0.003-0.001-0.007-0.003-0.011-0.004-1.143-0.469-2.325-0.836-3.532-1.098l-0.002-0c-0.003-0.001-0.006-0-0.009 0.001s-0.004 0.003-0.005 0.006l-0.985 2.98c-0.173 0.524-0.739 0.809-1.263 0.636s-0.809-0.739-0.636-1.263l0.99-2.996c0.16-0.468 0.486-0.861 0.917-1.104z">
            </path>
            <path
                d="M10.798 6.554c-0.003-0.002-0.006-0.002-0.009-0.001l-0.002 0c-1.207 0.262-2.389 0.629-3.532 1.098-0.004 0.001-0.007 0.003-0.011 0.004l-4.236 14.145c-0.001 0.002-0.001 0.005-0 0.007s0.002 0.004 0.003 0.005c1.78 1.547 4.272 2.783 7.207 3.502l0.001-0.002 1.512-3c0.249-0.493 0.85-0.691 1.343-0.443s0.691 0.85 0.443 1.343l-1.508 2.992c-0.198 0.409-0.531 0.737-0.942 0.929-0.413 0.193-0.881 0.237-1.323 0.124-3.182-0.78-5.983-2.142-8.051-3.941l-0.005-0.005c-0.288-0.255-0.498-0.586-0.604-0.956s-0.103-0.762 0.007-1.131c-0 0 0-0 0 0l4.236-14.145c0.085-0.292 0.236-0.561 0.442-0.785 0.204-0.221 0.456-0.393 0.737-0.501 1.248-0.511 2.538-0.912 3.856-1.197 0.482-0.105 0.987-0.029 1.417 0.213s0.757 0.636 0.917 1.104l0.003 0.009 0.988 2.988c0.173 0.524-0.111 1.090-0.636 1.263s-1.090-0.111-1.263-0.636l-0.985-2.98c-0.001-0.003-0.003-0.005-0.005-0.006z">
            </path>
        </symbol>
        <symbol id="icon-YoutubeLogo" viewBox="0 0 32 32">
            <path
                d="M13.528 11.118c0.325-0.174 0.72-0.155 1.027 0.050l6 4c0.278 0.185 0.445 0.498 0.445 0.832s-0.167 0.647-0.445 0.832l-6 4c-0.307 0.205-0.701 0.224-1.027 0.050s-0.528-0.513-0.528-0.882v-8c0-0.369 0.203-0.708 0.528-0.882zM15 13.869v4.263l3.197-2.131-3.197-2.131z">
            </path>
            <path
                d="M15.999 5.050h0.083c0.054 0 0.134 0.001 0.236 0.002 0.204 0.002 0.497 0.007 0.863 0.018 0.729 0.022 1.746 0.068 2.897 0.165 2.276 0.192 5.174 0.591 7.406 1.444l0.015 0.006c0.438 0.175 0.829 0.451 1.141 0.806s0.536 0.777 0.655 1.234l0.001 0.004c0.311 1.219 0.706 3.478 0.706 7.273s-0.395 6.054-0.706 7.273l-0.001 0.004c-0.119 0.457-0.343 0.88-0.655 1.234s-0.703 0.63-1.141 0.806l-0.015 0.006c-2.231 0.853-5.129 1.251-7.406 1.444-1.151 0.097-2.167 0.143-2.897 0.165-0.365 0.011-0.659 0.016-0.863 0.018-0.102 0.001-0.181 0.001-0.236 0.002h-0.162c-0.054-0-0.134-0.001-0.236-0.002-0.204-0.002-0.497-0.007-0.863-0.018-0.729-0.022-1.746-0.068-2.897-0.165-2.276-0.192-5.174-0.591-7.406-1.444l-0.015-0.006c-0.438-0.175-0.829-0.451-1.141-0.806s-0.536-0.777-0.655-1.234l-0.001-0.004c-0.311-1.219-0.706-3.478-0.706-7.273s0.395-6.054 0.706-7.273l0.001-0.004c0.119-0.457 0.343-0.88 0.655-1.234s0.703-0.63 1.141-0.806l0.015-0.006c2.231-0.853 5.129-1.251 7.406-1.444 1.151-0.097 2.168-0.143 2.897-0.165 0.365-0.011 0.659-0.016 0.863-0.018 0.102-0.001 0.181-0.001 0.236-0.002h0.080zM15.995 24.95l0.011-0 0.003 0h0.068c0.049-0 0.123-0.001 0.219-0.001 0.192-0.002 0.473-0.007 0.824-0.017 0.702-0.021 1.682-0.065 2.789-0.159 2.236-0.189 4.896-0.57 6.852-1.316 0.145-0.059 0.274-0.151 0.377-0.268 0.105-0.119 0.18-0.26 0.22-0.413 0.264-1.032 0.643-3.122 0.643-6.775s-0.38-5.743-0.643-6.775c-0.040-0.153-0.115-0.294-0.22-0.413-0.103-0.117-0.233-0.209-0.377-0.268-1.955-0.745-4.615-1.127-6.852-1.316-1.107-0.093-2.086-0.138-2.789-0.159-0.351-0.011-0.632-0.015-0.824-0.017-0.096-0.001-0.17-0.001-0.219-0.002l-0.153-0c-0.049 0-0.123 0-0.219 0.002-0.192 0.002-0.473 0.007-0.824 0.017-0.702 0.021-1.682 0.066-2.789 0.159-2.236 0.189-4.896 0.57-6.852 1.316-0.145 0.059-0.274 0.151-0.377 0.268-0.104 0.119-0.18 0.26-0.22 0.413-0.264 1.032-0.643 3.122-0.643 6.775s0.38 5.743 0.643 6.775c0.040 0.153 0.115 0.294 0.22 0.413 0.103 0.117 0.233 0.209 0.377 0.268 1.956 0.745 4.616 1.127 6.852 1.316 1.107 0.093 2.086 0.138 2.789 0.159 0.351 0.011 0.632 0.015 0.824 0.017 0.096 0.001 0.17 0.001 0.219 0.001h0.071z">
            </path>
        </symbol>
        <symbol id="icon-twit2-optimized" viewBox="0 0 32 32">
            <path fill="none" stroke="#858584" style="stroke: var(--color1, #858584)" stroke-linejoin="round"
                stroke-linecap="round" stroke-miterlimit="4" stroke-width="2"
                d="M16 11c0-2.75 2.313-5.037 5.063-5 2.015 0.024 3.741 1.237 4.512 2.968l0.013 0.032h4.413l-4.038 4.038c-0.555 8.377-7.486 14.962-15.955 14.962-0.002 0-0.005 0-0.007 0h0c-4 0-5-1.5-5-1.5s3.999-1.5 5.999-4.5c0 0-8-4-6-15 0 0 5 5 11 6v-2z">
            </path>
        </symbol>
        <symbol id="icon-InstagramLogo" viewBox="0 0 32 32">
            <path
                d="M16 12c-2.209 0-4 1.791-4 4s1.791 4 4 4c2.209 0 4-1.791 4-4s-1.791-4-4-4zM10 16c0-3.314 2.686-6 6-6s6 2.686 6 6c0 3.314-2.686 6-6 6s-6-2.686-6-6z">
            </path>
            <path
                d="M10.5 5.5c-2.761 0-5 2.239-5 5v11c0 2.761 2.239 5 5 5h11c2.761 0 5-2.239 5-5v-11c0-2.761-2.239-5-5-5h-11zM3.5 10.5c0-3.866 3.134-7 7-7h11c3.866 0 7 3.134 7 7v11c0 3.866-3.134 7-7 7h-11c-3.866 0-7-3.134-7-7v-11z">
            </path>
            <path
                d="M22.5 11c0.828 0 1.5-0.672 1.5-1.5s-0.672-1.5-1.5-1.5c-0.828 0-1.5 0.672-1.5 1.5s0.672 1.5 1.5 1.5z">
            </path>
        </symbol><symbol>
<svg id="button-icon" width="20" height="20" viewBox="0 0 20 20" fill="none" xmlns="http://www.w3.org/2000/svg">
  <path fill-rule="evenodd" clip-rule="evenodd" d="M1.875 4.375C1.875 4.02982 2.15482 3.75 2.5 3.75H17.5C17.8452 3.75 18.125 4.02982 18.125 4.375V15C18.125 15.3315 17.9933 15.6495 17.7589 15.8839C17.5245 16.1183 17.2065 16.25 16.875 16.25H3.125C2.79348 16.25 2.47554 16.1183 2.24112 15.8839C2.0067 15.6495 1.875 15.3315 1.875 15V4.375ZM3.125 5V15H16.875V5H3.125Z" fill="white" />
  <path fill-rule="evenodd" clip-rule="evenodd" d="M2.03928 3.95268C2.27253 3.69823 2.66788 3.68104 2.92233 3.91428L10 10.4021L17.0777 3.91428C17.3321 3.68104 17.7275 3.69823 17.9607 3.95268C18.194 4.20713 18.1768 4.60248 17.9223 4.83573L10.4223 11.7107C10.1834 11.9298 9.81663 11.9298 9.57768 11.7107L2.07768 4.83573C1.82323 4.60248 1.80604 4.20713 2.03928 3.95268Z" fill="white" />
</svg>
</symbol>

<symbol id="hiw-svg-1" viewBox="0 0 170 169">
  <path d="M85.0006 126.167C108.013 126.167 126.667 107.513 126.667 84.5006C126.667 61.4888 108.013 42.834 85.0006 42.834C61.9888 42.834 43.334 61.4888 43.334 84.5006C43.334 107.513 61.9888 126.167 85.0006 126.167Z" fill="url(#paint0_linear_4415_4240)" />
  <g filter="url(#filter0_f_4415_4240)">
    <path d="M84.9992 114.934C101.808 114.934 115.434 101.308 115.434 84.4992C115.434 67.6906 101.808 54.0645 84.9992 54.0645C68.1906 54.0645 54.5645 67.6906 54.5645 84.4992C54.5645 101.308 68.1906 114.934 84.9992 114.934Z" fill="url(#paint1_linear_4415_4240)" />
  </g>
  <path fill-rule="evenodd" clip-rule="evenodd" d="M82.1364 50.6527C82.8335 50.6527 83.3987 50.0876 83.3987 49.3905C83.3987 48.6934 82.8335 48.1283 82.1364 48.1283C81.4393 48.1283 80.8745 48.6934 80.8745 49.3905C80.8745 50.0876 81.4393 50.6527 82.1364 50.6527ZM82.1364 51.5994C83.3564 51.5994 84.3455 50.6104 84.3455 49.3905C84.3455 48.1706 83.3564 47.1816 82.1364 47.1816C80.9165 47.1816 79.9277 48.1706 79.9277 49.3905C79.9277 50.6104 80.9165 51.5994 82.1364 51.5994Z" fill="white" />
  <path fill-rule="evenodd" clip-rule="evenodd" d="M52.0643 108.623C52.7614 108.623 53.3265 108.058 53.3265 107.361C53.3265 106.664 52.7614 106.099 52.0643 106.099C51.3672 106.099 50.8021 106.664 50.8021 107.361C50.8021 108.058 51.3672 108.623 52.0643 108.623ZM52.0643 109.57C53.2842 109.57 54.2732 108.581 54.2732 107.361C54.2732 106.141 53.2842 105.152 52.0643 105.152C50.8444 105.152 49.8555 106.141 49.8555 107.361C49.8555 108.581 50.8444 109.57 52.0643 109.57Z" fill="white" />
  <path fill-rule="evenodd" clip-rule="evenodd" d="M121.267 105.725C121.964 105.725 122.53 105.16 122.53 104.463C122.53 103.765 121.964 103.201 121.267 103.201C120.57 103.201 120.005 103.765 120.005 104.463C120.005 105.16 120.57 105.725 121.267 105.725ZM121.267 106.672C122.487 106.672 123.476 105.683 123.476 104.463C123.476 103.243 122.487 102.254 121.267 102.254C120.047 102.254 119.059 103.243 119.059 104.463C119.059 105.683 120.047 106.672 121.267 106.672Z" fill="white" />
  <path d="M61.5912 56.308C61.6841 55.9234 62.2311 55.9234 62.324 56.308L62.6364 57.6024C62.6696 57.7398 62.7769 57.8471 62.9144 57.8803L64.2088 58.1928C64.5934 58.2856 64.5934 58.8327 64.2088 58.9255L62.9144 59.238C62.7769 59.2712 62.6696 59.3785 62.6364 59.5159L62.324 60.8103C62.2311 61.1949 61.6841 61.1949 61.5912 60.8103L61.2788 59.5159C61.2456 59.3785 61.1383 59.2712 61.0008 59.238L59.7064 58.9255C59.3218 58.8327 59.3218 58.2856 59.7064 58.1928L61.0008 57.8803C61.1383 57.8471 61.2456 57.7398 61.2788 57.6024L61.5912 56.308Z" fill="white" />
  <path d="M115.179 112.974C115.281 112.553 115.881 112.553 115.982 112.974L116.325 114.393C116.361 114.544 116.479 114.662 116.629 114.698L118.048 115.041C118.47 115.142 118.47 115.742 118.048 115.843L116.629 116.186C116.479 116.222 116.361 116.34 116.325 116.491L115.982 117.909C115.881 118.331 115.281 118.331 115.179 117.909L114.836 116.491C114.8 116.34 114.682 116.222 114.532 116.186L113.113 115.843C112.691 115.742 112.691 115.142 113.113 115.041L114.532 114.698C114.682 114.662 114.8 114.544 114.836 114.393L115.179 112.974Z" fill="url(#paint2_linear_4415_4240)" />
  <path d="M55.6626 118.282C56.1423 118.205 56.5253 118.676 56.3519 119.13L55.182 122.193C55.0087 122.647 54.409 122.743 54.1027 122.366L52.0346 119.821C51.7282 119.444 51.9448 118.877 52.4245 118.8L55.6626 118.282Z" fill="url(#paint3_linear_4415_4240)" />
  <path d="M117.239 59.5026C117.119 59.0318 117.553 58.6076 118.021 58.7391L121.178 59.6263C121.646 59.7577 121.796 60.3461 121.448 60.6855L119.102 62.9759C118.754 63.3152 118.169 63.151 118.049 62.6802L117.239 59.5026Z" fill="url(#paint4_linear_4415_4240)" />
  <path d="M106.728 81.4964L99.8823 82.8272C97.9344 83.2054 96.6627 85.0913 97.0413 87.0388C97.4199 88.9862 99.3054 90.258 101.253 89.8797L108.099 88.5489C110.046 88.1703 111.318 86.2848 110.939 84.3373C110.561 82.3899 108.675 81.1177 106.728 81.4964Z" fill="url(#paint5_linear_4415_4240)" />
  <path d="M109.417 85.0089C109.452 84.1223 108.761 83.3755 107.874 83.3411C106.987 83.3063 106.241 83.9973 106.206 84.8839C106.172 85.7705 106.862 86.5172 107.749 86.552C108.636 86.5864 109.383 85.8955 109.417 85.0089Z" fill="#EBEBEB" />
  <path d="M107.979 85.8091C108.456 85.7163 108.767 85.2547 108.674 84.7783C108.582 84.3015 108.12 83.9903 107.643 84.0826C107.167 84.1754 106.855 84.637 106.948 85.1138C107.041 85.5903 107.502 85.9018 107.979 85.8091Z" fill="#DBDBDB" />
  <path d="M95.8735 70.6766L60.9208 77.4709C58.9565 77.8524 57.6737 79.7546 58.0555 81.7187L62.778 106.014C63.1598 107.978 65.0617 109.261 67.026 108.879L101.979 102.085C103.943 101.703 105.226 99.8013 104.844 97.8368L100.121 73.5419C99.7398 71.5777 97.838 70.2948 95.8735 70.6766Z" fill="url(#paint6_linear_4415_4240)" />
  <path d="M95.2338 59.6308L102.374 78.0857C102.773 79.1173 102.26 80.2774 101.23 80.6763L71.9606 91.9999C70.9308 92.3991 69.7707 91.8854 69.3709 90.8538L62.2312 72.3988C61.8606 71.4386 62.3367 70.3598 63.2971 69.9892L92.8233 58.5671C93.7838 58.1966 94.8625 58.6727 95.2331 59.6331L95.2338 59.6308Z" fill="url(#paint7_linear_4415_4240)" />
  <path d="M96.6105 77.3242C96.9765 78.2731 96.5058 79.3401 95.5569 79.706C94.6084 80.0723 93.541 79.6013 93.175 78.6524C92.8087 77.7039 93.2797 76.6368 94.2286 76.2705C95.1772 75.9046 96.2446 76.3756 96.6105 77.3242Z" fill="url(#paint8_linear_4415_4240)" />
  <path d="M98.7236 76.5056C99.0899 77.4545 98.6189 78.5216 97.6704 78.8879C96.7214 79.2538 95.6544 78.7828 95.2881 77.8343C94.9222 76.8853 95.3932 75.8183 96.3417 75.4524C97.2906 75.0861 98.3577 75.5571 98.7236 76.5056Z" fill="url(#paint9_linear_4415_4240)" />
  <path d="M71.0547 70.6308L66.2593 72.4859C65.8727 72.6355 65.6805 73.0703 65.8301 73.4569L66.945 76.3388C67.0945 76.7254 67.5293 76.9178 67.9159 76.7682L72.7111 74.9127C73.0981 74.7634 73.2901 74.3287 73.1405 73.9421L72.0256 71.0602C71.876 70.6734 71.4412 70.4813 71.0547 70.6308Z" fill="url(#paint10_linear_4415_4240)" />
  <path d="M92.8797 64.8851L90.0757 65.9691C89.4268 66.2183 88.6986 65.8967 88.4475 65.2483C88.1986 64.5993 88.5199 63.8709 89.1685 63.6201L91.9721 62.5362C92.6207 62.2854 93.3497 62.6085 93.6004 63.257C93.8497 63.906 93.5279 64.6343 92.8797 64.8851Z" fill="white" />
  <path d="M68.4967 81.0266L68.3008 81.274C68.3008 81.274 68.2846 81.2918 68.2729 81.2961C68.2496 81.3052 68.2244 81.2994 68.208 81.2867C68.1768 81.2603 68.1727 81.2197 68.1987 81.1925L68.4644 80.8476C68.487 80.8215 68.5326 80.8157 68.5585 80.8382C68.5726 80.8501 68.58 80.8642 68.5847 80.8816L69.2238 82.5316C69.2366 82.565 69.2225 82.603 69.1858 82.6171C69.1524 82.6298 69.1131 82.6124 69.1004 82.5791L68.5001 81.0251L68.4967 81.0266Z" fill="#F8F8F8" />
  <path d="M69.6433 82.3146L70.1888 81.232C70.2531 81.1001 70.2591 80.9563 70.2097 80.8277C70.1675 80.7175 70.0835 80.6237 69.9695 80.5657C69.8409 80.5005 69.6943 80.4972 69.5698 80.5469C69.4563 80.5907 69.3609 80.6712 69.3016 80.786L69.2455 80.8994C69.2301 80.9338 69.1878 80.9483 69.1582 80.9309C69.1235 80.9154 69.1092 80.8733 69.1265 80.8436L69.1819 80.7284C69.2569 80.5849 69.3805 80.478 69.5224 80.4237C69.6792 80.3632 69.8608 80.3625 70.0282 80.4494C70.1768 80.5226 70.2807 80.6436 70.3338 80.782C70.3947 80.9407 70.3928 81.1251 70.3098 81.2929L69.8427 82.2208L70.6937 81.894C70.7264 81.8795 70.765 81.8954 70.7791 81.932C70.7919 81.9654 70.7745 82.0049 70.7411 82.0175L69.7396 82.4056L69.7296 82.4096C69.7112 82.4168 69.6909 82.4186 69.6758 82.4092C69.6416 82.3896 69.6268 82.3512 69.6423 82.3168L69.6433 82.3146Z" fill="#F8F8F8" />
  <path d="M71.6381 79.7339L71.3584 80.3908C71.4805 80.3709 71.6095 80.3825 71.7297 80.4361C71.8935 80.5089 72.0138 80.6426 72.0739 80.7995C72.1341 80.9564 72.1359 81.1357 72.0613 81.3002C71.9884 81.4643 71.8551 81.5861 71.6989 81.648C71.5457 81.7067 71.3663 81.7085 71.2017 81.6339C71.1678 81.6201 71.1507 81.581 71.1672 81.5441C71.1803 81.5082 71.2203 81.493 71.2573 81.5093C71.3877 81.5647 71.5272 81.5647 71.6508 81.5172C71.7743 81.4698 71.8797 81.3756 71.9392 81.2459C71.9975 81.114 71.9953 80.9734 71.9479 80.8498C71.9004 80.7263 71.8066 80.6209 71.6761 80.5658C71.546 80.5064 71.4055 80.5089 71.2819 80.556C71.262 80.564 71.2395 80.5607 71.2205 80.5509L71.2172 80.5524C71.1809 80.5375 71.1649 80.4959 71.182 80.4604L71.4508 79.8288L70.7616 80.0933C70.7255 80.1093 70.6863 80.0919 70.6729 80.0567C70.6588 80.0201 70.6762 79.9806 70.7113 79.9672L71.5522 79.6444C71.5881 79.6288 71.6276 79.6462 71.641 79.6814C71.645 79.6912 71.6453 79.7027 71.6435 79.7129C71.6435 79.7223 71.641 79.731 71.6377 79.7379L71.6381 79.7339Z" fill="#F8F8F8" />
  <path d="M73.6548 80.4642L72.6819 80.8414L72.6736 80.8446C72.6602 80.8497 72.6439 80.8522 72.6301 80.8461C72.5939 80.837 72.5747 80.7964 72.5885 80.7624L73.1279 79.066L73.1298 79.0613C73.1424 79.024 73.1761 79.0073 73.2135 79.0196C73.2265 79.0243 73.2363 79.0341 73.245 79.0421C73.2468 79.0472 73.2515 79.049 73.2522 79.0508L73.2555 79.0591L73.7319 80.291L73.8522 80.2446C73.8888 80.2309 73.9283 80.2483 73.941 80.2816C73.9537 80.3149 73.9363 80.3541 73.9011 80.3675L73.7812 80.4138L73.8997 80.7225C73.9124 80.7559 73.895 80.795 73.8598 80.8084C73.8265 80.8214 73.7874 80.8037 73.7743 80.7704L73.6558 80.4617L73.6548 80.4642ZM73.6077 80.3406L73.2 79.2892L72.758 80.6707L73.6087 80.3439L73.6077 80.3406Z" fill="#F8F8F8" />
  <path d="M75.9801 79.7855C75.9438 79.7707 75.9279 79.729 75.9456 79.6953C75.9612 79.6609 76.0022 79.6431 76.0373 79.6602C76.1677 79.7156 76.3076 79.7156 76.4308 79.6681C76.5543 79.6207 76.6565 79.5279 76.7152 79.3964C76.7739 79.2645 76.7721 79.1254 76.7246 79.0022C76.6768 78.8768 76.5826 78.7714 76.4533 78.7138C76.3246 78.658 76.1833 78.6587 76.0598 78.7058C75.9344 78.754 75.8308 78.8475 75.7721 78.979C75.7565 79.0138 75.7148 79.0297 75.6819 79.0138C75.6717 79.012 75.6634 79.0055 75.6594 78.9993L75.658 78.996C75.658 78.996 75.6529 78.9924 75.6514 78.9892C75.6464 78.9852 75.6431 78.9768 75.6406 78.9703C75.6391 78.9671 75.6388 78.9613 75.6369 78.9562L75.4435 78.1979C75.4359 78.1779 75.4395 78.1573 75.4507 78.1417C75.4569 78.1276 75.4699 78.1171 75.4866 78.1105L76.3243 77.7892C76.3601 77.7732 76.3993 77.7906 76.413 77.8258C76.4275 77.8642 76.4094 77.9018 76.3746 77.9152L75.5902 78.2163L75.733 78.7779C75.8036 78.6873 75.8978 78.6189 76.0065 78.5772C76.1634 78.5171 76.338 78.5131 76.5047 78.5888C76.6721 78.6605 76.7877 78.7921 76.8493 78.9522C76.908 79.1058 76.9145 79.2873 76.838 79.4526C76.7645 79.6145 76.6297 79.7373 76.4746 79.7968C76.3177 79.8569 76.1384 79.8587 75.9746 79.7859L75.9801 79.7855Z" fill="#F8F8F8" />
  <path d="M77.2176 77.8956C77.2575 77.6296 77.402 77.3883 77.6962 77.2619C77.7285 77.2459 77.7676 77.2633 77.7839 77.2956C77.7977 77.3321 77.7803 77.3713 77.7477 77.3858C77.4995 77.4927 77.3912 77.6836 77.3491 77.914C77.3278 78.0427 77.3365 78.185 77.3607 78.3231C77.422 78.1579 77.5495 78.0169 77.7267 77.9492C78.0586 77.8216 78.4256 77.985 78.5513 78.3122C78.6774 78.6408 78.5155 79.0071 78.1857 79.1358C77.864 79.2593 77.5046 79.1064 77.3705 78.7923C77.351 78.7557 77.3361 78.7173 77.3202 78.6756C77.2303 78.4365 77.1781 78.1557 77.2194 77.8948L77.2176 77.8956ZM77.4919 78.734C77.497 78.7474 77.5042 78.7561 77.5097 78.7655C77.5129 78.7738 77.5147 78.7789 77.5133 78.785C77.6328 79.0017 77.8991 79.1021 78.1347 79.0119C78.3966 78.9115 78.5252 78.6187 78.4267 78.3619C78.3281 78.105 78.0354 77.976 77.7734 78.0767C77.5165 78.1753 77.3876 78.4677 77.4865 78.7249L77.4901 78.7347L77.4919 78.734Z" fill="#F8F8F8" />
  <path d="M79.3995 78.5684L79.4539 76.7347L78.5843 77.0684C78.5517 77.0825 78.5129 77.0669 78.5002 77.0336C78.4876 77.0002 78.505 76.9607 78.5383 76.9481L79.4894 76.5829C79.5006 76.5727 79.5126 76.5684 79.5278 76.5684C79.5459 76.5709 79.5651 76.5807 79.576 76.5937C79.5825 76.601 79.5861 76.6053 79.5887 76.6118C79.5937 76.6252 79.5941 76.6365 79.5912 76.6492L79.535 78.5716C79.5339 78.5988 79.5162 78.6231 79.493 78.6318C79.4829 78.6358 79.4778 78.6376 79.4658 78.6365C79.4292 78.6354 79.3995 78.6028 79.3977 78.5687L79.3995 78.5684Z" fill="#F8F8F8" />
  <path d="M80.5123 76.1692C80.7177 76.0906 80.9518 76.192 81.0308 76.3971C81.0786 76.5224 81.0587 76.6543 80.9938 76.7598C81.2406 76.7645 81.4714 76.917 81.5645 77.159C81.6888 77.4826 81.5301 77.8424 81.2069 77.9681C80.8848 78.092 80.5235 77.9337 80.3978 77.6108C80.3047 77.3688 80.3728 77.1014 80.5489 76.9326C80.4326 76.8985 80.3308 76.8134 80.283 76.688C80.204 76.4829 80.3029 76.2514 80.5116 76.1714L80.5123 76.1692ZM81.1605 77.8424C81.4174 77.7438 81.5398 77.4594 81.4427 77.2058C81.346 76.954 81.063 76.825 80.8058 76.9239C80.5522 77.021 80.4272 77.3083 80.5239 77.5605C80.6217 77.8156 80.9069 77.9398 81.1605 77.8424ZM80.7551 76.796C80.892 76.7395 80.9619 76.5826 80.909 76.4438C80.8558 76.3054 80.7 76.2387 80.5616 76.292C80.4232 76.3453 80.3558 76.4993 80.409 76.6377C80.4623 76.7761 80.6174 76.8467 80.7565 76.7953L80.7551 76.796Z" fill="#F8F8F8" />
  <path d="M83.7056 74.9342C84.0143 74.8157 84.3516 74.9469 84.4983 75.2291C84.5034 75.2331 84.5049 75.2364 84.5085 75.2407C84.5302 75.2878 84.552 75.3389 84.5723 75.3922C84.6639 75.631 84.7157 75.9154 84.6777 76.1752C84.636 76.436 84.49 76.6835 84.1991 76.8085L84.1958 76.8099C84.1592 76.8241 84.1212 76.8099 84.1081 76.7766C84.0944 76.7397 84.1089 76.7034 84.1444 76.686C84.3886 76.5788 84.5045 76.3871 84.5429 76.1578C84.5628 76.0259 84.5589 75.8857 84.5313 75.7487C84.4701 75.9139 84.3404 76.0498 84.1603 76.119C83.8331 76.2444 83.4665 76.0868 83.3371 75.7552C83.2118 75.4284 83.3752 75.061 83.7023 74.9357L83.7056 74.9342ZM84.4038 75.3422C84.3052 75.0853 84.0154 74.9589 83.7534 75.0596C83.4965 75.1581 83.3672 75.4491 83.465 75.7045C83.5657 75.9665 83.8563 76.09 84.1132 75.9915C84.3752 75.8911 84.5045 75.6041 84.402 75.3425L84.4038 75.3422Z" fill="#F8F8F8" />
  <path d="M85.1077 75.4265C85.015 75.1848 84.9903 74.9413 85.036 74.7305C85.0845 74.5283 85.199 74.358 85.3809 74.2881C85.5628 74.2182 85.7635 74.2674 85.9345 74.3837C86.107 74.5091 86.2584 74.7037 86.353 74.945C86.4458 75.1866 86.4653 75.4319 86.42 75.6388C86.3722 75.8428 86.2581 76.0149 86.0762 76.0848C85.8943 76.1544 85.6936 76.1051 85.5215 75.9855C85.3487 75.8645 85.2001 75.6671 85.107 75.425L85.1077 75.4265ZM85.2327 75.3787C85.3175 75.599 85.4537 75.7743 85.6005 75.8769C85.7461 75.9779 85.8998 76.0091 86.0284 75.9595C86.1566 75.9102 86.2461 75.7841 86.2889 75.6109C86.3273 75.437 86.3128 75.2149 86.2284 74.9946C86.144 74.7743 86.0041 74.6 85.8592 74.4968C85.7099 74.3917 85.5599 74.3649 85.4313 74.4142C85.3026 74.4634 85.2081 74.5859 85.1708 74.7631C85.1324 74.9366 85.1501 75.1577 85.2353 75.3798L85.2327 75.3787Z" fill="#F8F8F8" />
  <path d="M86.9049 73.9072L86.7092 74.1551C86.7092 74.1551 86.6929 74.1725 86.6813 74.1772C86.6578 74.1862 86.6328 74.1804 86.6161 74.1677C86.585 74.1413 86.581 74.1007 86.6071 74.0735L86.8726 73.7283C86.8955 73.7025 86.9408 73.6964 86.9668 73.7192C86.981 73.7308 86.9882 73.7453 86.9929 73.7627L87.6321 75.4123C87.6447 75.446 87.6306 75.4837 87.594 75.4978C87.5607 75.5109 87.5216 75.4931 87.5085 75.4598L86.9085 73.9062L86.9049 73.9072Z" fill="#F8F8F8" />
  <path d="M88.0517 75.1931L88.597 74.1109C88.6615 73.979 88.6673 73.8348 88.618 73.7065C88.5757 73.5964 88.492 73.5022 88.3778 73.4445C88.2492 73.379 88.1025 73.3761 87.9782 73.4257C87.8648 73.4692 87.7699 73.5514 87.7097 73.6645L87.6539 73.7779C87.6383 73.8127 87.5959 73.8268 87.5666 73.8094C87.5318 73.7942 87.5173 73.7518 87.5347 73.7221L87.5901 73.6072C87.6651 73.4634 87.7887 73.3565 87.93 73.3003C88.0869 73.2402 88.2684 73.2395 88.4358 73.3264C88.5844 73.3996 88.6883 73.5206 88.7416 73.659C88.8025 73.8174 88.8003 74.0022 88.7173 74.1699L88.2503 75.0978L89.1014 74.771C89.134 74.7565 89.1735 74.7739 89.1869 74.809C89.1996 74.8424 89.1822 74.8815 89.1488 74.8945L88.1474 75.2826L88.1372 75.2866C88.1188 75.2935 88.0985 75.2956 88.0836 75.2862C88.0492 75.2666 88.0344 75.2282 88.0499 75.1938L88.0517 75.1931Z" fill="#F8F8F8" />
  <path d="M91.5836 72.0171L91.3035 72.6744C91.426 72.6541 91.555 72.6657 91.6749 72.7193C91.839 72.7921 91.9593 72.9258 92.0195 73.0827C92.0796 73.2396 92.0814 73.4189 92.0068 73.5834C91.9336 73.7475 91.8006 73.8693 91.6459 73.9305C91.4926 73.9896 91.3115 73.9921 91.147 73.9175C91.1129 73.9037 91.0959 73.8642 91.1126 73.8273C91.1263 73.7932 91.1655 73.7762 91.2024 73.7925C91.3329 73.8479 91.4727 73.8479 91.5963 73.8004C91.7195 73.753 91.8253 73.6588 91.8843 73.5291C91.943 73.3975 91.9405 73.2566 91.8934 73.133C91.8459 73.0099 91.7517 72.9041 91.6213 72.849C91.4916 72.7896 91.3506 72.7921 91.2271 72.8396C91.2071 72.8472 91.185 72.8443 91.1658 72.8341L91.1626 72.8356C91.1263 72.8207 91.11 72.7791 91.1274 72.7436L91.3959 72.1124L90.7068 72.3769C90.6709 72.3925 90.6318 72.3751 90.618 72.3399C90.6042 72.3033 90.6216 72.2638 90.6564 72.2504L91.4974 71.9276C91.5336 71.912 91.5727 71.9294 91.5861 71.9646C91.5901 71.9747 91.5905 71.9859 91.5887 71.9961C91.5887 72.0059 91.5861 72.0142 91.5832 72.0211L91.5836 72.0171Z" fill="#F8F8F8" />
  <path d="M93.6008 72.7487L92.6265 73.123L92.6236 73.1259L92.6189 73.1277C92.6055 73.1327 92.5899 73.1371 92.5754 73.1291C92.5392 73.1201 92.52 73.0795 92.5338 73.0454L93.0733 71.349L93.0751 71.3443C93.0877 71.307 93.1214 71.2903 93.1588 71.303C93.1718 71.3074 93.1816 71.3172 93.1903 71.3251C93.1921 71.3302 93.1954 71.3327 93.1975 71.3338L93.2008 71.3422L93.6772 72.574L93.7975 72.528C93.8341 72.5139 93.8736 72.5313 93.8863 72.5646C93.899 72.598 93.8816 72.6375 93.8464 72.6509L93.7265 72.6969L93.845 73.0056C93.8577 73.0389 93.8403 73.078 93.8051 73.0914C93.7718 73.1045 93.7327 73.0871 93.7196 73.0534L93.6012 72.7447L93.6008 72.7487ZM93.5533 72.6255L93.1461 71.5737L92.7037 72.9552L93.5548 72.6288L93.5533 72.6255Z" fill="#F8F8F8" />
  <path d="M94.3883 72.6646C94.352 72.6497 94.3361 72.6081 94.3538 72.5744C94.3691 72.5399 94.4111 72.5236 94.4455 72.5392C94.576 72.5943 94.7154 72.5943 94.839 72.5472C94.9625 72.4997 95.0647 72.407 95.1234 72.2751C95.1821 72.1436 95.1803 72.0044 95.1328 71.8809C95.0847 71.7559 94.9908 71.6504 94.8615 71.5928C94.7321 71.5352 94.5912 71.5374 94.468 71.5849C94.3426 71.6331 94.239 71.7265 94.1803 71.8581C94.1647 71.8928 94.1238 71.9102 94.0901 71.8925C94.0799 71.8907 94.0716 71.8845 94.0676 71.8783L94.0662 71.8751C94.0662 71.8751 94.0611 71.8715 94.0596 71.8678C94.0542 71.8642 94.0513 71.8559 94.0488 71.8494C94.0473 71.8457 94.047 71.8403 94.0452 71.8352L93.8517 71.0769C93.8441 71.0566 93.8477 71.0363 93.8589 71.0204C93.8651 71.0066 93.8781 70.9957 93.8948 70.9896L94.7321 70.6679C94.7683 70.6522 94.8075 70.6696 94.8209 70.7047C94.8357 70.7432 94.8176 70.7805 94.7825 70.7939L93.9984 71.095L94.1412 71.6566C94.2125 71.5682 94.306 71.4975 94.4147 71.4562C94.5712 71.3957 94.7459 71.3921 94.9129 71.4678C95.0803 71.5396 95.1959 71.6711 95.2575 71.8312C95.3162 71.9849 95.3227 72.166 95.2462 72.3312C95.1727 72.4936 95.0379 72.616 94.8828 72.6758C94.726 72.736 94.5466 72.7378 94.3828 72.6649L94.3883 72.6646Z" fill="#F8F8F8" />
  <path d="M95.6241 70.7746C95.6639 70.5085 95.8078 70.2655 96.1027 70.1409C96.1349 70.1247 96.1741 70.1422 96.19 70.1743C96.2041 70.211 96.1868 70.2502 96.1541 70.2647C95.9067 70.3731 95.7973 70.5625 95.7556 70.793C95.7342 70.9217 95.7429 71.0637 95.7672 71.2021C95.8284 71.0369 95.956 70.8959 96.1328 70.8282C96.465 70.7006 96.832 70.864 96.9578 71.1909C97.0839 71.5198 96.9219 71.8862 96.5922 72.0148C96.2701 72.1383 95.911 71.9854 95.777 71.6709C95.757 71.6347 95.7426 71.5963 95.7266 71.5546C95.6364 71.3151 95.5842 71.0347 95.6259 70.7738L95.6241 70.7746ZM95.8983 71.613C95.9034 71.6264 95.9107 71.6351 95.9161 71.6445C95.9194 71.6528 95.9212 71.6579 95.9197 71.664C96.0393 71.8804 96.3056 71.9811 96.5407 71.8909C96.8027 71.7901 96.9317 71.4977 96.8331 71.2409C96.7346 70.9836 96.4418 70.855 96.1799 70.9554C95.923 71.0543 95.794 71.3467 95.8925 71.6035L95.8965 71.6137L95.8983 71.613Z" fill="#F8F8F8" />
  <path d="M86.214 79.5742L70.541 85.6376L70.8389 86.4076L86.5118 80.3441L86.214 79.5742Z" fill="url(#paint11_linear_4415_4240)" />
  <path d="M82.2991 83.0566L71.2031 87.3494L71.5009 88.1197L82.5969 83.8269L82.2991 83.0566Z" fill="url(#paint12_linear_4415_4240)" />
  <path d="M86.5305 64.6412L79.4848 67.3669C79.2721 67.4492 79.1664 67.6883 79.2486 67.9009C79.3308 68.1136 79.57 68.2193 79.7827 68.137L86.8283 65.4113C87.041 65.329 87.1464 65.0899 87.0642 64.8773C86.9819 64.6646 86.7428 64.5589 86.5305 64.6412Z" fill="#3B3B3B" />
  <path d="M99.4428 84.3145L62.7207 91.4529L65.5784 106.154L102.301 99.0163L99.4428 84.3145Z" fill="url(#paint13_linear_4415_4240)" />
  <path opacity="0.2" d="M99.4428 84.3145L62.7207 91.4529L65.5784 106.154L102.301 99.0163L99.4428 84.3145Z" fill="black" />
  <path d="M102.834 107.814L66.6544 109.645C64.8529 109.737 63.2588 108.489 62.9146 106.718L57.7065 79.9246C57.5836 79.2923 58.2333 78.7898 58.8144 79.0677C59.4888 79.3898 60.2381 79.5264 60.985 79.4634L93.4864 76.6833C95.3317 76.5253 96.9987 77.784 97.352 79.6018L102.836 107.812C102.836 107.813 102.835 107.814 102.834 107.814Z" fill="url(#paint14_linear_4415_4240)" />
  <path d="M95.1493 94.62C95.9913 94.4565 96.5228 93.546 96.3362 92.587C96.15 91.6279 95.3163 90.983 94.4743 91.1464C93.6322 91.3102 93.1007 92.2203 93.2873 93.1797C93.4739 94.1388 94.3076 94.7837 95.1493 94.62Z" fill="#EBEBEB" />
  <path d="M95.5206 92.7455C95.6072 93.1911 95.3601 93.6143 94.9688 93.69C94.5775 93.7661 94.1898 93.4665 94.1032 93.0208C94.0166 92.5755 94.2637 92.1523 94.655 92.0763C95.0463 92.0002 95.434 92.2998 95.5206 92.7455Z" fill="#DBDBDB" />
  <defs>
    <filter id="filter0_f_4415_4240" x="0.564453" y="0.0644531" width="168.869" height="168.869" filterUnits="userSpaceOnUse" color-interpolation-filters="sRGB">
      <feFlood flood-opacity="0" result="BackgroundImageFix" />
      <feBlend mode="normal" in="SourceGraphic" in2="BackgroundImageFix" result="shape" />
      <feGaussianBlur stdDeviation="27" result="effect1_foregroundBlur_4415_4240" />
    </filter>
    <linearGradient id="paint0_linear_4415_4240" x1="54.9584" y1="42.834" x2="118.56" y2="56.0735" gradientUnits="userSpaceOnUse">
      <stop stop-color="#A259FF" />
      <stop offset="1" stop-color="#3B3B3B" />
    </linearGradient>
    <linearGradient id="paint1_linear_4415_4240" x1="64.4195" y1="54.0645" x2="123.281" y2="65.4163" gradientUnits="userSpaceOnUse">
      <stop stop-color="#A259FF" stop-opacity="0" />
      <stop offset="1" stop-color="#FF6250" />
    </linearGradient>
    <linearGradient id="paint2_linear_4415_4240" x1="116.771" y1="113.896" x2="122.108" y2="118.087" gradientUnits="userSpaceOnUse">
      <stop stop-color="#A259FF" />
      <stop offset="1" stop-color="#377DF7" />
    </linearGradient>
    <linearGradient id="paint3_linear_4415_4240" x1="56.1573" y1="119.835" x2="55.979" y2="125.145" gradientUnits="userSpaceOnUse">
      <stop stop-color="#A259FF" />
      <stop offset="1" stop-color="#377DF7" />
    </linearGradient>
    <linearGradient id="paint4_linear_4415_4240" x1="118.741" y1="58.8689" x2="124.046" y2="58.5647" gradientUnits="userSpaceOnUse">
      <stop stop-color="#A259FF" />
      <stop offset="1" stop-color="#377DF7" />
    </linearGradient>
    <linearGradient id="paint5_linear_4415_4240" x1="98.6058" y1="83.075" x2="111.686" y2="85.3366" gradientUnits="userSpaceOnUse">
      <stop stop-color="#A259FF" />
      <stop offset="1" stop-color="#3B3B3B" />
    </linearGradient>
    <linearGradient id="paint6_linear_4415_4240" x1="89.9992" y1="115.983" x2="75.8692" y2="88.235" gradientUnits="userSpaceOnUse">
      <stop stop-color="#A259FF" />
      <stop offset="1" stop-color="#3B3B3B" />
    </linearGradient>
    <linearGradient id="paint7_linear_4415_4240" x1="66.889" y1="68.5224" x2="100.918" y2="65.5831" gradientUnits="userSpaceOnUse">
      <stop stop-color="#A259FF" />
      <stop offset="1" stop-color="#FF6250" />
    </linearGradient>
    <linearGradient id="paint8_linear_4415_4240" x1="93.0699" y1="76.7155" x2="96.6417" y2="76.0803" gradientUnits="userSpaceOnUse">
      <stop stop-color="#A259FF" />
      <stop offset="1" stop-color="#FF6250" />
    </linearGradient>
    <linearGradient id="paint9_linear_4415_4240" x1="95.1834" y1="75.8969" x2="98.7548" y2="75.2618" gradientUnits="userSpaceOnUse">
      <stop stop-color="#A259FF" />
      <stop offset="1" stop-color="#3B3B3B" />
    </linearGradient>
    <linearGradient id="paint10_linear_4415_4240" x1="66.5623" y1="72.3689" x2="72.9499" y2="71.7471" gradientUnits="userSpaceOnUse">
      <stop stop-color="#A259FF" />
      <stop offset="1" stop-color="#3B3B3B" />
    </linearGradient>
    <linearGradient id="paint11_linear_4415_4240" x1="73.0784" y1="84.6557" x2="75.4915" y2="88.046" gradientUnits="userSpaceOnUse">
      <stop stop-color="#A259FF" />
      <stop offset="1" stop-color="#FF6250" />
    </linearGradient>
    <linearGradient id="paint12_linear_4415_4240" x1="72.9995" y1="86.6545" x2="75.6473" y2="89.7066" gradientUnits="userSpaceOnUse">
      <stop stop-color="#A259FF" />
      <stop offset="1" stop-color="#FF6250" />
    </linearGradient>
    <linearGradient id="paint13_linear_4415_4240" x1="68.6662" y1="90.2971" x2="101.359" y2="98.8869" gradientUnits="userSpaceOnUse">
      <stop stop-color="#A259FF" />
      <stop offset="1" stop-color="#3B3B3B" />
    </linearGradient>
    <linearGradient id="paint14_linear_4415_4240" x1="93.0777" y1="98.8902" x2="36.4423" y2="71.709" gradientUnits="userSpaceOnUse">
      <stop stop-color="#A259FF" />
      <stop offset="0.666667" stop-color="white" />
    </linearGradient>
  </defs>
</symbol>

<symbol id="hiw-svg-2" viewBox="0 0 170 170">
  <path d="M85.0006 126.667C108.013 126.667 126.667 108.013 126.667 85.0006C126.667 61.9888 108.013 43.334 85.0006 43.334C61.9888 43.334 43.334 61.9888 43.334 85.0006C43.334 108.013 61.9888 126.667 85.0006 126.667Z" fill="url(#paint0_linear_4415_4288)" />
  <g filter="url(#filter0_f_4415_4288)">
    <path d="M84.9992 115.434C101.808 115.434 115.434 101.808 115.434 84.9992C115.434 68.1906 101.808 54.5645 84.9992 54.5645C68.1906 54.5645 54.5645 68.1906 54.5645 84.9992C54.5645 101.808 68.1906 115.434 84.9992 115.434Z" fill="url(#paint1_linear_4415_4288)" />
  </g>
  <path fill-rule="evenodd" clip-rule="evenodd" d="M65.1073 53.6878C65.8044 53.6878 66.3695 53.1227 66.3695 52.4256C66.3695 51.7286 65.8044 51.1635 65.1073 51.1635C64.4102 51.1635 63.8451 51.7286 63.8451 52.4256C63.8451 53.1227 64.4102 53.6878 65.1073 53.6878ZM65.1073 54.6345C66.3272 54.6345 67.3162 53.6456 67.3162 52.4256C67.3162 51.2057 66.3272 50.2168 65.1073 50.2168C63.8874 50.2168 62.8984 51.2057 62.8984 52.4256C62.8984 53.6456 63.8874 54.6345 65.1073 54.6345Z" fill="white" />
  <path fill-rule="evenodd" clip-rule="evenodd" d="M53.5135 106.95C54.2106 106.95 54.7757 106.384 54.7757 105.687C54.7757 104.99 54.2106 104.425 53.5135 104.425C52.8165 104.425 52.2514 104.99 52.2514 105.687C52.2514 106.384 52.8165 106.95 53.5135 106.95ZM53.5135 107.896C54.7335 107.896 55.7224 106.907 55.7224 105.687C55.7224 104.467 54.7335 103.479 53.5135 103.479C52.2936 103.479 51.3047 104.467 51.3047 105.687C51.3047 106.907 52.2936 107.896 53.5135 107.896Z" fill="white" />
  <path fill-rule="evenodd" clip-rule="evenodd" d="M116.92 71.4417C117.617 71.4417 118.182 70.8766 118.182 70.1795C118.182 69.4825 117.617 68.9174 116.92 68.9174C116.223 68.9174 115.658 69.4825 115.658 70.1795C115.658 70.8766 116.223 71.4417 116.92 71.4417ZM116.92 72.3885C118.14 72.3885 119.129 71.3993 119.129 70.1795C119.129 68.9597 118.14 67.9707 116.92 67.9707C115.7 67.9707 114.711 68.9597 114.711 70.1795C114.711 71.3993 115.7 72.3885 116.92 72.3885Z" fill="white" />
  <path d="M50.7221 53.9095C50.8149 53.5249 51.362 53.5249 51.4548 53.9095L51.7673 55.204C51.8005 55.3414 51.9078 55.4487 52.0452 55.4819L53.3396 55.7944C53.7242 55.8872 53.7242 56.4343 53.3396 56.5271L52.0452 56.8395C51.9078 56.8727 51.8005 56.98 51.7673 57.1175L51.4548 58.4119C51.362 58.7965 50.8149 58.7965 50.7221 58.4119L50.4096 57.1175C50.3764 56.98 50.2692 56.8727 50.1317 56.8395L48.8373 56.5271C48.4527 56.4343 48.4527 55.8872 48.8373 55.7944L50.1317 55.4819C50.2692 55.4487 50.3764 55.3414 50.4096 55.204L50.7221 53.9095Z" fill="white" />
  <path d="M118.078 53.6931C118.179 53.2716 118.779 53.2716 118.881 53.6931L119.223 55.112C119.26 55.2626 119.377 55.3803 119.528 55.4166L120.946 55.7591C121.368 55.8609 121.368 56.4605 120.946 56.5623L119.528 56.9048C119.377 56.9412 119.26 57.0588 119.223 57.2094L118.881 58.6283C118.779 59.0499 118.179 59.0499 118.078 58.6283L117.735 57.2094C117.699 57.0588 117.581 56.9412 117.43 56.9048L116.011 56.5623C115.59 56.4605 115.59 55.8609 116.011 55.7591L117.43 55.4166C117.581 55.3803 117.699 55.2626 117.735 55.112L118.078 53.6931Z" fill="url(#paint2_linear_4415_4288)" />
  <path d="M54.938 115.159C55.4177 115.082 55.8007 115.553 55.6273 116.007L54.4574 119.07C54.2841 119.524 53.6844 119.62 53.378 119.243L51.31 116.698C51.0035 116.321 51.2202 115.754 51.6999 115.677L54.938 115.159Z" fill="url(#paint3_linear_4415_4288)" />
  <path d="M112.528 106.741C112.408 106.27 112.842 105.846 113.31 105.977L116.467 106.865C116.935 106.996 117.085 107.585 116.737 107.924L114.391 110.214C114.043 110.554 113.458 110.389 113.338 109.919L112.528 106.741Z" fill="url(#paint4_linear_4415_4288)" />
  <path d="M101.127 90.7474L72.9942 80.5075C70.8377 79.7227 68.4532 80.8347 67.6683 82.9912L61.0271 101.238C60.2422 103.394 61.3541 105.779 63.5106 106.563L91.6439 116.803C93.8004 117.588 96.1848 116.476 96.9696 114.319L103.611 96.0731C104.396 93.9166 103.284 91.5322 101.127 90.7474Z" fill="url(#paint5_linear_4415_4288)" />
  <path d="M99.9848 96.3983L108.295 84.4277C109.604 82.5425 109.137 79.9534 107.252 78.6447L95.2811 70.3341C93.396 69.0254 90.8069 69.4926 89.4982 71.3777L81.1877 83.3483C79.879 85.2335 80.346 87.8226 82.2311 89.1313L94.2018 97.4418C96.0869 98.7505 98.6761 98.2831 99.9848 96.3983Z" fill="url(#paint6_linear_4415_4288)" />
  <path d="M90.5236 86.872C90.0153 87.5727 89.0385 87.7278 88.3377 87.2191C87.637 86.7108 87.4823 85.7339 87.9907 85.0332C88.4993 84.3325 89.4762 84.1774 90.1769 84.6861C90.8772 85.1948 91.0323 86.1716 90.5236 86.872Z" fill="url(#paint7_linear_4415_4288)" />
  <path d="M95.1473 80.4905L94.1803 79.7891L89.5625 86.1568L90.5295 86.8583L95.1473 80.4905Z" fill="url(#paint8_linear_4415_4288)" />
  <path d="M95.9574 88.0028C95.4487 88.7036 94.4719 88.8586 93.7715 88.3499C93.0708 87.8416 92.9157 86.8648 93.4244 86.1641C93.9327 85.4634 94.9095 85.3083 95.6103 85.817C96.311 86.3257 96.4661 87.3025 95.9574 88.0028Z" fill="url(#paint9_linear_4415_4288)" />
  <path d="M100.592 81.6171L99.6248 80.916L95.0078 87.2845L95.9752 87.9856L100.592 81.6171Z" fill="url(#paint10_linear_4415_4288)" />
  <path d="M100.579 81.6343L93.5664 80.6416L94.1823 79.7891L101.194 80.7851L100.579 81.6343Z" fill="url(#paint11_linear_4415_4288)" />
  <path d="M99.415 83.2379L92.4023 82.2451L93.0183 81.3926L100.033 82.3897L99.415 83.2379Z" fill="url(#paint12_linear_4415_4288)" />
  <path d="M93.8311 69.9024L91.3975 58.6271C90.9134 56.3839 88.7022 54.9579 86.459 55.4421L71.7148 58.6245C69.4717 59.1086 68.0458 61.3196 68.53 63.5629L70.9637 74.8382C71.4478 77.0813 73.6587 78.5074 75.9022 78.0233L90.646 74.8407C92.8895 74.3567 94.3152 72.1458 93.8311 69.9024Z" fill="url(#paint13_linear_4415_4288)" />
  <path d="M93.6382 68.7434L85.3734 62.1074L82.1781 68.4068L78.8121 66.4663L74.1585 72.9442L70.668 73.6964L70.8342 74.4776C71.3951 77.0707 73.9505 78.7203 76.5437 78.1591L90.1187 75.2297C92.7118 74.6689 94.3614 72.1134 93.8002 69.5204L93.6342 68.7434H93.6382Z" fill="url(#paint14_linear_4415_4288)" />
  <path opacity="0.9" d="M74.0753 65.7144C75.3677 65.6812 76.2028 64.3847 75.6999 63.1963C75.4173 62.5315 74.7402 62.0952 74.017 62.1118C72.7249 62.145 71.8894 63.4415 72.3923 64.6299C72.6749 65.2947 73.3521 65.731 74.0753 65.7144Z" fill="white" />
  <path d="M96.5331 113.652C95.9581 116.07 93.4042 117.446 91.0694 116.596L62.9886 106.375C61.0062 105.654 59.8791 103.561 60.3674 101.509L64.355 84.7463C64.9301 82.3289 67.4838 80.9532 69.8187 81.8032L97.8995 92.0238C99.8817 92.7452 101.009 94.8376 100.521 96.8901L96.5331 113.652Z" fill="url(#paint15_linear_4415_4288)" />
  <defs>
    <filter id="filter0_f_4415_4288" x="0.564453" y="0.564453" width="168.869" height="168.869" filterUnits="userSpaceOnUse" color-interpolation-filters="sRGB">
      <feFlood flood-opacity="0" result="BackgroundImageFix" />
      <feBlend mode="normal" in="SourceGraphic" in2="BackgroundImageFix" result="shape" />
      <feGaussianBlur stdDeviation="27" result="effect1_foregroundBlur_4415_4288" />
    </filter>
    <linearGradient id="paint0_linear_4415_4288" x1="54.9584" y1="43.334" x2="118.56" y2="56.5735" gradientUnits="userSpaceOnUse">
      <stop stop-color="#A259FF" />
      <stop offset="1" stop-color="#3B3B3B" />
    </linearGradient>
    <linearGradient id="paint1_linear_4415_4288" x1="120.144" y1="90.0717" x2="97.4971" y2="129.109" gradientUnits="userSpaceOnUse">
      <stop stop-color="#A259FF" stop-opacity="0" />
      <stop offset="1" stop-color="#FF6250" />
    </linearGradient>
    <linearGradient id="paint2_linear_4415_4288" x1="119.669" y1="54.6142" x2="125.006" y2="58.8061" gradientUnits="userSpaceOnUse">
      <stop stop-color="#A259FF" />
      <stop offset="1" stop-color="#377DF7" />
    </linearGradient>
    <linearGradient id="paint3_linear_4415_4288" x1="55.4327" y1="116.712" x2="55.2544" y2="122.022" gradientUnits="userSpaceOnUse">
      <stop stop-color="#A259FF" />
      <stop offset="1" stop-color="#377DF7" />
    </linearGradient>
    <linearGradient id="paint4_linear_4415_4288" x1="114.031" y1="106.107" x2="119.335" y2="105.803" gradientUnits="userSpaceOnUse">
      <stop stop-color="#A259FF" />
      <stop offset="1" stop-color="#377DF7" />
    </linearGradient>
    <linearGradient id="paint5_linear_4415_4288" x1="92.6377" y1="94.2144" x2="108.158" y2="131.307" gradientUnits="userSpaceOnUse">
      <stop stop-color="#A259FF" />
      <stop offset="0.416667" stop-color="#A259FF" stop-opacity="0" />
    </linearGradient>
    <linearGradient id="paint6_linear_4415_4288" x1="97.1728" y1="91.5317" x2="70.5111" y2="99.7248" gradientUnits="userSpaceOnUse">
      <stop stop-color="#FF7262" />
      <stop offset="0.317708" stop-color="#A259FF" />
    </linearGradient>
    <linearGradient id="paint7_linear_4415_4288" x1="92.9816" y1="79.6205" x2="95.9367" y2="85.8448" gradientUnits="userSpaceOnUse">
      <stop stop-color="#3B3B3B" />
      <stop offset="1" stop-color="#A259FF" />
    </linearGradient>
    <linearGradient id="paint8_linear_4415_4288" x1="103.42" y1="68.9329" x2="106.025" y2="71.4905" gradientUnits="userSpaceOnUse">
      <stop stop-color="#3B3B3B" />
      <stop offset="1" stop-color="#A259FF" />
    </linearGradient>
    <linearGradient id="paint9_linear_4415_4288" x1="98.4153" y1="80.7518" x2="101.37" y2="86.9757" gradientUnits="userSpaceOnUse">
      <stop stop-color="#3B3B3B" />
      <stop offset="1" stop-color="#A259FF" />
    </linearGradient>
    <linearGradient id="paint10_linear_4415_4288" x1="108.863" y1="70.058" x2="111.468" y2="72.6153" gradientUnits="userSpaceOnUse">
      <stop stop-color="#3B3B3B" />
      <stop offset="1" stop-color="#A259FF" />
    </linearGradient>
    <linearGradient id="paint11_linear_4415_4288" x1="102.221" y1="76.4017" x2="102.115" y2="83.7235" gradientUnits="userSpaceOnUse">
      <stop stop-color="#3B3B3B" />
      <stop offset="1" stop-color="#A259FF" />
    </linearGradient>
    <linearGradient id="paint12_linear_4415_4288" x1="101.06" y1="78.0064" x2="100.953" y2="85.3281" gradientUnits="userSpaceOnUse">
      <stop stop-color="#3B3B3B" />
      <stop offset="1" stop-color="#A259FF" />
    </linearGradient>
    <linearGradient id="paint13_linear_4415_4288" x1="84.4822" y1="58.5129" x2="89.1873" y2="73.8914" gradientUnits="userSpaceOnUse">
      <stop stop-color="#FF7262" />
      <stop offset="1" stop-color="#A259FF" />
    </linearGradient>
    <linearGradient id="paint14_linear_4415_4288" x1="81.1571" y1="84.2758" x2="76.0462" y2="65.3973" gradientUnits="userSpaceOnUse">
      <stop stop-color="#A259FF" />
      <stop offset="1" stop-color="white" />
    </linearGradient>
    <linearGradient id="paint15_linear_4415_4288" x1="89.8056" y1="108.481" x2="70.2615" y2="58.7547" gradientUnits="userSpaceOnUse">
      <stop stop-color="#A259FF" />
      <stop offset="0.666667" stop-color="white" />
    </linearGradient>
  </defs>
</symbol>

<symbol id="hiw-svg-3" viewBox="0 0 165 164">
  <path d="M80.0006 121.167C103.013 121.167 121.667 102.513 121.667 79.5006C121.667 56.4888 103.013 37.834 80.0006 37.834C56.9888 37.834 38.334 56.4888 38.334 79.5006C38.334 102.513 56.9888 121.167 80.0006 121.167Z" fill="url(#paint0_linear_4415_4315)" />
  <g filter="url(#filter0_f_4415_4315)">
    <path d="M82.5353 109.934C97.9432 109.934 110.434 97.4432 110.434 82.0353C110.434 66.6273 97.9432 54.1367 82.5353 54.1367C67.1273 54.1367 54.6367 66.6273 54.6367 82.0353C54.6367 97.4432 67.1273 109.934 82.5353 109.934Z" fill="url(#paint1_linear_4415_4315)" />
  </g>
  <path fill-rule="evenodd" clip-rule="evenodd" d="M52.4979 62.3187C53.195 62.3187 53.7601 61.7536 53.7601 61.0565C53.7601 60.3594 53.195 59.7943 52.4979 59.7943C51.8008 59.7943 51.2357 60.3594 51.2357 61.0565C51.2357 61.7536 51.8008 62.3187 52.4979 62.3187ZM52.4979 63.2654C53.7178 63.2654 54.7068 62.2764 54.7068 61.0565C54.7068 59.8366 53.7178 58.8477 52.4979 58.8477C51.278 58.8477 50.2891 59.8366 50.2891 61.0565C50.2891 62.2764 51.278 63.2654 52.4979 63.2654Z" fill="white" />
  <path fill-rule="evenodd" clip-rule="evenodd" d="M48.5135 101.45C49.2106 101.45 49.7757 100.884 49.7757 100.187C49.7757 99.4901 49.2106 98.9253 48.5135 98.9253C47.8165 98.9253 47.2514 99.4901 47.2514 100.187C47.2514 100.884 47.8165 101.45 48.5135 101.45ZM48.5135 102.396C49.7335 102.396 50.7224 101.407 50.7224 100.187C50.7224 98.9673 49.7335 97.9785 48.5135 97.9785C47.2936 97.9785 46.3047 98.9673 46.3047 100.187C46.3047 101.407 47.2936 102.396 48.5135 102.396Z" fill="white" />
  <path fill-rule="evenodd" clip-rule="evenodd" d="M107.209 48.1878C107.906 48.1878 108.471 47.6227 108.471 46.9256C108.471 46.2286 107.906 45.6635 107.209 45.6635C106.512 45.6635 105.947 46.2286 105.947 46.9256C105.947 47.6227 106.512 48.1878 107.209 48.1878ZM107.209 49.1345C108.429 49.1345 109.418 48.1456 109.418 46.9256C109.418 45.7057 108.429 44.7168 107.209 44.7168C105.989 44.7168 105 45.7057 105 46.9256C105 48.1456 105.989 49.1345 107.209 49.1345Z" fill="white" />
  <path d="M53.6928 44.7865C53.7856 44.4019 54.3327 44.4019 54.4255 44.7865L54.738 46.0809C54.7712 46.2183 54.8785 46.3257 55.0159 46.3589L56.3103 46.6713C56.6949 46.7641 56.6949 47.3112 56.3103 47.404L55.0159 47.7165C54.8785 47.7497 54.7712 47.857 54.738 47.9944L54.4255 49.2889C54.3327 49.6735 53.7856 49.6735 53.6928 49.2889L53.3803 47.9944C53.3471 47.857 53.2398 47.7497 53.1024 47.7165L51.808 47.404C51.4234 47.3112 51.4234 46.7641 51.808 46.6713L53.1024 46.3589C53.2398 46.3257 53.3471 46.2183 53.3803 46.0809L53.6928 44.7865Z" fill="white" />
  <path d="M111.99 57.9744C112.091 57.5528 112.691 57.5528 112.793 57.9744L113.135 59.3932C113.172 59.5439 113.289 59.6615 113.44 59.6979L114.859 60.0404C115.28 60.1421 115.28 60.7418 114.859 60.8435L113.44 61.186C113.289 61.2224 113.172 61.34 113.135 61.4907L112.793 62.9096C112.691 63.3311 112.091 63.3311 111.99 62.9096L111.647 61.4907C111.611 61.34 111.493 61.2224 111.342 61.186L109.923 60.8435C109.502 60.7418 109.502 60.1421 109.923 60.0404L111.342 59.6979C111.493 59.6615 111.611 59.5439 111.647 59.3932L111.99 57.9744Z" fill="url(#paint2_linear_4415_4315)" />
  <path d="M49.938 109.659C50.4177 109.582 50.8006 110.053 50.6273 110.507L49.4574 113.57C49.2841 114.024 48.6844 114.12 48.378 113.743L46.31 111.198C46.0035 110.821 46.2202 110.254 46.6999 110.177L49.938 109.659Z" fill="url(#paint3_linear_4415_4315)" />
  <path d="M106.442 102.69C106.322 102.219 106.757 101.795 107.224 101.927L110.382 102.814C110.849 102.945 110.999 103.534 110.651 103.873L108.305 106.163C107.957 106.503 107.372 106.338 107.252 105.868L106.442 102.69Z" fill="url(#paint4_linear_4415_4315)" />
  <g filter="url(#filter1_f_4415_4315)">
    <path d="M102.112 111.553C102.112 113.789 91.507 115.601 78.4258 115.601C65.3447 115.601 54.7402 113.789 54.7402 111.553C54.7402 109.318 65.3447 107.506 78.4258 107.506C91.507 107.506 102.112 109.318 102.112 111.553Z" fill="url(#paint5_radial_4415_4315)" />
  </g>
  <g filter="url(#filter2_i_4415_4315)">
    <path d="M78.8866 53.4452L63.4595 56.1653C62.2202 56.3839 61.3927 57.5657 61.6112 58.8051L65.4992 80.8555C65.7178 82.0949 66.8996 82.9225 68.139 82.7036L83.5659 79.9837C84.8054 79.7652 85.6329 78.5833 85.4145 77.3439L81.5264 55.2935C81.3076 54.0542 80.1257 53.2266 78.8866 53.4452Z" fill="url(#paint6_linear_4415_4315)" />
  </g>
  <path d="M79.1089 64.7809L67.125 66.894C66.7214 66.9652 66.452 67.35 66.5231 67.7536L66.5235 67.7559C66.5947 68.1595 66.9795 68.4289 67.383 68.3578L79.3672 66.2447C79.7705 66.1735 80.04 65.7887 79.969 65.3851L79.9687 65.3828C79.8973 64.9792 79.5125 64.7098 79.1089 64.7809Z" fill="url(#paint7_linear_4415_4315)" />
  <path d="M80.9327 75.078L69.0518 77.1729C68.6517 77.2436 68.3833 77.6175 68.4522 78.0084L68.4526 78.011C68.5215 78.4019 68.9018 78.6617 69.3018 78.591L81.1827 76.4961C81.5831 76.4255 81.8512 76.0515 81.7824 75.6606L81.782 75.6581C81.7132 75.2671 81.3327 75.0073 80.9327 75.078Z" fill="url(#paint8_linear_4415_4315)" />
  <path d="M79.9818 69.6912L68.1006 71.7862C67.7005 71.8568 67.4321 72.2307 67.501 72.6217L67.5014 72.6242C67.5703 73.0152 67.9506 73.2749 68.3506 73.2043L80.2318 71.1094C80.6318 71.0387 80.9002 70.6646 80.8314 70.2737L80.831 70.2714C80.7618 69.8804 80.3818 69.6207 79.9818 69.6912Z" fill="url(#paint9_linear_4415_4315)" />
  <path d="M70.1614 58.4946L66.6593 59.1121C65.8836 59.2489 65.3656 59.9886 65.5024 60.7643L65.6737 61.7362C65.8105 62.512 66.5503 63.0299 67.326 62.8931L70.8281 62.2756C71.6037 62.1389 72.1219 61.3991 71.9849 60.6234L71.8135 59.6515C71.6769 58.8758 70.9371 58.3578 70.1614 58.4946Z" fill="#A259FF" />
  <g filter="url(#filter3_i_4415_4315)">
    <path d="M97.2716 59.5273H76.8608C75.9097 59.5273 75.1387 60.2984 75.1387 61.2495V70.8433C75.1387 71.7944 75.9097 72.5654 76.8608 72.5654H97.2716C98.2227 72.5654 98.9937 71.7944 98.9937 70.8433V61.2495C98.9937 60.2984 98.2227 59.5273 97.2716 59.5273Z" fill="url(#paint10_linear_4415_4315)" />
  </g>
  <path d="M80.175 68.0243C81.2685 68.0243 82.1551 67.1378 82.1551 66.0443C82.1551 64.9509 81.2685 64.0645 80.175 64.0645C79.0815 64.0645 78.1953 64.9509 78.1953 66.0443C78.1953 67.1378 79.0815 68.0243 80.175 68.0243Z" fill="white" />
  <path d="M87.2516 68.0243C88.345 68.0243 89.2313 67.1378 89.2313 66.0443C89.2313 64.9509 88.345 64.0645 87.2516 64.0645C86.1581 64.0645 85.2715 64.9509 85.2715 66.0443C85.2715 67.1378 86.1581 68.0243 87.2516 68.0243Z" fill="white" />
  <path d="M94.3277 68.0243C95.4212 68.0243 96.3074 67.1378 96.3074 66.0443C96.3074 64.9509 95.4212 64.0645 94.3277 64.0645C93.2343 64.0645 92.3477 64.9509 92.3477 66.0443C92.3477 67.1378 93.2343 68.0243 94.3277 68.0243Z" fill="white" />
  <path fill-rule="evenodd" clip-rule="evenodd" d="M76.4555 93.9983C76.6266 93.0276 77.5519 92.3798 78.5226 92.5508L88.7179 94.3486C90.111 94.5943 91.37 95.241 92.2624 96.1758C93.1545 97.1099 93.7588 98.4378 93.4997 99.9081C93.2403 101.378 92.2182 102.42 91.061 102.993C89.9026 103.566 88.4979 103.745 87.1045 103.499L62.8791 99.2273C61.9086 99.0563 61.2606 98.1305 61.4317 97.1602C61.6028 96.1896 62.5283 95.5418 63.4988 95.7128L87.7244 99.9845C88.4468 100.112 89.0689 99.9972 89.4773 99.795C89.886 99.5925 89.97 99.3758 89.9853 99.2885C90.0005 99.2015 89.9961 98.97 89.6816 98.6403C89.3671 98.311 88.8215 97.9907 88.0983 97.8631L77.861 95.7019C76.8907 95.5309 76.2842 94.9686 76.4555 93.9983Z" fill="url(#paint11_linear_4415_4315)" />
  <path fill-rule="evenodd" clip-rule="evenodd" d="M96.1483 75.8314C96.5317 75.0079 97.4208 74.5448 98.3154 74.7024L106.308 76.1119C107.399 76.3043 108.128 77.3448 107.936 78.4365C107.743 79.5278 106.703 80.2564 105.611 80.064L99.1356 78.922L95.3103 87.1332C94.8425 88.138 93.6487 88.5727 92.644 88.105C91.6396 87.6369 91.2045 86.443 91.6726 85.4387L96.1483 75.8314Z" fill="url(#paint12_linear_4415_4315)" />
  <path d="M67.6593 106.336C70.0236 106.753 72.2782 105.174 72.6953 102.81C73.1119 100.445 71.5333 98.1909 69.169 97.7738C66.8047 97.3568 64.5501 98.9358 64.1332 101.3C63.7163 103.664 65.295 105.919 67.6593 106.336Z" fill="url(#paint13_linear_4415_4315)" />
  <path d="M94.3048 79.4602L64.8035 74.2584C62.5921 73.8685 60.6279 75.4562 60.7819 77.5066L61.1503 89.4722C61.2621 90.9533 62.4709 92.203 64.068 92.4845L89.7838 98.7544L96.9791 83.8946C98.637 80.8852 96.5215 79.8512 94.3048 79.4602Z" fill="url(#paint14_linear_4415_4315)" />
  <path d="M67.9164 104.19C69.1042 104.4 70.2369 103.607 70.4464 102.419C70.6558 101.231 69.8627 100.098 68.6748 99.889C67.487 99.6796 66.3543 100.473 66.1449 101.661C65.9354 102.848 66.7286 103.981 67.9164 104.19Z" fill="url(#paint15_linear_4415_4315)" />
  <mask id="mask0_4415_4315" style="mask-type:alpha" maskUnits="userSpaceOnUse" x="60" y="74" width="38" height="25">
    <path d="M94.305 79.4602L64.8035 74.2584C62.5921 73.8685 60.6279 75.4562 60.7819 77.5066L61.1503 89.4722C61.2621 90.9533 62.4709 92.203 64.068 92.4845L89.7836 98.7544L96.9792 83.8946C97.826 82.0153 96.5216 79.8512 94.305 79.4602Z" fill="url(#paint16_linear_4415_4315)" />
  </mask>
  <g mask="url(#mask0_4415_4315)">
    <path d="M80.031 87.3507C80.1589 86.6731 80.8121 86.226 81.49 86.351C82.1676 86.4764 82.6132 87.1271 82.4853 87.8043L80.7966 96.7365C80.6687 97.4137 80.0154 97.8612 79.3379 97.7358C78.66 97.6108 78.2143 96.9601 78.3422 96.2829L80.031 87.3507Z" fill="#A259FF" />
    <path d="M102.069 81.5409C102.635 81.6391 103.016 82.1779 102.92 82.7442L102.851 83.1543C102.755 83.7206 102.218 84.1 101.652 84.0018L60.4027 76.8377C59.8368 76.7391 59.4559 76.2004 59.5519 75.6344L59.6214 75.2243C59.7174 74.658 60.254 74.2786 60.8198 74.3768L102.069 81.5409Z" fill="#A259FF" />
    <path d="M86.9724 88.6043C87.1003 87.9271 87.7535 87.4797 88.4311 87.605C89.109 87.7304 89.5546 88.3811 89.4264 89.0583L87.738 97.9905C87.6101 98.6677 86.9568 99.1152 86.2789 98.9898C85.6014 98.8648 85.1557 98.2141 85.2836 97.5369L86.9724 88.6043Z" fill="#A259FF" />
    <path d="M73.0896 86.0948C73.2175 85.4176 73.8707 84.9702 74.5483 85.0952C75.2262 85.2205 75.6718 85.8712 75.5436 86.5484L73.8552 95.4807C73.7273 96.1578 73.074 96.6053 72.3961 96.4803C71.7186 96.3549 71.2729 95.7042 71.4008 95.027L73.0896 86.0948Z" fill="#A259FF" />
    <path d="M66.0679 84.8585C66.1959 84.1813 66.8491 83.7338 67.5269 83.8588C68.2046 83.9842 68.6502 84.6349 68.5222 85.3121L66.8336 94.2443C66.7056 94.9215 66.0524 95.369 65.3747 95.244C64.697 95.1186 64.2513 94.4679 64.3794 93.7907L66.0679 84.8585Z" fill="#A259FF" />
    <path d="M59.9719 74.3831C60.1016 73.6476 60.8028 73.1567 61.5381 73.2864L97.5887 79.6429C98.3239 79.7726 98.8148 80.4741 98.6851 81.2092C98.5554 81.9447 97.8543 82.4357 97.1191 82.306L61.0686 75.9491C60.3333 75.8197 59.8423 75.1183 59.9719 74.3831Z" fill="url(#paint17_linear_4415_4315)" />
  </g>
  <defs>
    <filter id="filter0_f_4415_4315" x="0.636719" y="0.136719" width="163.797" height="163.797" filterUnits="userSpaceOnUse" color-interpolation-filters="sRGB">
      <feFlood flood-opacity="0" result="BackgroundImageFix" />
      <feBlend mode="normal" in="SourceGraphic" in2="BackgroundImageFix" result="shape" />
      <feGaussianBlur stdDeviation="27" result="effect1_foregroundBlur_4415_4315" />
    </filter>
    <filter id="filter1_f_4415_4315" x="34.0528" y="86.8185" width="88.7459" height="49.4705" filterUnits="userSpaceOnUse" color-interpolation-filters="sRGB">
      <feFlood flood-opacity="0" result="BackgroundImageFix" />
      <feBlend mode="normal" in="SourceGraphic" in2="BackgroundImageFix" result="shape" />
      <feGaussianBlur stdDeviation="10.3437" result="effect1_foregroundBlur_4415_4315" />
    </filter>
    <filter id="filter2_i_4415_4315" x="61.5762" y="53.4102" width="26.2576" height="34.8921" filterUnits="userSpaceOnUse" color-interpolation-filters="sRGB">
      <feFlood flood-opacity="0" result="BackgroundImageFix" />
      <feBlend mode="normal" in="SourceGraphic" in2="BackgroundImageFix" result="shape" />
      <feColorMatrix in="SourceAlpha" type="matrix" values="0 0 0 0 0 0 0 0 0 0 0 0 0 0 0 0 0 0 127 0" result="hardAlpha" />
      <feOffset dx="2.38455" dy="5.56394" />
      <feGaussianBlur stdDeviation="5.96137" />
      <feComposite in2="hardAlpha" operator="arithmetic" k2="-1" k3="1" />
      <feColorMatrix type="matrix" values="0 0 0 0 0.104618 0 0 0 0 0.465612 0 0 0 0 0.545833 0 0 0 0.15 0" />
      <feBlend mode="normal" in2="shape" result="effect1_innerShadow_4415_4315" />
    </filter>
    <filter id="filter3_i_4415_4315" x="75.1387" y="59.5273" width="29.4813" height="16.7877" filterUnits="userSpaceOnUse" color-interpolation-filters="sRGB">
      <feFlood flood-opacity="0" result="BackgroundImageFix" />
      <feBlend mode="normal" in="SourceGraphic" in2="BackgroundImageFix" result="shape" />
      <feColorMatrix in="SourceAlpha" type="matrix" values="0 0 0 0 0 0 0 0 0 0 0 0 0 0 0 0 0 0 127 0" result="hardAlpha" />
      <feOffset dx="5.62585" dy="3.75056" />
      <feGaussianBlur stdDeviation="6.09467" />
      <feComposite in2="hardAlpha" operator="arithmetic" k2="-1" k3="1" />
      <feColorMatrix type="matrix" values="0 0 0 0 0.104618 0 0 0 0 0.465612 0 0 0 0 0.545833 0 0 0 0.09 0" />
      <feBlend mode="normal" in2="shape" result="effect1_innerShadow_4415_4315" />
    </filter>
    <linearGradient id="paint0_linear_4415_4315" x1="49.9584" y1="37.834" x2="113.56" y2="51.0735" gradientUnits="userSpaceOnUse">
      <stop stop-color="#A259FF" />
      <stop offset="1" stop-color="#3B3B3B" />
    </linearGradient>
    <linearGradient id="paint1_linear_4415_4315" x1="94.4918" y1="104.62" x2="75.8849" y2="102.499" gradientUnits="userSpaceOnUse">
      <stop stop-color="#A259FF" stop-opacity="0" />
      <stop offset="1" stop-color="#FF6250" />
    </linearGradient>
    <linearGradient id="paint2_linear_4415_4315" x1="113.581" y1="58.8954" x2="118.918" y2="63.0873" gradientUnits="userSpaceOnUse">
      <stop stop-color="#A259FF" />
      <stop offset="1" stop-color="#377DF7" />
    </linearGradient>
    <linearGradient id="paint3_linear_4415_4315" x1="50.4327" y1="111.212" x2="50.2544" y2="116.522" gradientUnits="userSpaceOnUse">
      <stop stop-color="#A259FF" />
      <stop offset="1" stop-color="#377DF7" />
    </linearGradient>
    <linearGradient id="paint4_linear_4415_4315" x1="107.945" y1="102.057" x2="113.249" y2="101.752" gradientUnits="userSpaceOnUse">
      <stop stop-color="#A259FF" />
      <stop offset="1" stop-color="#377DF7" />
    </linearGradient>
    <radialGradient id="paint5_radial_4415_4315" cx="0" cy="0" r="1" gradientUnits="userSpaceOnUse" gradientTransform="translate(78.4258 111.553) rotate(90) scale(4.04753 23.6857)">
      <stop stop-color="#2B2B2B" />
      <stop offset="1" stop-color="#2B2B2B" stop-opacity="0" />
    </radialGradient>
    <linearGradient id="paint6_linear_4415_4315" x1="64.4398" y1="55.9925" x2="84.5036" y2="55.3742" gradientUnits="userSpaceOnUse">
      <stop stop-color="#A259FF" />
      <stop offset="1" stop-color="#3B3B3B" />
    </linearGradient>
    <linearGradient id="paint7_linear_4415_4315" x1="77.3082" y1="66.1808" x2="75.9911" y2="62.2769" gradientUnits="userSpaceOnUse">
      <stop stop-color="#A259FF" />
      <stop offset="0.666667" stop-color="white" />
    </linearGradient>
    <linearGradient id="paint8_linear_4415_4315" x1="79.1432" y1="76.4421" x2="77.8795" y2="72.6537" gradientUnits="userSpaceOnUse">
      <stop stop-color="#A259FF" />
      <stop offset="0.666667" stop-color="white" />
    </linearGradient>
    <linearGradient id="paint9_linear_4415_4315" x1="78.1919" y1="71.0554" x2="76.9281" y2="67.267" gradientUnits="userSpaceOnUse">
      <stop stop-color="#A259FF" />
      <stop offset="0.666667" stop-color="white" />
    </linearGradient>
    <linearGradient id="paint10_linear_4415_4315" x1="75.1387" y1="75.4944" x2="89.818" y2="53.4632" gradientUnits="userSpaceOnUse">
      <stop stop-color="#A259FF" />
      <stop offset="1" stop-color="#FF6250" />
    </linearGradient>
    <linearGradient id="paint11_linear_4415_4315" x1="86.77" y1="100.771" x2="81.7374" y2="77.1512" gradientUnits="userSpaceOnUse">
      <stop stop-color="#A259FF" />
      <stop offset="0.666667" stop-color="white" />
    </linearGradient>
    <linearGradient id="paint12_linear_4415_4315" x1="103.544" y1="78.8405" x2="115.16" y2="92.3611" gradientUnits="userSpaceOnUse">
      <stop stop-color="#A259FF" />
      <stop offset="1" stop-color="#377DF7" />
    </linearGradient>
    <linearGradient id="paint13_linear_4415_4315" x1="70.6374" y1="104.363" x2="60.708" y2="94.2184" gradientUnits="userSpaceOnUse">
      <stop stop-color="#A259FF" />
      <stop offset="0.666667" stop-color="white" />
    </linearGradient>
    <linearGradient id="paint14_linear_4415_4315" x1="88.0892" y1="92.7718" x2="68.1305" y2="52.9815" gradientUnits="userSpaceOnUse">
      <stop stop-color="#A259FF" />
      <stop offset="0.666667" stop-color="white" />
    </linearGradient>
    <linearGradient id="paint15_linear_4415_4315" x1="65.8262" y1="102.713" x2="72.0233" y2="103.907" gradientUnits="userSpaceOnUse">
      <stop stop-color="white" />
      <stop offset="1" stop-color="#BCF3FF" />
    </linearGradient>
    <linearGradient id="paint16_linear_4415_4315" x1="60.5227" y1="78.2066" x2="97.06" y2="85.1001" gradientUnits="userSpaceOnUse">
      <stop stop-color="#AFF1FF" />
      <stop offset="1" stop-color="#65C8DE" />
    </linearGradient>
    <linearGradient id="paint17_linear_4415_4315" x1="90.7608" y1="80.4081" x2="91.355" y2="72.885" gradientUnits="userSpaceOnUse">
      <stop stop-color="#A259FF" />
      <stop offset="0.666667" stop-color="white" />
    </linearGradient>
  </defs>
</symbol>

</defs>
</svg>
