<svg aria-hidden="true" style="position: absolute; width: 0; height: 0; overflow: hidden;" version="1.1"
    xmlns="http://www.w3.org/2000/svg" xmlns:xlink="http://www.w3.org/1999/xlink">
    <defs>
        <symbol id="account-password" viewBox="0 0 32 32">
            <path
                d="M16 16c-0.828 0-1.5 0.672-1.5 1.5s0.672 1.5 1.5 1.5c0.828 0 1.5-0.672 1.5-1.5s-0.672-1.5-1.5-1.5zM12.5 17.5c0-1.933 1.567-3.5 3.5-3.5s3.5 1.567 3.5 3.5c0 1.933-1.567 3.5-3.5 3.5s-3.5-1.567-3.5-3.5z">
            </path>
            <path d="M16 19c0.552 0 1 0.448 1 1v3c0 0.552-0.448 1-1 1s-1-0.448-1-1v-3c0-0.552 0.448-1 1-1z"></path>
            <path
                d="M4 12c0-1.105 0.895-2 2-2h20c1.105 0 2 0.895 2 2v14c0 1.105-0.895 2-2 2h-20c-1.105 0-2-0.895-2-2v-14zM26 12h-20v14h20v-14z">
            </path>
            <path
                d="M16 3c-0.928 0-1.819 0.369-2.475 1.025s-1.025 1.547-1.025 2.475v4.5c0 0.552-0.448 1-1 1s-1-0.448-1-1v-4.5c0-1.459 0.579-2.858 1.611-3.889s2.43-1.611 3.889-1.611c1.459 0 2.858 0.579 3.889 1.611s1.611 2.43 1.611 3.889v4.5c0 0.552-0.448 1-1 1s-1-0.448-1-1v-4.5c0-0.928-0.369-1.819-1.025-2.475s-1.547-1.025-2.475-1.025z">
            </path>
        </symbol>
        <symbol id="account-email" viewBox="0 0 32 32">
            <path
                d="M3 7c0-0.552 0.448-1 1-1h24c0.552 0 1 0.448 1 1v17c0 0.53-0.211 1.039-0.586 1.414s-0.884 0.586-1.414 0.586h-22c-0.53 0-1.039-0.211-1.414-0.586s-0.586-0.884-0.586-1.414v-17zM5 8v16h22v-16h-22z">
            </path>
            <path
                d="M3.263 6.324c0.373-0.407 1.006-0.435 1.413-0.061l11.324 10.38 11.324-10.38c0.407-0.373 1.040-0.346 1.413 0.061s0.346 1.040-0.061 1.413l-12 11c-0.382 0.351-0.969 0.351-1.351 0l-12-11c-0.407-0.373-0.435-1.006-0.061-1.413z">
            </path>
        </symbol>
        <symbol id="account-user" viewBox="0 0 32 32">
            <path
                d="M16 5c-3.866 0-7 3.134-7 7s3.134 7 7 7c3.866 0 7-3.134 7-7s-3.134-7-7-7zM7 12c0-4.971 4.029-9 9-9s9 4.029 9 9c0 4.971-4.029 9-9 9s-9-4.029-9-9z">
            </path>
            <path
                d="M16 20.998c-2.282 0-4.524 0.601-6.5 1.742s-3.617 2.782-4.758 4.759c-0.276 0.478-0.888 0.642-1.366 0.366s-0.642-0.888-0.366-1.366c1.316-2.281 3.21-4.175 5.49-5.491s4.867-2.010 7.501-2.010 5.22 0.693 7.501 2.010c2.28 1.317 4.174 3.211 5.49 5.491 0.276 0.478 0.112 1.090-0.366 1.366s-1.090 0.112-1.366-0.366c-1.141-1.977-2.782-3.618-4.758-4.759s-4.218-1.742-6.5-1.742z">
            </path>
        </symbol>
        <symbol id="header-nft-logo" viewBox="0 0 244 32">
            <path fill="#a259ff" style="fill: var(--color1, #a259ff)"
                d="M6 12.451c0.552 0 1 0.448 1 1v12.55h18v-12.55c0-0.552 0.448-1 1-1s1 0.448 1 1v12.55c0 0.53-0.211 1.039-0.586 1.414s-0.884 0.586-1.414 0.586h-18c-0.53 0-1.039-0.211-1.414-0.586s-0.586-0.884-0.586-1.414v-12.55c0-0.552 0.448-1 1-1z">
            </path>
            <path fill="#a259ff" style="fill: var(--color1, #a259ff)"
                d="M3 5c0-0.552 0.448-1 1-1h24c0.552 0 1 0.448 1 1s-0.448 1-1 1h-24c-0.552 0-1-0.448-1-1z"></path>
            <path fill="#a259ff" style="fill: var(--color1, #a259ff)"
                d="M4 7c0.552 0 1 0.448 1 1v2c0 0.796 0.316 1.559 0.879 2.121s1.326 0.879 2.121 0.879c0.796 0 1.559-0.316 2.121-0.879s0.879-1.326 0.879-2.121v-2c0-0.552 0.448-1 1-1s1 0.448 1 1v2c0 1.326-0.527 2.598-1.464 3.535s-2.209 1.465-3.536 1.465-2.598-0.527-3.536-1.465c-0.938-0.938-1.464-2.209-1.464-3.535v-2c0-0.552 0.448-1 1-1z">
            </path>
            <path fill="#a259ff" style="fill: var(--color1, #a259ff)"
                d="M12 7c0.552 0 1 0.448 1 1v2c0 0.796 0.316 1.559 0.879 2.121s1.326 0.879 2.121 0.879 1.559-0.316 2.121-0.879c0.563-0.563 0.879-1.326 0.879-2.121v-2c0-0.552 0.448-1 1-1s1 0.448 1 1v2c0 1.326-0.527 2.598-1.465 3.535s-2.209 1.465-3.535 1.465-2.598-0.527-3.536-1.465c-0.938-0.938-1.464-2.209-1.464-3.535v-2c0-0.552 0.448-1 1-1z">
            </path>
            <path fill="#a259ff" style="fill: var(--color1, #a259ff)"
                d="M20 7c0.552 0 1 0.448 1 1v2c0 0.796 0.316 1.559 0.879 2.121s1.326 0.879 2.121 0.879 1.559-0.316 2.121-0.879c0.563-0.563 0.879-1.326 0.879-2.121v-2c0-0.552 0.448-1 1-1s1 0.448 1 1v2c0 1.326-0.527 2.598-1.465 3.535s-2.209 1.465-3.535 1.465-2.598-0.527-3.535-1.465c-0.938-0.938-1.465-2.209-1.465-3.535v-2c0-0.552 0.448-1 1-1z">
            </path>
            <path fill="#fff" style="fill: var(--color2, #fff)"
                d="M51.48 22.547h0.396v-13.948h2.904v15.4h-5.676l-1.804-13.948h-0.396v13.948h-2.904v-15.4h5.676l1.804 13.948z">
            </path>
            <path fill="#fff" style="fill: var(--color2, #fff)"
                d="M58.065 8.599h9.856v2.772h-6.952v3.52h6.82v2.772h-6.82v6.336h-2.904v-15.4z"></path>
            <path fill="#fff" style="fill: var(--color2, #fff)"
                d="M70.787 8.599h11.088v2.772h-4.092v12.628h-2.904v-12.628h-4.092v-2.772z"></path>
            <path fill="#fff" style="fill: var(--color2, #fff)"
                d="M97.025 8.599h5.104l0.88 11.572v2.244h0.528v-2.244l0.88-11.572h5.104v15.4h-2.64v-10.296l0.264-3.52h-0.528l-1.144 13.816h-4.356l-1.188-13.816h-0.528l0.264 3.52v10.296h-2.64v-15.4z">
            </path>
            <path fill="#fff" style="fill: var(--color2, #fff)"
                d="M118.789 22.415c-0.293 0.689-0.704 1.181-1.232 1.474-0.528 0.279-1.144 0.418-1.848 0.418-0.66 0-1.283-0.125-1.87-0.374-0.572-0.249-1.078-0.616-1.518-1.1s-0.792-1.071-1.056-1.76c-0.249-0.689-0.374-1.474-0.374-2.354v-0.352c0-0.865 0.125-1.643 0.374-2.332s0.587-1.276 1.012-1.76c0.425-0.484 0.917-0.851 1.474-1.1 0.572-0.264 1.181-0.396 1.826-0.396 0.777 0 1.401 0.132 1.87 0.396 0.484 0.264 0.865 0.675 1.144 1.232h0.396v-1.32h2.772v7.612c0 0.44 0.198 0.66 0.594 0.66h0.418v2.64h-1.892c-0.499 0-0.909-0.147-1.232-0.44-0.308-0.293-0.462-0.675-0.462-1.144h-0.396zM116.325 21.667c0.807 0 1.452-0.264 1.936-0.792 0.484-0.543 0.726-1.276 0.726-2.2v-0.264c0-0.924-0.242-1.65-0.726-2.178-0.484-0.543-1.129-0.814-1.936-0.814s-1.452 0.271-1.936 0.814c-0.484 0.528-0.726 1.254-0.726 2.178v0.264c0 0.924 0.242 1.657 0.726 2.2 0.484 0.528 1.129 0.792 1.936 0.792z">
            </path>
            <path fill="#fff" style="fill: var(--color2, #fff)"
                d="M124.67 13.087h4.62v1.584h0.396c0.205-0.601 0.55-1.063 1.034-1.386 0.499-0.337 1.093-0.506 1.782-0.506 1.086 0 1.958 0.345 2.618 1.034 0.66 0.675 0.991 1.709 0.991 3.102v0.484l-2.86 0.264v-0.308c0-0.601-0.154-1.078-0.462-1.43-0.308-0.367-0.77-0.55-1.386-0.55s-1.1 0.213-1.452 0.638c-0.352 0.425-0.528 1.034-0.528 1.826v3.52h2.508v2.64h-7.524v-2.64h2.244v-5.632h-1.98v-2.64z">
            </path>
            <path fill="#fff" style="fill: var(--color2, #fff)"
                d="M142.321 17.091h0.528l2.904-4.004h3.036v0.132l-3.52 4.994v0.396l3.872 5.258v0.132h-3.168l-3.124-4.268h-0.528v4.268h-2.772v-15.4h2.772v8.492z">
            </path>
            <path fill="#fff" style="fill: var(--color2, #fff)"
                d="M154.581 19.445c0.015 0.323 0.088 0.623 0.22 0.902 0.147 0.264 0.337 0.499 0.572 0.704 0.249 0.191 0.528 0.345 0.836 0.462 0.323 0.103 0.66 0.154 1.012 0.154 0.689 0 1.217-0.117 1.584-0.352 0.367-0.249 0.631-0.543 0.792-0.88l2.376 1.32c-0.132 0.279-0.315 0.572-0.549 0.88-0.235 0.293-0.543 0.565-0.924 0.814-0.367 0.249-0.821 0.455-1.364 0.616-0.528 0.161-1.152 0.242-1.871 0.242-0.821 0-1.569-0.132-2.244-0.396s-1.261-0.645-1.76-1.144c-0.484-0.499-0.865-1.107-1.144-1.826-0.264-0.719-0.396-1.533-0.396-2.442v-0.132c0-0.836 0.14-1.599 0.419-2.288 0.293-0.689 0.689-1.276 1.188-1.76s1.077-0.858 1.737-1.122c0.675-0.279 1.393-0.418 2.156-0.418 0.939 0 1.745 0.169 2.42 0.506 0.675 0.323 1.232 0.741 1.672 1.254 0.44 0.499 0.763 1.056 0.968 1.672 0.205 0.601 0.308 1.188 0.308 1.76v1.474h-8.008zM157.2 15.287c-0.704 0-1.276 0.183-1.716 0.55-0.44 0.352-0.727 0.763-0.859 1.232h5.148c-0.088-0.513-0.367-0.939-0.836-1.276-0.455-0.337-1.033-0.506-1.737-0.506z">
            </path>
            <path fill="#fff" style="fill: var(--color2, #fff)"
                d="M165.303 13.087h3.233v-4.488h2.772v4.488h3.939v2.64h-3.939v4.972c0 0.44 0.199 0.66 0.595 0.66h2.948v2.64h-4.62c-0.499 0-0.909-0.161-1.232-0.484-0.308-0.323-0.463-0.733-0.463-1.232v-6.556h-3.233v-2.64z">
            </path>
            <path fill="#fff" style="fill: var(--color2, #fff)"
                d="M181.281 28.399h-2.772v-15.312h2.772v1.584h0.396c0.293-0.601 0.719-1.063 1.276-1.386 0.557-0.337 1.268-0.506 2.133-0.506 0.645 0 1.255 0.125 1.827 0.374 0.587 0.249 1.092 0.616 1.517 1.1 0.44 0.469 0.785 1.049 1.035 1.738 0.264 0.689 0.396 1.474 0.396 2.354v0.396c0 0.895-0.125 1.687-0.375 2.376s-0.587 1.276-1.012 1.76c-0.425 0.469-0.931 0.829-1.517 1.078-0.572 0.235-1.196 0.352-1.871 0.352-0.499 0-0.931-0.051-1.297-0.154s-0.689-0.242-0.968-0.418c-0.264-0.176-0.492-0.374-0.683-0.594-0.176-0.235-0.329-0.477-0.461-0.726h-0.396v5.984zM184.185 21.667c0.865 0 1.561-0.264 2.089-0.792 0.543-0.543 0.815-1.276 0.815-2.2v-0.264c0-0.924-0.272-1.65-0.815-2.178-0.528-0.543-1.224-0.814-2.089-0.814s-1.569 0.279-2.112 0.836c-0.528 0.543-0.792 1.261-0.792 2.156v0.264c0 0.895 0.264 1.621 0.792 2.178 0.543 0.543 1.247 0.814 2.112 0.814z">
            </path>
            <path fill="#fff" style="fill: var(--color2, #fff)"
                d="M192.485 21.359h3.828v-10.12h-3.696v-2.64h6.468v12.76h3.564v2.64h-10.164v-2.64z"></path>
            <path fill="#fff" style="fill: var(--color2, #fff)"
                d="M213.084 22.415c-0.293 0.689-0.704 1.181-1.232 1.474-0.528 0.279-1.144 0.418-1.848 0.418-0.66 0-1.283-0.125-1.869-0.374-0.572-0.249-1.079-0.616-1.519-1.1s-0.792-1.071-1.056-1.76c-0.249-0.689-0.373-1.474-0.373-2.354v-0.352c0-0.865 0.124-1.643 0.373-2.332s0.587-1.276 1.012-1.76c0.425-0.484 0.917-0.851 1.475-1.1 0.572-0.264 1.18-0.396 1.825-0.396 0.777 0 1.401 0.132 1.871 0.396 0.484 0.264 0.865 0.675 1.144 1.232h0.396v-1.32h2.772v7.612c0 0.44 0.197 0.66 0.593 0.66h0.419v2.64h-1.892c-0.499 0-0.909-0.147-1.232-0.44-0.308-0.293-0.463-0.675-0.463-1.144h-0.396zM210.62 21.667c0.807 0 1.452-0.264 1.936-0.792 0.484-0.543 0.727-1.276 0.727-2.2v-0.264c0-0.924-0.243-1.65-0.727-2.178-0.484-0.543-1.129-0.814-1.936-0.814s-1.452 0.271-1.936 0.814c-0.484 0.528-0.725 1.254-0.725 2.178v0.264c0 0.924 0.241 1.657 0.725 2.2 0.484 0.528 1.129 0.792 1.936 0.792z">
            </path>
            <path fill="#fff" style="fill: var(--color2, #fff)"
                d="M230.141 19.995c-0.249 1.291-0.844 2.332-1.783 3.124-0.924 0.792-2.163 1.188-3.717 1.188-0.807 0-1.563-0.125-2.267-0.374-0.689-0.249-1.291-0.609-1.804-1.078s-0.916-1.049-1.209-1.738c-0.293-0.689-0.44-1.474-0.44-2.354v-0.264c0-0.88 0.147-1.672 0.44-2.376s0.696-1.305 1.209-1.804c0.528-0.499 1.137-0.88 1.827-1.144 0.704-0.264 1.452-0.396 2.244-0.396 1.525 0 2.757 0.396 3.696 1.188 0.953 0.792 1.555 1.833 1.804 3.124l-2.728 0.704c-0.088-0.645-0.367-1.203-0.836-1.672s-1.129-0.704-1.98-0.704c-0.396 0-0.771 0.073-1.123 0.22s-0.66 0.359-0.924 0.638c-0.264 0.264-0.476 0.594-0.637 0.99-0.147 0.381-0.22 0.814-0.22 1.298v0.132c0 0.484 0.073 0.917 0.22 1.298 0.161 0.367 0.373 0.675 0.637 0.924s0.572 0.44 0.924 0.572c0.352 0.117 0.727 0.176 1.123 0.176 0.851 0 1.496-0.213 1.936-0.638 0.455-0.425 0.748-0.997 0.88-1.716l2.728 0.682z">
            </path>
            <path fill="#fff" style="fill: var(--color2, #fff)"
                d="M235.405 19.445c0.015 0.323 0.088 0.623 0.22 0.902 0.147 0.264 0.337 0.499 0.572 0.704 0.249 0.191 0.528 0.345 0.836 0.462 0.323 0.103 0.66 0.154 1.012 0.154 0.689 0 1.217-0.117 1.584-0.352 0.367-0.249 0.631-0.543 0.792-0.88l2.376 1.32c-0.132 0.279-0.315 0.572-0.549 0.88-0.235 0.293-0.543 0.565-0.924 0.814-0.367 0.249-0.821 0.455-1.364 0.616-0.528 0.161-1.152 0.242-1.871 0.242-0.821 0-1.569-0.132-2.244-0.396s-1.261-0.645-1.76-1.144c-0.484-0.499-0.865-1.107-1.144-1.826-0.264-0.719-0.396-1.533-0.396-2.442v-0.132c0-0.836 0.14-1.599 0.419-2.288 0.293-0.689 0.689-1.276 1.188-1.76s1.077-0.858 1.737-1.122c0.675-0.279 1.393-0.418 2.156-0.418 0.939 0 1.745 0.169 2.42 0.506 0.675 0.323 1.232 0.741 1.672 1.254 0.44 0.499 0.763 1.056 0.968 1.672 0.205 0.601 0.308 1.188 0.308 1.76v1.474h-8.008zM238.024 15.287c-0.704 0-1.276 0.183-1.716 0.55-0.44 0.352-0.727 0.763-0.859 1.232h5.148c-0.088-0.513-0.367-0.939-0.836-1.276-0.455-0.337-1.033-0.506-1.737-0.506z">
            </path>
        </symbol>
        <symbol id="header-burger-menu" viewBox="0 0 32 32">
            <path d="M4 16c0-0.552 0.448-1 1-1h22c0.552 0 1 0.448 1 1s-0.448 1-1 1h-22c-0.552 0-1-0.448-1-1z"></path>
            <path d="M4 8c0-0.552 0.448-1 1-1h15c0.552 0 1 0.448 1 1s-0.448 1-1 1h-15c-0.552 0-1-0.448-1-1z"></path>
            <path d="M4 24c0-0.552 0.448-1 1-1h15c0.552 0 1 0.448 1 1s-0.448 1-1 1h-15c-0.552 0-1-0.448-1-1z"></path>
        </symbol>
        <symbol id="header-sign-up-user" viewBox="0 0 32 32">
            <path
                d="M16 5c-3.866 0-7 3.134-7 7s3.134 7 7 7c3.866 0 7-3.134 7-7s-3.134-7-7-7zM7 12c0-4.971 4.029-9 9-9s9 4.029 9 9c0 4.971-4.029 9-9 9s-9-4.029-9-9z">
            </path>
            <path
                d="M16 20.998c-2.282 0-4.524 0.601-6.5 1.742s-3.617 2.782-4.758 4.759c-0.276 0.478-0.888 0.642-1.366 0.366s-0.642-0.888-0.366-1.366c1.316-2.281 3.21-4.175 5.49-5.491s4.867-2.010 7.501-2.010 5.22 0.693 7.501 2.010c2.28 1.317 4.174 3.211 5.49 5.491 0.276 0.478 0.112 1.090-0.366 1.366s-1.090 0.112-1.366-0.366c-1.141-1.977-2.782-3.618-4.758-4.759s-4.218-1.742-6.5-1.742z">
            </path>
        </symbol>
        <symbol id="wallet-connect" viewBox="0 0 33 32">
            <g clip-path="url(#clip0_4248_8110)">
                <path
                    d="M16.5 32C25.3366 32 32.5 24.8366 32.5 16C32.5 7.16344 25.3366 0 16.5 0C7.66344 0 0.5 7.16344 0.5 16C0.5 24.8366 7.66344 32 16.5 32Z"
                    fill="url(#paint0_radial_4248_8110)" />
                <path
                    d="M10.5469 12.3578C13.7656 9.21406 18.9906 9.21406 22.2094 12.3578L22.5969 12.7391C22.7594 12.8953 22.7594 13.1516 22.5969 13.3078L21.2719 14.6016C21.1906 14.6828 21.0594 14.6828 20.9781 14.6016L20.4469 14.0828C18.1969 11.8891 14.5594 11.8891 12.3094 14.0828L11.7406 14.6391C11.6594 14.7203 11.5281 14.7203 11.4469 14.6391L10.1219 13.3453C9.95938 13.1891 9.95938 12.9328 10.1219 12.7766L10.5469 12.3578ZM24.9531 15.0328L26.1344 16.1828C26.2969 16.3391 26.2969 16.5953 26.1344 16.7516L20.8156 21.9453C20.6531 22.1016 20.3906 22.1016 20.2344 21.9453L16.4594 18.2578C16.4219 18.2203 16.3531 18.2203 16.3156 18.2578L12.5406 21.9453C12.3781 22.1016 12.1156 22.1016 11.9594 21.9453L6.62187 16.7516C6.45938 16.5953 6.45938 16.3391 6.62187 16.1828L7.80312 15.0328C7.96562 14.8766 8.22813 14.8766 8.38438 15.0328L12.1594 18.7203C12.1969 18.7578 12.2656 18.7578 12.3031 18.7203L16.0781 15.0328C16.2406 14.8766 16.5031 14.8766 16.6594 15.0328L20.4344 18.7203C20.4719 18.7578 20.5406 18.7578 20.5781 18.7203L24.3531 15.0328C24.5281 14.8766 24.7906 14.8766 24.9531 15.0328Z"
                    fill="white" />
            </g>
            <defs>
                <radialGradient id="paint0_radial_4248_8110" cx="0" cy="0" r="1" gradientUnits="userSpaceOnUse"
                    gradientTransform="translate(0.500099 16.0005) scale(32)">
                    <stop stop-color="#5D9DF6" />
                    <stop offset="1" stop-color="#006FFF" />
                </radialGradient>
                <clipPath id="clip0_4248_8110">
                    <rect width="32" height="32" fill="white" transform="translate(0.5)" />
                </clipPath>
            </defs>
        </symbol>
        <symbol id="wallet-coinbase" viewBox="0 0 33 32">
            <g clip-path="url(#clip0_4248_8116)">
                <path
                    d="M16.5 32C25.3366 32 32.5 24.8366 32.5 16C32.5 7.16344 25.3366 0 16.5 0C7.66344 0 0.5 7.16344 0.5 16C0.5 24.8366 7.66344 32 16.5 32Z"
                    fill="#0052FF" />
                <path fill-rule="evenodd" clip-rule="evenodd"
                    d="M5.25 16C5.25 22.2132 10.2868 27.25 16.5 27.25C22.7132 27.25 27.75 22.2132 27.75 16C27.75 9.78678 22.7132 4.75 16.5 4.75C10.2868 4.75 5.25 9.78678 5.25 16ZM13.625 12.375C13.2108 12.375 12.875 12.7108 12.875 13.125V18.875C12.875 19.2892 13.2108 19.625 13.625 19.625H19.375C19.7892 19.625 20.125 19.2892 20.125 18.875V13.125C20.125 12.7108 19.7892 12.375 19.375 12.375H13.625Z"
                    fill="white" />
            </g>
            <defs>
                <clipPath id="clip0_4248_8116">
                    <rect width="32" height="32" fill="white" transform="translate(0.5)" />
                </clipPath>
            </defs>
        </symbol>
        <symbol id="wallet-metamask" viewBox="0 0 33 32">
            <g clip-path="url(#clip0_4248_8071)">
                <path d="M30.9062 1.25L18.4199 10.5237L20.7289 5.05235L30.9062 1.25Z" fill="#E2761B" stroke="#E2761B"
                    stroke-width="0.3125" stroke-linecap="round" stroke-linejoin="round" />
                <path d="M2.08203 1.25L14.4679 10.6116L12.2718 5.05235L2.08203 1.25Z" fill="#E4761B" stroke="#E4761B"
                    stroke-width="0.3125" stroke-linecap="round" stroke-linejoin="round" />
                <path d="M26.4134 22.7461L23.0879 27.841L30.2032 29.7986L32.2487 22.859L26.4134 22.7461Z" fill="#E4761B"
                    stroke="#E4761B" stroke-width="0.3125" stroke-linecap="round" stroke-linejoin="round" />
                <path d="M0.763672 22.859L2.79661 29.7986L9.91191 27.841L6.58642 22.7461L0.763672 22.859Z"
                    fill="#E4761B" stroke="#E4761B" stroke-width="0.3125" stroke-linecap="round"
                    stroke-linejoin="round" />
                <path d="M9.51009 14.1386L7.52734 17.1378L14.5924 17.4515L14.3415 9.85938L9.51009 14.1386Z"
                    fill="#E4761B" stroke="#E4761B" stroke-width="0.3125" stroke-linecap="round"
                    stroke-linejoin="round" />
                <path d="M23.4772 14.1385L18.5831 9.77148L18.4199 17.4515L25.4725 17.1378L23.4772 14.1385Z"
                    fill="#E4761B" stroke="#E4761B" stroke-width="0.3125" stroke-linecap="round"
                    stroke-linejoin="round" />
                <path d="M9.91211 27.8419L14.1537 25.7713L10.4894 22.9102L9.91211 27.8419Z" fill="#E4761B"
                    stroke="#E4761B" stroke-width="0.3125" stroke-linecap="round" stroke-linejoin="round" />
                <path d="M18.834 25.7713L23.0881 27.8419L22.4983 22.9102L18.834 25.7713Z" fill="#E4761B"
                    stroke="#E4761B" stroke-width="0.3125" stroke-linecap="round" stroke-linejoin="round" />
                <path d="M23.0881 27.8421L18.834 25.7715L19.1728 28.5448L19.1352 29.7119L23.0881 27.8421Z"
                    fill="#D7C1B3" stroke="#D7C1B3" stroke-width="0.3125" stroke-linecap="round"
                    stroke-linejoin="round" />
                <path d="M9.91211 27.8421L13.8651 29.7119L13.84 28.5448L14.1537 25.7715L9.91211 27.8421Z" fill="#D7C1B3"
                    stroke="#D7C1B3" stroke-width="0.3125" stroke-linecap="round" stroke-linejoin="round" />
                <path d="M13.9275 21.0781L10.3887 20.0365L12.8859 18.8945L13.9275 21.0781Z" fill="#233447"
                    stroke="#233447" stroke-width="0.3125" stroke-linecap="round" stroke-linejoin="round" />
                <path d="M19.0605 21.0781L20.1021 18.8945L22.6119 20.0365L19.0605 21.0781Z" fill="#233447"
                    stroke="#233447" stroke-width="0.3125" stroke-linecap="round" stroke-linejoin="round" />
                <path d="M9.91143 27.841L10.5138 22.7461L6.58594 22.859L9.91143 27.841Z" fill="#CD6116" stroke="#CD6116"
                    stroke-width="0.3125" stroke-linecap="round" stroke-linejoin="round" />
                <path d="M22.4863 22.7461L23.0887 27.841L26.4142 22.859L22.4863 22.7461Z" fill="#CD6116"
                    stroke="#CD6116" stroke-width="0.3125" stroke-linecap="round" stroke-linejoin="round" />
                <path
                    d="M25.4725 17.1367L18.4199 17.4504L19.0725 21.0771L20.114 18.8936L22.6238 20.0355L25.4725 17.1367Z"
                    fill="#CD6116" stroke="#CD6116" stroke-width="0.3125" stroke-linecap="round"
                    stroke-linejoin="round" />
                <path
                    d="M10.3885 20.0355L12.8983 18.8936L13.9273 21.0771L14.5924 17.4504L7.52734 17.1367L10.3885 20.0355Z"
                    fill="#CD6116" stroke="#CD6116" stroke-width="0.3125" stroke-linecap="round"
                    stroke-linejoin="round" />
                <path d="M7.52734 17.1367L10.4889 22.9093L10.3885 20.0355L7.52734 17.1367Z" fill="#E4751F"
                    stroke="#E4751F" stroke-width="0.3125" stroke-linecap="round" stroke-linejoin="round" />
                <path d="M22.6235 20.0355L22.498 22.9093L25.4722 17.1367L22.6235 20.0355Z" fill="#E4751F"
                    stroke="#E4751F" stroke-width="0.3125" stroke-linecap="round" stroke-linejoin="round" />
                <path d="M14.5928 17.4512L13.9277 21.0778L14.756 25.3571L14.9442 19.7225L14.5928 17.4512Z"
                    fill="#E4751F" stroke="#E4751F" stroke-width="0.3125" stroke-linecap="round"
                    stroke-linejoin="round" />
                <path d="M18.4209 17.4512L18.082 19.71L18.2326 25.3571L19.0734 21.0778L18.4209 17.4512Z" fill="#E4751F"
                    stroke="#E4751F" stroke-width="0.3125" stroke-linecap="round" stroke-linejoin="round" />
                <path
                    d="M19.0732 21.0767L18.2324 25.3559L18.8348 25.7701L22.4991 22.9089L22.6246 20.0352L19.0732 21.0767Z"
                    fill="#F6851B" stroke="#F6851B" stroke-width="0.3125" stroke-linecap="round"
                    stroke-linejoin="round" />
                <path
                    d="M10.3887 20.0352L10.4891 22.9089L14.1534 25.7701L14.7557 25.3559L13.9275 21.0767L10.3887 20.0352Z"
                    fill="#F6851B" stroke="#F6851B" stroke-width="0.3125" stroke-linecap="round"
                    stroke-linejoin="round" />
                <path
                    d="M19.1356 29.7116L19.1733 28.5445L18.8596 28.2685H14.1286L13.84 28.5445L13.8651 29.7116L9.91211 27.8418L11.2925 28.9712L14.0909 30.9163H18.8972L21.7082 28.9712L23.0886 27.8418L19.1356 29.7116Z"
                    fill="#C0AD9E" stroke="#C0AD9E" stroke-width="0.3125" stroke-linecap="round"
                    stroke-linejoin="round" />
                <path
                    d="M18.8344 25.7715L18.232 25.3574H14.7559L14.1536 25.7715L13.8398 28.5449L14.1285 28.2688H18.8595L19.1732 28.5449L18.8344 25.7715Z"
                    fill="#161616" stroke="#161616" stroke-width="0.3125" stroke-linecap="round"
                    stroke-linejoin="round" />
                <path
                    d="M31.4332 11.1261L32.4999 6.00608L30.9061 1.25L18.834 10.21L23.4771 14.1378L30.0403 16.0578L31.4959 14.3637L30.8685 13.912L31.8724 12.9959L31.0944 12.3935L32.0983 11.628L31.4332 11.1261Z"
                    fill="#763D16" stroke="#763D16" stroke-width="0.3125" stroke-linecap="round"
                    stroke-linejoin="round" />
                <path
                    d="M0.5 6.00608L1.56667 11.1261L0.88902 11.628L1.89294 12.3935L1.12745 12.9959L2.13137 13.912L1.50392 14.3637L2.94706 16.0578L9.5102 14.1378L14.1533 10.21L2.08118 1.25L0.5 6.00608Z"
                    fill="#763D16" stroke="#763D16" stroke-width="0.3125" stroke-linecap="round"
                    stroke-linejoin="round" />
                <path
                    d="M30.04 16.0587L23.4769 14.1387L25.4722 17.1379L22.498 22.9104L26.4133 22.8602H32.2486L30.04 16.0587Z"
                    fill="#F6851B" stroke="#F6851B" stroke-width="0.3125" stroke-linecap="round"
                    stroke-linejoin="round" />
                <path
                    d="M9.51034 14.1387L2.9472 16.0587L0.763672 22.8602H6.58642L10.4892 22.9104L7.52759 17.1379L9.51034 14.1387Z"
                    fill="#F6851B" stroke="#F6851B" stroke-width="0.3125" stroke-linecap="round"
                    stroke-linejoin="round" />
                <path
                    d="M18.4205 17.4512L18.8346 10.2104L20.7421 5.05273H12.2715L14.1538 10.2104L14.5931 17.4512L14.7436 19.7351L14.7562 25.357H18.2323L18.2574 19.7351L18.4205 17.4512Z"
                    fill="#F6851B" stroke="#F6851B" stroke-width="0.3125" stroke-linecap="round"
                    stroke-linejoin="round" />
            </g>
            <defs>
                <clipPath id="clip0_4248_8071">
                    <rect width="32" height="32" fill="white" transform="translate(0.5)" />
                </clipPath>
            </defs>
        </symbol>
        <symbol id="icon-RocketLaunch" viewBox="0 0 32 32">
            <path
                d="M9.873 19.919c0.176 0.524-0.106 1.091-0.629 1.267-1.695 0.57-2.596 1.993-3.078 3.44-0.191 0.575-0.307 1.128-0.376 1.585 0.457-0.069 1.011-0.185 1.585-0.376 1.447-0.482 2.87-1.383 3.44-3.078 0.176-0.523 0.743-0.805 1.267-0.629s0.805 0.743 0.629 1.267c-0.855 2.542-2.97 3.76-4.704 4.338-0.876 0.292-1.696 0.436-2.295 0.508-0.301 0.036-0.549 0.054-0.726 0.064-0.088 0.005-0.159 0.007-0.21 0.008-0.025 0.001-0.045 0.001-0.060 0.001l-0.018 0h-0.009c-0 0-0.001 0-0.001-1-1 0-1-0-1-0.001v-0.003l0-0.006 0-0.018c0-0.015 0.001-0.035 0.001-0.060 0.001-0.050 0.004-0.121 0.008-0.209 0.009-0.177 0.028-0.425 0.064-0.726 0.072-0.599 0.216-1.419 0.508-2.295 0.577-1.734 1.795-3.849 4.338-4.704 0.523-0.176 1.091 0.106 1.267 0.629zM4.688 27.313h-1c0 0.552 0.448 1 1 1v-1z">
            </path>
            <path
                d="M26.474 5.527c0.167 1.161 0.231 4.018-2.694 6.942l-7.78 7.78-4.248-4.248 7.78-7.78c2.924-2.924 5.781-2.861 6.942-2.694zM26.764 3.548c-1.596-0.231-5.155-0.233-8.646 3.258l-8.488 8.488c-0.188 0.188-0.293 0.442-0.293 0.707s0.105 0.52 0.293 0.707l5.662 5.663c0.391 0.391 1.024 0.391 1.414 0l8.488-8.488c3.491-3.491 3.489-7.050 3.258-8.646-0.058-0.427-0.255-0.824-0.56-1.129s-0.701-0.502-1.129-0.56z">
            </path>
            <path
                d="M23.075 13.588c0.552 0 1 0.448 1 1v8.075l-0 0.014c-0.007 0.525-0.221 1.026-0.595 1.395l-4.036 4.048c-0.256 0.256-0.577 0.437-0.928 0.525s-0.72 0.079-1.066-0.027c-0.346-0.105-0.658-0.303-0.901-0.571s-0.408-0.597-0.479-0.952c-0-0 0 0 0 0l-1.050-5.237c-0.109-0.541 0.242-1.068 0.784-1.177s1.069 0.242 1.177 0.784l1.050 5.239 4.044-4.057v-8.061c0-0.552 0.448-1 1-1z">
            </path>
            <path
                d="M9.324 7.925l0.014-0h8.075c0.552 0 1 0.448 1 1s-0.448 1-1 1h-8.061l-0.008 0.008-0-0-4.047 4.036 5.238 1.050c0.541 0.109 0.892 0.636 0.784 1.177s-0.636 0.892-1.177 0.784l-5.236-1.050c-0-0-0.001-0-0.001-0-0.355-0.071-0.684-0.236-0.952-0.479s-0.466-0.555-0.571-0.901-0.114-0.715-0.027-1.066c0.088-0.351 0.269-0.672 0.525-0.928l0.002-0.002 4.047-4.034c0.369-0.374 0.87-0.588 1.395-0.595z">
            </path>
        </symbol>
        <symbol id="icon-eye" viewBox="0 0 34 32">
            <path
                d="M5.343 10.793c2.384-2.384 6.125-4.793 11.457-4.793s9.073 2.409 11.457 4.793c1.189 1.189 2.046 2.376 2.608 3.268 0.281 0.447 0.49 0.821 0.629 1.088 0.070 0.134 0.123 0.24 0.159 0.316 0.018 0.038 0.032 0.068 0.042 0.089l0.012 0.026 0.004 0.008 0.001 0.003 0 0.001c0 0 0 0.001-0.913 0.407 0.914 0.406 0.914 0.407 0.913 0.407l-0 0.001-0.001 0.003-0.004 0.008-0.012 0.026c-0.010 0.022-0.024 0.052-0.042 0.089-0.036 0.076-0.089 0.182-0.159 0.316-0.14 0.267-0.348 0.642-0.629 1.088-0.561 0.892-1.419 2.079-2.608 3.268-2.384 2.384-6.124 4.793-11.457 4.793s-9.073-2.409-11.457-4.793c-1.189-1.189-2.046-2.376-2.608-3.268-0.281-0.447-0.49-0.821-0.629-1.088-0.070-0.134-0.123-0.24-0.159-0.316-0.018-0.038-0.032-0.068-0.042-0.089l-0.012-0.026-0.004-0.008-0.001-0.003-0-0.001c-0-0-0-0.001 0.913-0.407-0.914-0.406-0.914-0.407-0.913-0.407l0-0.001 0.001-0.003 0.004-0.008 0.012-0.026c0.010-0.022 0.024-0.052 0.042-0.089 0.036-0.076 0.089-0.182 0.159-0.316 0.14-0.267 0.348-0.642 0.629-1.088 0.561-0.892 1.419-2.079 2.608-3.268zM2.8 16l-0.914-0.406c-0.115 0.259-0.115 0.554 0 0.812l0.914-0.406zM3.918 16c0.118 0.22 0.287 0.52 0.509 0.873 0.501 0.796 1.269 1.858 2.33 2.92 2.116 2.116 5.375 4.207 10.043 4.207s7.927-2.091 10.043-4.207c1.061-1.061 1.829-2.124 2.33-2.92 0.223-0.354 0.392-0.653 0.509-0.873-0.118-0.22-0.287-0.52-0.509-0.873-0.501-0.796-1.269-1.858-2.33-2.919-2.116-2.116-5.376-4.207-10.043-4.207s-7.927 2.091-10.043 4.207c-1.061 1.061-1.829 2.124-2.33 2.919-0.223 0.354-0.392 0.653-0.509 0.873zM30.8 16l0.914 0.406c0.115-0.259 0.115-0.554 0-0.812l-0.914 0.406z">
            </path>
            <path
                d="M16.8 12c-2.209 0-4 1.791-4 4s1.791 4 4 4c2.209 0 4-1.791 4-4s-1.791-4-4-4zM10.8 16c0-3.314 2.686-6 6-6s6 2.686 6 6c0 3.314-2.686 6-6 6s-6-2.686-6-6z">
            </path>
        </symbol>
        <symbol id="icon-art" viewBox="0 0 32 32">
            <path stroke-linejoin="round" stroke-linecap="round" stroke-miterlimit="4" stroke-width="1.2"
                d="M2.5 27h9c3.59 0 6.5-2.91 6.5-6.5s-2.91-6.5-6.5-6.5c-3.59 0-6.5 2.91-6.5 6.5v0c0 4.5-2.5 6.5-2.5 6.5z">
            </path>
            <path stroke-linejoin="round" stroke-linecap="round" stroke-miterlimit="4" stroke-width="1.2"
                d="M14.050 14.525c2.4-3.238 8.5-10.65 14.075-10.65 0 5.575-7.413 11.675-10.65 14.075"></path>
            <path stroke-linejoin="round" stroke-linecap="round" stroke-miterlimit="4" stroke-width="1.2"
                d="M16.625 11.325c1.703 0.973 3.076 2.347 4.022 3.998l0.028 0.052"></path>
        </symbol>
        <symbol id="icon-collectibles" viewBox="0 0 32 32">
            <path stroke-linejoin="round" stroke-linecap="round" stroke-miterlimit="4" stroke-width="1.2"
                d="M4.787 21.625l3.025-17.138c0.079-0.473 0.485-0.828 0.974-0.828 0.062 0 0.123 0.006 0.182 0.017l-0.006-0.001 6.9 1.212c0.473 0.091 0.826 0.502 0.826 0.995 0 0.059-0.005 0.117-0.015 0.173l0.001-0.006-3.037 17.238c-0.391 2.127-2.231 3.716-4.441 3.716-0.246 0-0.487-0.020-0.722-0.057l0.026 0.003c-2.488-0.4-4.15-2.837-3.712-5.325z">
            </path>
            <path stroke-linejoin="round" stroke-linecap="round" stroke-miterlimit="4" stroke-width="1.2"
                d="M14.988 15.6l9.112-3.312c0.103-0.039 0.222-0.062 0.346-0.062 0.431 0 0.798 0.273 0.939 0.655l0.002 0.007 2.4 6.575c0.037 0.1 0.058 0.215 0.058 0.335 0 0.43-0.271 0.796-0.651 0.937l-0.007 0.002-16.45 5.988">
            </path>
            <path stroke-linejoin="round" stroke-linecap="round" stroke-miterlimit="4" stroke-width="1.2"
                d="M27.7 20.312v5.688c0 0.552-0.448 1-1 1v0h-17.5"></path>
            <path
                d="M9.2 24c0.828 0 1.5-0.672 1.5-1.5s-0.672-1.5-1.5-1.5v0c-0.828 0-1.5 0.672-1.5 1.5s0.672 1.5 1.5 1.5v0z">
            </path>
        </symbol>
        <symbol id="icon-music" viewBox="0 0 32 32">
            <path stroke-linejoin="round" stroke-linecap="round" stroke-miterlimit="4" stroke-width="1.2"
                d="M22.5 25c1.933 0 3.5-1.567 3.5-3.5s-1.567-3.5-3.5-3.5v0c-1.933 0-3.5 1.567-3.5 3.5s1.567 3.5 3.5 3.5v0zM6.5 29c1.933 0 3.5-1.567 3.5-3.5s-1.567-3.5-3.5-3.5v0c-1.933 0-3.5 1.567-3.5 3.5s1.567 3.5 3.5 3.5v0zM26 10l-16 4">
            </path>
            <path stroke-linejoin="round" stroke-linecap="round" stroke-miterlimit="4" stroke-width="1.2"
                d="M10 25.5v-17.5l16-4v17.5"></path>
        </symbol>
        <symbol id="icon-photography" viewBox="0 0 32 32">
            <path stroke-linejoin="round" stroke-linecap="round" stroke-miterlimit="4" stroke-width="1.2"
                d="M26.2 26h-20c-1.105 0-2-0.895-2-2v0-14c0-1.105 0.895-2 2-2v0h4l2-3h8l2 3h4c1.105 0 2 0.895 2 2v0 14c0 1.105-0.895 2-2 2v0z">
            </path>
            <path stroke-linejoin="round" stroke-linecap="round" stroke-miterlimit="4" stroke-width="1.2"
                d="M16.2 21c2.485 0 4.5-2.015 4.5-4.5s-2.015-4.5-4.5-4.5-4.5 2.015-4.5 4.5 2.015 4.5 4.5 4.5z"></path>
        </symbol>
        <symbol id="icon-sport" viewBox="0 0 32 32">
            <path stroke-linejoin="round" stroke-linecap="round" stroke-miterlimit="4" stroke-width="1.2"
                d="M16 28c6.628 0 12-5.372 12-12s-5.372-12-12-12c-6.628 0-12 5.372-12 12s5.372 12 12 12z"></path>
            <path stroke-linejoin="round" stroke-linecap="round" stroke-miterlimit="4" stroke-width="1.2"
                d="M7.5 7.525c2.163 2.168 3.5 5.161 3.5 8.465 0 0.003 0 0.007 0 0.010v-0.001c0 0.003 0 0.006 0 0.010 0 3.305-1.337 6.297-3.5 8.466l0-0M24.5 7.525c-2.162 2.172-3.499 5.167-3.499 8.475s1.337 6.303 3.5 8.475l-0-0M4 16h24M16 4v24">
            </path>
        </symbol>
        <symbol id="icon-utility" viewBox="0 0 32 32">
            <path stroke-linejoin="round" stroke-linecap="round" stroke-miterlimit="4" stroke-width="1.2"
                d="M27.2 16v6M24.2 19h6M10.7 5v5M8.2 7.5h5M21.2 23v4M19.2 25h4M23.503 4.704l-18.588 18.588c-0.181 0.181-0.293 0.431-0.293 0.707s0.112 0.526 0.293 0.707l2.585 2.585c0.181 0.181 0.431 0.293 0.707 0.293s0.526-0.112 0.707-0.293l18.588-18.588c0.181-0.181 0.293-0.431 0.293-0.707s-0.112-0.526-0.293-0.707l-2.585-2.586c-0.181-0.181-0.431-0.293-0.707-0.293s-0.526 0.112-0.707 0.293v0zM18.2 10l4 4">
            </path>
        </symbol>
        <symbol id="icon-video" viewBox="0 0 32 32">
            <path stroke-linejoin="round" stroke-linecap="round" stroke-miterlimit="4" stroke-width="1.2"
                d="M3 7.5h16c2.209 0 4 1.791 4 4v0 12c0 0.552-0.448 1-1 1v0h-16c-2.209 0-4-1.791-4-4v0-12c0-0.552 0.448-1 1-1v0 0zM23 14l7-4v12l-7-4">
            </path>
        </symbol>
        <symbol id="icon-virtual-worlds" viewBox="0 0 32 32">
            <path stroke-linejoin="round" stroke-linecap="round" stroke-miterlimit="4" stroke-width="1.2"
                d="M16.2 27c6.075 0 11-4.925 11-11s-4.925-11-11-11-11 4.925-11 11 4.925 11 11 11z"></path>
            <path stroke-linejoin="round" stroke-linecap="round" stroke-miterlimit="4" stroke-width="1.2"
                d="M23.225 7.538c3.462-0.95 6.062-0.863 6.837 0.462 1.375 2.388-3.712 7.912-11.362 12.325s-14.975 6.062-16.362 3.675c-0.762-1.325 0.462-3.625 3.012-6.15">
            </path>
        </symbol>
        <symbol id="icon-glass" viewBox="0 0 32 32">
            <path
                d="M14.5 5c-5.247 0-9.5 4.253-9.5 9.5s4.253 9.5 9.5 9.5c5.247 0 9.5-4.253 9.5-9.5s-4.253-9.5-9.5-9.5zM3 14.5c0-6.351 5.149-11.5 11.5-11.5s11.5 5.149 11.5 11.5c0 6.351-5.149 11.5-11.5 11.5s-11.5-5.149-11.5-11.5z">
            </path>
            <path
                d="M21.217 21.217c0.391-0.391 1.024-0.391 1.414 0l6.075 6.075c0.391 0.391 0.391 1.024 0 1.414s-1.024 0.391-1.414 0l-6.075-6.075c-0.391-0.391-0.391-1.024 0-1.414z">
            </path>
        </symbol>
    </defs>
</svg>