<svg aria-hidden="true" style="position: absolute; width: 0; height: 0; overflow: hidden;" version="1.1" xmlns="http://www.w3.org/2000/svg" xmlns:xlink="http://www.w3.org/1999/xlink">
<defs>
<symbol id="account-password" viewBox="0 0 32 32">
<path d="M16 16c-0.828 0-1.5 0.672-1.5 1.5s0.672 1.5 1.5 1.5c0.828 0 1.5-0.672 1.5-1.5s-0.672-1.5-1.5-1.5zM12.5 17.5c0-1.933 1.567-3.5 3.5-3.5s3.5 1.567 3.5 3.5c0 1.933-1.567 3.5-3.5 3.5s-3.5-1.567-3.5-3.5z"></path>
<path d="M16 19c0.552 0 1 0.448 1 1v3c0 0.552-0.448 1-1 1s-1-0.448-1-1v-3c0-0.552 0.448-1 1-1z"></path>
<path d="M4 12c0-1.105 0.895-2 2-2h20c1.105 0 2 0.895 2 2v14c0 1.105-0.895 2-2 2h-20c-1.105 0-2-0.895-2-2v-14zM26 12h-20v14h20v-14z"></path>
<path d="M16 3c-0.928 0-1.819 0.369-2.475 1.025s-1.025 1.547-1.025 2.475v4.5c0 0.552-0.448 1-1 1s-1-0.448-1-1v-4.5c0-1.459 0.579-2.858 1.611-3.889s2.43-1.611 3.889-1.611c1.459 0 2.858 0.579 3.889 1.611s1.611 2.43 1.611 3.889v4.5c0 0.552-0.448 1-1 1s-1-0.448-1-1v-4.5c0-0.928-0.369-1.819-1.025-2.475s-1.547-1.025-2.475-1.025z"></path>
</symbol>
<symbol id="account-email" viewBox="0 0 32 32">
<path d="M3 7c0-0.552 0.448-1 1-1h24c0.552 0 1 0.448 1 1v17c0 0.53-0.211 1.039-0.586 1.414s-0.884 0.586-1.414 0.586h-22c-0.53 0-1.039-0.211-1.414-0.586s-0.586-0.884-0.586-1.414v-17zM5 8v16h22v-16h-22z"></path>
<path d="M3.263 6.324c0.373-0.407 1.006-0.435 1.413-0.061l11.324 10.38 11.324-10.38c0.407-0.373 1.040-0.346 1.413 0.061s0.346 1.040-0.061 1.413l-12 11c-0.382 0.351-0.969 0.351-1.351 0l-12-11c-0.407-0.373-0.435-1.006-0.061-1.413z"></path>
</symbol>
<symbol id="account-user" viewBox="0 0 32 32">
<path d="M16 5c-3.866 0-7 3.134-7 7s3.134 7 7 7c3.866 0 7-3.134 7-7s-3.134-7-7-7zM7 12c0-4.971 4.029-9 9-9s9 4.029 9 9c0 4.971-4.029 9-9 9s-9-4.029-9-9z"></path>
<path d="M16 20.998c-2.282 0-4.524 0.601-6.5 1.742s-3.617 2.782-4.758 4.759c-0.276 0.478-0.888 0.642-1.366 0.366s-0.642-0.888-0.366-1.366c1.316-2.281 3.21-4.175 5.49-5.491s4.867-2.010 7.501-2.010 5.22 0.693 7.501 2.010c2.28 1.317 4.174 3.211 5.49 5.491 0.276 0.478 0.112 1.090-0.366 1.366s-1.090 0.112-1.366-0.366c-1.141-1.977-2.782-3.618-4.758-4.759s-4.218-1.742-6.5-1.742z"></path>
</symbol>
<symbol id="header-nft-logo" viewBox="0 0 244 32">
<path fill="#a259ff" style="fill: var(--color1, #a259ff)" d="M6 12.451c0.552 0 1 0.448 1 1v12.55h18v-12.55c0-0.552 0.448-1 1-1s1 0.448 1 1v12.55c0 0.53-0.211 1.039-0.586 1.414s-0.884 0.586-1.414 0.586h-18c-0.53 0-1.039-0.211-1.414-0.586s-0.586-0.884-0.586-1.414v-12.55c0-0.552 0.448-1 1-1z"></path>
<path fill="#a259ff" style="fill: var(--color1, #a259ff)" d="M3 5c0-0.552 0.448-1 1-1h24c0.552 0 1 0.448 1 1s-0.448 1-1 1h-24c-0.552 0-1-0.448-1-1z"></path>
<path fill="#a259ff" style="fill: var(--color1, #a259ff)" d="M4 7c0.552 0 1 0.448 1 1v2c0 0.796 0.316 1.559 0.879 2.121s1.326 0.879 2.121 0.879c0.796 0 1.559-0.316 2.121-0.879s0.879-1.326 0.879-2.121v-2c0-0.552 0.448-1 1-1s1 0.448 1 1v2c0 1.326-0.527 2.598-1.464 3.535s-2.209 1.465-3.536 1.465-2.598-0.527-3.536-1.465c-0.938-0.938-1.464-2.209-1.464-3.535v-2c0-0.552 0.448-1 1-1z"></path>
<path fill="#a259ff" style="fill: var(--color1, #a259ff)" d="M12 7c0.552 0 1 0.448 1 1v2c0 0.796 0.316 1.559 0.879 2.121s1.326 0.879 2.121 0.879 1.559-0.316 2.121-0.879c0.563-0.563 0.879-1.326 0.879-2.121v-2c0-0.552 0.448-1 1-1s1 0.448 1 1v2c0 1.326-0.527 2.598-1.465 3.535s-2.209 1.465-3.535 1.465-2.598-0.527-3.536-1.465c-0.938-0.938-1.464-2.209-1.464-3.535v-2c0-0.552 0.448-1 1-1z"></path>
<path fill="#a259ff" style="fill: var(--color1, #a259ff)" d="M20 7c0.552 0 1 0.448 1 1v2c0 0.796 0.316 1.559 0.879 2.121s1.326 0.879 2.121 0.879 1.559-0.316 2.121-0.879c0.563-0.563 0.879-1.326 0.879-2.121v-2c0-0.552 0.448-1 1-1s1 0.448 1 1v2c0 1.326-0.527 2.598-1.465 3.535s-2.209 1.465-3.535 1.465-2.598-0.527-3.535-1.465c-0.938-0.938-1.465-2.209-1.465-3.535v-2c0-0.552 0.448-1 1-1z"></path>
<path fill="#fff" style="fill: var(--color2, #fff)" d="M51.48 22.547h0.396v-13.948h2.904v15.4h-5.676l-1.804-13.948h-0.396v13.948h-2.904v-15.4h5.676l1.804 13.948z"></path>
<path fill="#fff" style="fill: var(--color2, #fff)" d="M58.065 8.599h9.856v2.772h-6.952v3.52h6.82v2.772h-6.82v6.336h-2.904v-15.4z"></path>
<path fill="#fff" style="fill: var(--color2, #fff)" d="M70.787 8.599h11.088v2.772h-4.092v12.628h-2.904v-12.628h-4.092v-2.772z"></path>
<path fill="#fff" style="fill: var(--color2, #fff)" d="M97.025 8.599h5.104l0.88 11.572v2.244h0.528v-2.244l0.88-11.572h5.104v15.4h-2.64v-10.296l0.264-3.52h-0.528l-1.144 13.816h-4.356l-1.188-13.816h-0.528l0.264 3.52v10.296h-2.64v-15.4z"></path>
<path fill="#fff" style="fill: var(--color2, #fff)" d="M118.789 22.415c-0.293 0.689-0.704 1.181-1.232 1.474-0.528 0.279-1.144 0.418-1.848 0.418-0.66 0-1.283-0.125-1.87-0.374-0.572-0.249-1.078-0.616-1.518-1.1s-0.792-1.071-1.056-1.76c-0.249-0.689-0.374-1.474-0.374-2.354v-0.352c0-0.865 0.125-1.643 0.374-2.332s0.587-1.276 1.012-1.76c0.425-0.484 0.917-0.851 1.474-1.1 0.572-0.264 1.181-0.396 1.826-0.396 0.777 0 1.401 0.132 1.87 0.396 0.484 0.264 0.865 0.675 1.144 1.232h0.396v-1.32h2.772v7.612c0 0.44 0.198 0.66 0.594 0.66h0.418v2.64h-1.892c-0.499 0-0.909-0.147-1.232-0.44-0.308-0.293-0.462-0.675-0.462-1.144h-0.396zM116.325 21.667c0.807 0 1.452-0.264 1.936-0.792 0.484-0.543 0.726-1.276 0.726-2.2v-0.264c0-0.924-0.242-1.65-0.726-2.178-0.484-0.543-1.129-0.814-1.936-0.814s-1.452 0.271-1.936 0.814c-0.484 0.528-0.726 1.254-0.726 2.178v0.264c0 0.924 0.242 1.657 0.726 2.2 0.484 0.528 1.129 0.792 1.936 0.792z"></path>
<path fill="#fff" style="fill: var(--color2, #fff)" d="M124.67 13.087h4.62v1.584h0.396c0.205-0.601 0.55-1.063 1.034-1.386 0.499-0.337 1.093-0.506 1.782-0.506 1.086 0 1.958 0.345 2.618 1.034 0.66 0.675 0.991 1.709 0.991 3.102v0.484l-2.86 0.264v-0.308c0-0.601-0.154-1.078-0.462-1.43-0.308-0.367-0.77-0.55-1.386-0.55s-1.1 0.213-1.452 0.638c-0.352 0.425-0.528 1.034-0.528 1.826v3.52h2.508v2.64h-7.524v-2.64h2.244v-5.632h-1.98v-2.64z"></path>
<path fill="#fff" style="fill: var(--color2, #fff)" d="M142.321 17.091h0.528l2.904-4.004h3.036v0.132l-3.52 4.994v0.396l3.872 5.258v0.132h-3.168l-3.124-4.268h-0.528v4.268h-2.772v-15.4h2.772v8.492z"></path>
<path fill="#fff" style="fill: var(--color2, #fff)" d="M154.581 19.445c0.015 0.323 0.088 0.623 0.22 0.902 0.147 0.264 0.337 0.499 0.572 0.704 0.249 0.191 0.528 0.345 0.836 0.462 0.323 0.103 0.66 0.154 1.012 0.154 0.689 0 1.217-0.117 1.584-0.352 0.367-0.249 0.631-0.543 0.792-0.88l2.376 1.32c-0.132 0.279-0.315 0.572-0.549 0.88-0.235 0.293-0.543 0.565-0.924 0.814-0.367 0.249-0.821 0.455-1.364 0.616-0.528 0.161-1.152 0.242-1.871 0.242-0.821 0-1.569-0.132-2.244-0.396s-1.261-0.645-1.76-1.144c-0.484-0.499-0.865-1.107-1.144-1.826-0.264-0.719-0.396-1.533-0.396-2.442v-0.132c0-0.836 0.14-1.599 0.419-2.288 0.293-0.689 0.689-1.276 1.188-1.76s1.077-0.858 1.737-1.122c0.675-0.279 1.393-0.418 2.156-0.418 0.939 0 1.745 0.169 2.42 0.506 0.675 0.323 1.232 0.741 1.672 1.254 0.44 0.499 0.763 1.056 0.968 1.672 0.205 0.601 0.308 1.188 0.308 1.76v1.474h-8.008zM157.2 15.287c-0.704 0-1.276 0.183-1.716 0.55-0.44 0.352-0.727 0.763-0.859 1.232h5.148c-0.088-0.513-0.367-0.939-0.836-1.276-0.455-0.337-1.033-0.506-1.737-0.506z"></path>
<path fill="#fff" style="fill: var(--color2, #fff)" d="M165.303 13.087h3.233v-4.488h2.772v4.488h3.939v2.64h-3.939v4.972c0 0.44 0.199 0.66 0.595 0.66h2.948v2.64h-4.62c-0.499 0-0.909-0.161-1.232-0.484-0.308-0.323-0.463-0.733-0.463-1.232v-6.556h-3.233v-2.64z"></path>
<path fill="#fff" style="fill: var(--color2, #fff)" d="M181.281 28.399h-2.772v-15.312h2.772v1.584h0.396c0.293-0.601 0.719-1.063 1.276-1.386 0.557-0.337 1.268-0.506 2.133-0.506 0.645 0 1.255 0.125 1.827 0.374 0.587 0.249 1.092 0.616 1.517 1.1 0.44 0.469 0.785 1.049 1.035 1.738 0.264 0.689 0.396 1.474 0.396 2.354v0.396c0 0.895-0.125 1.687-0.375 2.376s-0.587 1.276-1.012 1.76c-0.425 0.469-0.931 0.829-1.517 1.078-0.572 0.235-1.196 0.352-1.871 0.352-0.499 0-0.931-0.051-1.297-0.154s-0.689-0.242-0.968-0.418c-0.264-0.176-0.492-0.374-0.683-0.594-0.176-0.235-0.329-0.477-0.461-0.726h-0.396v5.984zM184.185 21.667c0.865 0 1.561-0.264 2.089-0.792 0.543-0.543 0.815-1.276 0.815-2.2v-0.264c0-0.924-0.272-1.65-0.815-2.178-0.528-0.543-1.224-0.814-2.089-0.814s-1.569 0.279-2.112 0.836c-0.528 0.543-0.792 1.261-0.792 2.156v0.264c0 0.895 0.264 1.621 0.792 2.178 0.543 0.543 1.247 0.814 2.112 0.814z"></path>
<path fill="#fff" style="fill: var(--color2, #fff)" d="M192.485 21.359h3.828v-10.12h-3.696v-2.64h6.468v12.76h3.564v2.64h-10.164v-2.64z"></path>
<path fill="#fff" style="fill: var(--color2, #fff)" d="M213.084 22.415c-0.293 0.689-0.704 1.181-1.232 1.474-0.528 0.279-1.144 0.418-1.848 0.418-0.66 0-1.283-0.125-1.869-0.374-0.572-0.249-1.079-0.616-1.519-1.1s-0.792-1.071-1.056-1.76c-0.249-0.689-0.373-1.474-0.373-2.354v-0.352c0-0.865 0.124-1.643 0.373-2.332s0.587-1.276 1.012-1.76c0.425-0.484 0.917-0.851 1.475-1.1 0.572-0.264 1.18-0.396 1.825-0.396 0.777 0 1.401 0.132 1.871 0.396 0.484 0.264 0.865 0.675 1.144 1.232h0.396v-1.32h2.772v7.612c0 0.44 0.197 0.66 0.593 0.66h0.419v2.64h-1.892c-0.499 0-0.909-0.147-1.232-0.44-0.308-0.293-0.463-0.675-0.463-1.144h-0.396zM210.62 21.667c0.807 0 1.452-0.264 1.936-0.792 0.484-0.543 0.727-1.276 0.727-2.2v-0.264c0-0.924-0.243-1.65-0.727-2.178-0.484-0.543-1.129-0.814-1.936-0.814s-1.452 0.271-1.936 0.814c-0.484 0.528-0.725 1.254-0.725 2.178v0.264c0 0.924 0.241 1.657 0.725 2.2 0.484 0.528 1.129 0.792 1.936 0.792z"></path>
<path fill="#fff" style="fill: var(--color2, #fff)" d="M230.141 19.995c-0.249 1.291-0.844 2.332-1.783 3.124-0.924 0.792-2.163 1.188-3.717 1.188-0.807 0-1.563-0.125-2.267-0.374-0.689-0.249-1.291-0.609-1.804-1.078s-0.916-1.049-1.209-1.738c-0.293-0.689-0.44-1.474-0.44-2.354v-0.264c0-0.88 0.147-1.672 0.44-2.376s0.696-1.305 1.209-1.804c0.528-0.499 1.137-0.88 1.827-1.144 0.704-0.264 1.452-0.396 2.244-0.396 1.525 0 2.757 0.396 3.696 1.188 0.953 0.792 1.555 1.833 1.804 3.124l-2.728 0.704c-0.088-0.645-0.367-1.203-0.836-1.672s-1.129-0.704-1.98-0.704c-0.396 0-0.771 0.073-1.123 0.22s-0.66 0.359-0.924 0.638c-0.264 0.264-0.476 0.594-0.637 0.99-0.147 0.381-0.22 0.814-0.22 1.298v0.132c0 0.484 0.073 0.917 0.22 1.298 0.161 0.367 0.373 0.675 0.637 0.924s0.572 0.44 0.924 0.572c0.352 0.117 0.727 0.176 1.123 0.176 0.851 0 1.496-0.213 1.936-0.638 0.455-0.425 0.748-0.997 0.88-1.716l2.728 0.682z"></path>
<path fill="#fff" style="fill: var(--color2, #fff)" d="M235.405 19.445c0.015 0.323 0.088 0.623 0.22 0.902 0.147 0.264 0.337 0.499 0.572 0.704 0.249 0.191 0.528 0.345 0.836 0.462 0.323 0.103 0.66 0.154 1.012 0.154 0.689 0 1.217-0.117 1.584-0.352 0.367-0.249 0.631-0.543 0.792-0.88l2.376 1.32c-0.132 0.279-0.315 0.572-0.549 0.88-0.235 0.293-0.543 0.565-0.924 0.814-0.367 0.249-0.821 0.455-1.364 0.616-0.528 0.161-1.152 0.242-1.871 0.242-0.821 0-1.569-0.132-2.244-0.396s-1.261-0.645-1.76-1.144c-0.484-0.499-0.865-1.107-1.144-1.826-0.264-0.719-0.396-1.533-0.396-2.442v-0.132c0-0.836 0.14-1.599 0.419-2.288 0.293-0.689 0.689-1.276 1.188-1.76s1.077-0.858 1.737-1.122c0.675-0.279 1.393-0.418 2.156-0.418 0.939 0 1.745 0.169 2.42 0.506 0.675 0.323 1.232 0.741 1.672 1.254 0.44 0.499 0.763 1.056 0.968 1.672 0.205 0.601 0.308 1.188 0.308 1.76v1.474h-8.008zM238.024 15.287c-0.704 0-1.276 0.183-1.716 0.55-0.44 0.352-0.727 0.763-0.859 1.232h5.148c-0.088-0.513-0.367-0.939-0.836-1.276-0.455-0.337-1.033-0.506-1.737-0.506z"></path>
</symbol>
<symbol id="header-burger-menu" viewBox="0 0 32 32">
<path d="M4 16c0-0.552 0.448-1 1-1h22c0.552 0 1 0.448 1 1s-0.448 1-1 1h-22c-0.552 0-1-0.448-1-1z"></path>
<path d="M4 8c0-0.552 0.448-1 1-1h15c0.552 0 1 0.448 1 1s-0.448 1-1 1h-15c-0.552 0-1-0.448-1-1z"></path>
<path d="M4 24c0-0.552 0.448-1 1-1h15c0.552 0 1 0.448 1 1s-0.448 1-1 1h-15c-0.552 0-1-0.448-1-1z"></path>
</symbol>
<symbol id="header-sign-up-user" viewBox="0 0 32 32">
<path d="M16 5c-3.866 0-7 3.134-7 7s3.134 7 7 7c3.866 0 7-3.134 7-7s-3.134-7-7-7zM7 12c0-4.971 4.029-9 9-9s9 4.029 9 9c0 4.971-4.029 9-9 9s-9-4.029-9-9z"></path>
<path d="M16 20.998c-2.282 0-4.524 0.601-6.5 1.742s-3.617 2.782-4.758 4.759c-0.276 0.478-0.888 0.642-1.366 0.366s-0.642-0.888-0.366-1.366c1.316-2.281 3.21-4.175 5.49-5.491s4.867-2.010 7.501-2.010 5.22 0.693 7.501 2.010c2.28 1.317 4.174 3.211 5.49 5.491 0.276 0.478 0.112 1.090-0.366 1.366s-1.090 0.112-1.366-0.366c-1.141-1.977-2.782-3.618-4.758-4.759s-4.218-1.742-6.5-1.742z"></path>
</symbol>
<symbol id="wallet-connect" viewBox="0 0 33 32">
<g clip-path="url(#clip0_4248_8110)">
<path d="M16.5 32C25.3366 32 32.5 24.8366 32.5 16C32.5 7.16344 25.3366 0 16.5 0C7.66344 0 0.5 7.16344 0.5 16C0.5 24.8366 7.66344 32 16.5 32Z" fill="url(#paint0_radial_4248_8110)"/>
<path d="M10.5469 12.3578C13.7656 9.21406 18.9906 9.21406 22.2094 12.3578L22.5969 12.7391C22.7594 12.8953 22.7594 13.1516 22.5969 13.3078L21.2719 14.6016C21.1906 14.6828 21.0594 14.6828 20.9781 14.6016L20.4469 14.0828C18.1969 11.8891 14.5594 11.8891 12.3094 14.0828L11.7406 14.6391C11.6594 14.7203 11.5281 14.7203 11.4469 14.6391L10.1219 13.3453C9.95938 13.1891 9.95938 12.9328 10.1219 12.7766L10.5469 12.3578ZM24.9531 15.0328L26.1344 16.1828C26.2969 16.3391 26.2969 16.5953 26.1344 16.7516L20.8156 21.9453C20.6531 22.1016 20.3906 22.1016 20.2344 21.9453L16.4594 18.2578C16.4219 18.2203 16.3531 18.2203 16.3156 18.2578L12.5406 21.9453C12.3781 22.1016 12.1156 22.1016 11.9594 21.9453L6.62187 16.7516C6.45938 16.5953 6.45938 16.3391 6.62187 16.1828L7.80312 15.0328C7.96562 14.8766 8.22813 14.8766 8.38438 15.0328L12.1594 18.7203C12.1969 18.7578 12.2656 18.7578 12.3031 18.7203L16.0781 15.0328C16.2406 14.8766 16.5031 14.8766 16.6594 15.0328L20.4344 18.7203C20.4719 18.7578 20.5406 18.7578 20.5781 18.7203L24.3531 15.0328C24.5281 14.8766 24.7906 14.8766 24.9531 15.0328Z" fill="white"/>
</g>
<defs>
<radialGradient id="paint0_radial_4248_8110" cx="0" cy="0" r="1" gradientUnits="userSpaceOnUse" gradientTransform="translate(0.500099 16.0005) scale(32)">
<stop stop-color="#5D9DF6"/>
<stop offset="1" stop-color="#006FFF"/>
</radialGradient>
<clipPath id="clip0_4248_8110">
<rect width="32" height="32" fill="white" transform="translate(0.5)"/>
</clipPath>
</defs>
</symbol>
<symbol id="wallet-coinbase" viewBox="0 0 33 32">
<g clip-path="url(#clip0_4248_8116)">
<path d="M16.5 32C25.3366 32 32.5 24.8366 32.5 16C32.5 7.16344 25.3366 0 16.5 0C7.66344 0 0.5 7.16344 0.5 16C0.5 24.8366 7.66344 32 16.5 32Z" fill="#0052FF"/>
<path fill-rule="evenodd" clip-rule="evenodd" d="M5.25 16C5.25 22.2132 10.2868 27.25 16.5 27.25C22.7132 27.25 27.75 22.2132 27.75 16C27.75 9.78678 22.7132 4.75 16.5 4.75C10.2868 4.75 5.25 9.78678 5.25 16ZM13.625 12.375C13.2108 12.375 12.875 12.7108 12.875 13.125V18.875C12.875 19.2892 13.2108 19.625 13.625 19.625H19.375C19.7892 19.625 20.125 19.2892 20.125 18.875V13.125C20.125 12.7108 19.7892 12.375 19.375 12.375H13.625Z" fill="white"/>
</g>
<defs>
<clipPath id="clip0_4248_8116">
<rect width="32" height="32" fill="white" transform="translate(0.5)"/>
</clipPath>
</defs>
</symbol>
<symbol id="wallet-metamask" viewBox="0 0 33 32">
<g clip-path="url(#clip0_4248_8071)">
<path d="M30.9062 1.25L18.4199 10.5237L20.7289 5.05235L30.9062 1.25Z" fill="#E2761B" stroke="#E2761B" stroke-width="0.3125" stroke-linecap="round" stroke-linejoin="round"/>
<path d="M2.08203 1.25L14.4679 10.6116L12.2718 5.05235L2.08203 1.25Z" fill="#E4761B" stroke="#E4761B" stroke-width="0.3125" stroke-linecap="round" stroke-linejoin="round"/>
<path d="M26.4134 22.7461L23.0879 27.841L30.2032 29.7986L32.2487 22.859L26.4134 22.7461Z" fill="#E4761B" stroke="#E4761B" stroke-width="0.3125" stroke-linecap="round" stroke-linejoin="round"/>
<path d="M0.763672 22.859L2.79661 29.7986L9.91191 27.841L6.58642 22.7461L0.763672 22.859Z" fill="#E4761B" stroke="#E4761B" stroke-width="0.3125" stroke-linecap="round" stroke-linejoin="round"/>
<path d="M9.51009 14.1386L7.52734 17.1378L14.5924 17.4515L14.3415 9.85938L9.51009 14.1386Z" fill="#E4761B" stroke="#E4761B" stroke-width="0.3125" stroke-linecap="round" stroke-linejoin="round"/>
<path d="M23.4772 14.1385L18.5831 9.77148L18.4199 17.4515L25.4725 17.1378L23.4772 14.1385Z" fill="#E4761B" stroke="#E4761B" stroke-width="0.3125" stroke-linecap="round" stroke-linejoin="round"/>
<path d="M9.91211 27.8419L14.1537 25.7713L10.4894 22.9102L9.91211 27.8419Z" fill="#E4761B" stroke="#E4761B" stroke-width="0.3125" stroke-linecap="round" stroke-linejoin="round"/>
<path d="M18.834 25.7713L23.0881 27.8419L22.4983 22.9102L18.834 25.7713Z" fill="#E4761B" stroke="#E4761B" stroke-width="0.3125" stroke-linecap="round" stroke-linejoin="round"/>
<path d="M23.0881 27.8421L18.834 25.7715L19.1728 28.5448L19.1352 29.7119L23.0881 27.8421Z" fill="#D7C1B3" stroke="#D7C1B3" stroke-width="0.3125" stroke-linecap="round" stroke-linejoin="round"/>
<path d="M9.91211 27.8421L13.8651 29.7119L13.84 28.5448L14.1537 25.7715L9.91211 27.8421Z" fill="#D7C1B3" stroke="#D7C1B3" stroke-width="0.3125" stroke-linecap="round" stroke-linejoin="round"/>
<path d="M13.9275 21.0781L10.3887 20.0365L12.8859 18.8945L13.9275 21.0781Z" fill="#233447" stroke="#233447" stroke-width="0.3125" stroke-linecap="round" stroke-linejoin="round"/>
<path d="M19.0605 21.0781L20.1021 18.8945L22.6119 20.0365L19.0605 21.0781Z" fill="#233447" stroke="#233447" stroke-width="0.3125" stroke-linecap="round" stroke-linejoin="round"/>
<path d="M9.91143 27.841L10.5138 22.7461L6.58594 22.859L9.91143 27.841Z" fill="#CD6116" stroke="#CD6116" stroke-width="0.3125" stroke-linecap="round" stroke-linejoin="round"/>
<path d="M22.4863 22.7461L23.0887 27.841L26.4142 22.859L22.4863 22.7461Z" fill="#CD6116" stroke="#CD6116" stroke-width="0.3125" stroke-linecap="round" stroke-linejoin="round"/>
<path d="M25.4725 17.1367L18.4199 17.4504L19.0725 21.0771L20.114 18.8936L22.6238 20.0355L25.4725 17.1367Z" fill="#CD6116" stroke="#CD6116" stroke-width="0.3125" stroke-linecap="round" stroke-linejoin="round"/>
<path d="M10.3885 20.0355L12.8983 18.8936L13.9273 21.0771L14.5924 17.4504L7.52734 17.1367L10.3885 20.0355Z" fill="#CD6116" stroke="#CD6116" stroke-width="0.3125" stroke-linecap="round" stroke-linejoin="round"/>
<path d="M7.52734 17.1367L10.4889 22.9093L10.3885 20.0355L7.52734 17.1367Z" fill="#E4751F" stroke="#E4751F" stroke-width="0.3125" stroke-linecap="round" stroke-linejoin="round"/>
<path d="M22.6235 20.0355L22.498 22.9093L25.4722 17.1367L22.6235 20.0355Z" fill="#E4751F" stroke="#E4751F" stroke-width="0.3125" stroke-linecap="round" stroke-linejoin="round"/>
<path d="M14.5928 17.4512L13.9277 21.0778L14.756 25.3571L14.9442 19.7225L14.5928 17.4512Z" fill="#E4751F" stroke="#E4751F" stroke-width="0.3125" stroke-linecap="round" stroke-linejoin="round"/>
<path d="M18.4209 17.4512L18.082 19.71L18.2326 25.3571L19.0734 21.0778L18.4209 17.4512Z" fill="#E4751F" stroke="#E4751F" stroke-width="0.3125" stroke-linecap="round" stroke-linejoin="round"/>
<path d="M19.0732 21.0767L18.2324 25.3559L18.8348 25.7701L22.4991 22.9089L22.6246 20.0352L19.0732 21.0767Z" fill="#F6851B" stroke="#F6851B" stroke-width="0.3125" stroke-linecap="round" stroke-linejoin="round"/>
<path d="M10.3887 20.0352L10.4891 22.9089L14.1534 25.7701L14.7557 25.3559L13.9275 21.0767L10.3887 20.0352Z" fill="#F6851B" stroke="#F6851B" stroke-width="0.3125" stroke-linecap="round" stroke-linejoin="round"/>
<path d="M19.1356 29.7116L19.1733 28.5445L18.8596 28.2685H14.1286L13.84 28.5445L13.8651 29.7116L9.91211 27.8418L11.2925 28.9712L14.0909 30.9163H18.8972L21.7082 28.9712L23.0886 27.8418L19.1356 29.7116Z" fill="#C0AD9E" stroke="#C0AD9E" stroke-width="0.3125" stroke-linecap="round" stroke-linejoin="round"/>
<path d="M18.8344 25.7715L18.232 25.3574H14.7559L14.1536 25.7715L13.8398 28.5449L14.1285 28.2688H18.8595L19.1732 28.5449L18.8344 25.7715Z" fill="#161616" stroke="#161616" stroke-width="0.3125" stroke-linecap="round" stroke-linejoin="round"/>
<path d="M31.4332 11.1261L32.4999 6.00608L30.9061 1.25L18.834 10.21L23.4771 14.1378L30.0403 16.0578L31.4959 14.3637L30.8685 13.912L31.8724 12.9959L31.0944 12.3935L32.0983 11.628L31.4332 11.1261Z" fill="#763D16" stroke="#763D16" stroke-width="0.3125" stroke-linecap="round" stroke-linejoin="round"/>
<path d="M0.5 6.00608L1.56667 11.1261L0.88902 11.628L1.89294 12.3935L1.12745 12.9959L2.13137 13.912L1.50392 14.3637L2.94706 16.0578L9.5102 14.1378L14.1533 10.21L2.08118 1.25L0.5 6.00608Z" fill="#763D16" stroke="#763D16" stroke-width="0.3125" stroke-linecap="round" stroke-linejoin="round"/>
<path d="M30.04 16.0587L23.4769 14.1387L25.4722 17.1379L22.498 22.9104L26.4133 22.8602H32.2486L30.04 16.0587Z" fill="#F6851B" stroke="#F6851B" stroke-width="0.3125" stroke-linecap="round" stroke-linejoin="round"/>
<path d="M9.51034 14.1387L2.9472 16.0587L0.763672 22.8602H6.58642L10.4892 22.9104L7.52759 17.1379L9.51034 14.1387Z" fill="#F6851B" stroke="#F6851B" stroke-width="0.3125" stroke-linecap="round" stroke-linejoin="round"/>
<path d="M18.4205 17.4512L18.8346 10.2104L20.7421 5.05273H12.2715L14.1538 10.2104L14.5931 17.4512L14.7436 19.7351L14.7562 25.357H18.2323L18.2574 19.7351L18.4205 17.4512Z" fill="#F6851B" stroke="#F6851B" stroke-width="0.3125" stroke-linecap="round" stroke-linejoin="round"/>
</g>
<defs>
<clipPath id="clip0_4248_8071">
<rect width="32" height="32" fill="white" transform="translate(0.5)"/>
</clipPath>
</defs></symbol>
<symbol id="icon-RocketLaunch" viewBox="0 0 32 32">
<path d="M9.873 19.919c0.176 0.524-0.106 1.091-0.629 1.267-1.695 0.57-2.596 1.993-3.078 3.44-0.191 0.575-0.307 1.128-0.376 1.585 0.457-0.069 1.011-0.185 1.585-0.376 1.447-0.482 2.87-1.383 3.44-3.078 0.176-0.523 0.743-0.805 1.267-0.629s0.805 0.743 0.629 1.267c-0.855 2.542-2.97 3.76-4.704 4.338-0.876 0.292-1.696 0.436-2.295 0.508-0.301 0.036-0.549 0.054-0.726 0.064-0.088 0.005-0.159 0.007-0.21 0.008-0.025 0.001-0.045 0.001-0.060 0.001l-0.018 0h-0.009c-0 0-0.001 0-0.001-1-1 0-1-0-1-0.001v-0.003l0-0.006 0-0.018c0-0.015 0.001-0.035 0.001-0.060 0.001-0.050 0.004-0.121 0.008-0.209 0.009-0.177 0.028-0.425 0.064-0.726 0.072-0.599 0.216-1.419 0.508-2.295 0.577-1.734 1.795-3.849 4.338-4.704 0.523-0.176 1.091 0.106 1.267 0.629zM4.688 27.313h-1c0 0.552 0.448 1 1 1v-1z"></path>
<path d="M26.474 5.527c0.167 1.161 0.231 4.018-2.694 6.942l-7.78 7.78-4.248-4.248 7.78-7.78c2.924-2.924 5.781-2.861 6.942-2.694zM26.764 3.548c-1.596-0.231-5.155-0.233-8.646 3.258l-8.488 8.488c-0.188 0.188-0.293 0.442-0.293 0.707s0.105 0.52 0.293 0.707l5.662 5.663c0.391 0.391 1.024 0.391 1.414 0l8.488-8.488c3.491-3.491 3.489-7.050 3.258-8.646-0.058-0.427-0.255-0.824-0.56-1.129s-0.701-0.502-1.129-0.56z"></path>
<path d="M23.075 13.588c0.552 0 1 0.448 1 1v8.075l-0 0.014c-0.007 0.525-0.221 1.026-0.595 1.395l-4.036 4.048c-0.256 0.256-0.577 0.437-0.928 0.525s-0.72 0.079-1.066-0.027c-0.346-0.105-0.658-0.303-0.901-0.571s-0.408-0.597-0.479-0.952c-0-0 0 0 0 0l-1.050-5.237c-0.109-0.541 0.242-1.068 0.784-1.177s1.069 0.242 1.177 0.784l1.050 5.239 4.044-4.057v-8.061c0-0.552 0.448-1 1-1z"></path>
<path d="M9.324 7.925l0.014-0h8.075c0.552 0 1 0.448 1 1s-0.448 1-1 1h-8.061l-0.008 0.008-0-0-4.047 4.036 5.238 1.050c0.541 0.109 0.892 0.636 0.784 1.177s-0.636 0.892-1.177 0.784l-5.236-1.050c-0-0-0.001-0-0.001-0-0.355-0.071-0.684-0.236-0.952-0.479s-0.466-0.555-0.571-0.901-0.114-0.715-0.027-1.066c0.088-0.351 0.269-0.672 0.525-0.928l0.002-0.002 4.047-4.034c0.369-0.374 0.87-0.588 1.395-0.595z"></path>
</symbol>
<symbol id="creators-rocket" viewBox="0 0 20 20" >
  <path fill-rule="evenodd" clip-rule="evenodd" d="M6.17053 12.4494C6.28055 12.7766 6.10451 13.131 5.77734 13.241C4.71792 13.5973 4.15489 14.4866 3.85373 15.391C3.73414 15.7501 3.66189 16.0958 3.61848 16.3817C3.90434 16.3383 4.25006 16.266 4.60917 16.1464C5.51355 15.8453 6.4029 15.2823 6.75916 14.2228C6.86918 13.8957 7.2236 13.7196 7.55078 13.8296C7.87795 13.9397 8.05399 14.2941 7.94396 14.6213C7.4096 16.2103 6.08801 16.9715 5.00411 17.3324C4.45655 17.5148 3.94395 17.6048 3.5698 17.6497C3.38182 17.6722 3.22641 17.6836 3.116 17.6894C3.06074 17.6924 3.01658 17.6939 2.98505 17.6946C2.96928 17.695 2.95666 17.6952 2.94737 17.6954L2.93596 17.6955L2.93217 17.6955L2.93077 17.6955L2.93019 17.6955C2.92993 17.6955 2.92969 17.6955 2.92969 17.0705C2.30469 17.0705 2.30469 17.0702 2.30469 17.07L2.30469 17.0694L2.30469 17.068L2.30471 17.0642L2.30481 17.0528C2.30493 17.0435 2.30514 17.0309 2.30553 17.0151C2.30631 16.9836 2.30782 16.9394 2.31072 16.8842C2.31653 16.7738 2.32797 16.6184 2.35052 16.4304C2.3954 16.0562 2.48542 15.5436 2.66776 14.9961C3.0287 13.9122 3.78989 12.5906 5.37891 12.0562C5.70608 11.9462 6.0605 12.1222 6.17053 12.4494ZM2.92969 17.0705H2.30469C2.30469 17.4157 2.58451 17.6955 2.92969 17.6955V17.0705Z" fill="#A259FF" />
  <path fill-rule="evenodd" clip-rule="evenodd" d="M16.5462 3.45406C15.8208 3.34943 14.0351 3.31002 12.2076 5.13753L7.34482 10.0003L10 12.6555L14.8627 7.79271C16.6903 5.9652 16.6508 4.17951 16.5462 3.45406ZM16.7275 2.21727C15.7298 2.07282 13.5058 2.07157 11.3237 4.25365L6.019 9.55834C5.90179 9.67555 5.83594 9.83452 5.83594 10.0003C5.83594 10.166 5.90179 10.325 6.019 10.4422L9.55806 13.9813C9.80214 14.2254 10.1979 14.2254 10.4419 13.9813L15.7466 8.67659C17.9287 6.49452 17.9275 4.27052 17.783 3.27282C17.7465 3.0058 17.6235 2.75803 17.4329 2.5674C17.2422 2.37678 16.9945 2.25382 16.7275 2.21727Z" fill="#A259FF" />
  <path fill-rule="evenodd" clip-rule="evenodd" d="M14.422 8.49219C14.7672 8.49219 15.047 8.77201 15.047 9.11719V14.1641L15.0469 14.173C15.0423 14.5013 14.9086 14.8145 14.675 15.045L12.1527 17.575C11.9926 17.7349 11.7921 17.8484 11.5725 17.9033C11.353 17.9582 11.1227 17.9524 10.9061 17.8867C10.6896 17.8209 10.495 17.6976 10.343 17.5299C10.1912 17.3623 10.0877 17.1567 10.0435 16.9349C10.0434 16.9347 10.0435 16.9351 10.0435 16.9349L9.38731 13.6619C9.31946 13.3235 9.53882 12.9941 9.87727 12.9263C10.2157 12.8584 10.5451 13.0778 10.6129 13.4162L11.2694 16.6906L13.797 14.1552V9.11719C13.797 8.77201 14.0768 8.49219 14.422 8.49219Z" fill="#A259FF" />
  <path fill-rule="evenodd" clip-rule="evenodd" d="M5.82625 4.95319L5.83515 4.95312H10.882C11.2272 4.95312 11.507 5.23295 11.507 5.57812C11.507 5.9233 11.2272 6.20312 10.882 6.20312H5.84399L5.83894 6.20828L5.83891 6.20825L3.30859 8.73075L3.30956 8.73094L6.583 9.38719C6.92144 9.45504 7.1408 9.78441 7.07295 10.1229C7.0051 10.4613 6.67574 10.6807 6.33729 10.6128L3.06483 9.95675C3.06464 9.95671 3.06445 9.95668 3.06426 9.95664C2.84252 9.91244 2.6369 9.80892 2.46933 9.65711C2.30162 9.50516 2.1783 9.31054 2.11254 9.094C2.04677 8.87746 2.04103 8.64712 2.09592 8.42757C2.15081 8.20802 2.26427 8.00749 2.4242 7.84738L2.42514 7.84644L2.42514 7.84644L4.95424 5.32514C5.18475 5.09151 5.49796 4.95786 5.82625 4.95319Z" fill="#A259FF" />
</symbol>
        <symbol id="icon-copy" viewBox="0 0 32 32">
            <path
                d="M10 5c0-0.552 0.448-1 1-1h16c0.552 0 1 0.448 1 1v16c0 0.552-0.448 1-1 1h-6c-0.552 0-1-0.448-1-1s0.448-1 1-1h5v-14h-14v5c0 0.552-0.448 1-1 1s-1-0.448-1-1v-6z">
            </path>
            <path
                d="M4 11c0-0.552 0.448-1 1-1h16c0.552 0 1 0.448 1 1v16c0 0.552-0.448 1-1 1h-16c-0.552 0-1-0.448-1-1v-16zM6 12v14h14v-14h-14z">
            </path>
        </symbol>
        <symbol id="icon-Plus" viewBox="0 0 32 32">
            <path d="M4 16c0-0.552 0.448-1 1-1h22c0.552 0 1 0.448 1 1s-0.448 1-1 1h-22c-0.552 0-1-0.448-1-1z"></path>
            <path d="M16 4c0.552 0 1 0.448 1 1v22c0 0.552-0.448 1-1 1s-1-0.448-1-1v-22c0-0.552 0.448-1 1-1z"></path>
        </symbol>
        <symbol id="icon-globe" viewBox="0 0 32 32">
            <path
                d="M16 5c-6.075 0-11 4.925-11 11s4.925 11 11 11c6.075 0 11-4.925 11-11s-4.925-11-11-11zM3 16c0-7.18 5.82-13 13-13s13 5.82 13 13c0 7.18-5.82 13-13 13s-13-5.82-13-13z">
            </path>
            <path
                d="M3.688 12c0-0.552 0.448-1 1-1h22.625c0.552 0 1 0.448 1 1s-0.448 1-1 1h-22.625c-0.552 0-1-0.448-1-1z">
            </path>
            <path
                d="M3.688 20c0-0.552 0.448-1 1-1h22.625c0.552 0 1 0.448 1 1s-0.448 1-1 1h-22.625c-0.552 0-1-0.448-1-1z">
            </path>
            <path
                d="M13.384 8.139c-0.84 1.961-1.384 4.74-1.384 7.862s0.544 5.901 1.384 7.862c0.421 0.982 0.896 1.713 1.373 2.184 0.473 0.467 0.892 0.629 1.244 0.629s0.771-0.162 1.244-0.629c0.477-0.471 0.952-1.202 1.373-2.184 0.84-1.961 1.384-4.74 1.384-7.862s-0.544-5.901-1.384-7.862c-0.421-0.982-0.896-1.713-1.373-2.184-0.473-0.467-0.892-0.629-1.244-0.629s-0.771 0.162-1.244 0.629c-0.477 0.471-0.952 1.202-1.373 2.184zM13.351 4.532c0.724-0.715 1.62-1.206 2.649-1.206s1.925 0.491 2.649 1.206c0.72 0.711 1.322 1.689 1.806 2.82 0.97 2.264 1.545 5.323 1.545 8.649s-0.575 6.385-1.545 8.649c-0.484 1.13-1.086 2.109-1.806 2.82-0.724 0.715-1.62 1.206-2.649 1.206s-1.925-0.491-2.649-1.206c-0.72-0.711-1.322-1.689-1.806-2.82-0.97-2.265-1.545-5.323-1.545-8.649s0.575-6.385 1.545-8.649c0.484-1.13 1.086-2.109 1.806-2.82z">
            </path>
        </symbol>
        <symbol id="icon-DiscordLogo" viewBox="0 0 32 32">
            <path
                d="M12 19.5c0.828 0 1.5-0.672 1.5-1.5s-0.672-1.5-1.5-1.5c-0.828 0-1.5 0.672-1.5 1.5s0.672 1.5 1.5 1.5z">
            </path>
            <path
                d="M20 19.5c0.828 0 1.5-0.672 1.5-1.5s-0.672-1.5-1.5-1.5c-0.828 0-1.5 0.672-1.5 1.5s0.672 1.5 1.5 1.5z">
            </path>
            <path
                d="M15.992 9.999c-2.168-0.016-4.325 0.306-6.394 0.954-0.527 0.165-1.088-0.128-1.253-0.655s0.128-1.088 0.655-1.253c2.265-0.71 4.626-1.063 6.999-1.046 2.373-0.017 4.734 0.336 6.999 1.046 0.527 0.165 0.82 0.726 0.655 1.253s-0.726 0.82-1.253 0.655c-2.069-0.648-4.226-0.97-6.393-0.954h-0.015z">
            </path>
            <path
                d="M8.346 21.701c0.165-0.527 0.726-0.82 1.253-0.655 2.069 0.648 4.226 0.97 6.394 0.954h0.015c2.168 0.016 4.325-0.306 6.393-0.954 0.527-0.165 1.088 0.128 1.253 0.655s-0.128 1.088-0.655 1.253c-2.265 0.71-4.626 1.063-6.999 1.046-2.373 0.017-4.734-0.336-6.999-1.046-0.527-0.165-0.82-0.726-0.655-1.253z">
            </path>
            <path
                d="M20.221 4.812c0.43-0.243 0.935-0.319 1.418-0.213 1.317 0.286 2.607 0.686 3.855 1.197 0.281 0.108 0.533 0.28 0.737 0.501 0.206 0.224 0.357 0.492 0.442 0.785l4.236 14.144c0.111 0.369 0.113 0.761 0.007 1.131s-0.315 0.702-0.604 0.956l-0.005 0.005c-2.067 1.799-4.869 3.161-8.051 3.941-0.442 0.113-0.909 0.069-1.323-0.124-0.412-0.192-0.745-0.52-0.943-0.929l-1.508-2.992c-0.249-0.493-0.050-1.095 0.443-1.343s1.095-0.050 1.343 0.443l1.514 3.002c2.938-0.721 5.432-1.958 7.212-3.506l0.656 0.754-0.662-0.75c0.002-0.002 0.003-0.004 0.004-0.006s0.001-0.005 0-0.007l-4.236-14.145c-0.003-0.001-0.007-0.003-0.011-0.004-1.143-0.469-2.325-0.836-3.532-1.098l-0.002-0c-0.003-0.001-0.006-0-0.009 0.001s-0.004 0.003-0.005 0.006l-0.985 2.98c-0.173 0.524-0.739 0.809-1.263 0.636s-0.809-0.739-0.636-1.263l0.99-2.996c0.16-0.468 0.486-0.861 0.917-1.104z">
            </path>
            <path
                d="M10.798 6.554c-0.003-0.002-0.006-0.002-0.009-0.001l-0.002 0c-1.207 0.262-2.389 0.629-3.532 1.098-0.004 0.001-0.007 0.003-0.011 0.004l-4.236 14.145c-0.001 0.002-0.001 0.005-0 0.007s0.002 0.004 0.003 0.005c1.78 1.547 4.272 2.783 7.207 3.502l0.001-0.002 1.512-3c0.249-0.493 0.85-0.691 1.343-0.443s0.691 0.85 0.443 1.343l-1.508 2.992c-0.198 0.409-0.531 0.737-0.942 0.929-0.413 0.193-0.881 0.237-1.323 0.124-3.182-0.78-5.983-2.142-8.051-3.941l-0.005-0.005c-0.288-0.255-0.498-0.586-0.604-0.956s-0.103-0.762 0.007-1.131c-0 0 0-0 0 0l4.236-14.145c0.085-0.292 0.236-0.561 0.442-0.785 0.204-0.221 0.456-0.393 0.737-0.501 1.248-0.511 2.538-0.912 3.856-1.197 0.482-0.105 0.987-0.029 1.417 0.213s0.757 0.636 0.917 1.104l0.003 0.009 0.988 2.988c0.173 0.524-0.111 1.090-0.636 1.263s-1.090-0.111-1.263-0.636l-0.985-2.98c-0.001-0.003-0.003-0.005-0.005-0.006z">
            </path>
        </symbol>
        <symbol id="icon-YoutubeLogo" viewBox="0 0 32 32">
            <path
                d="M13.528 11.118c0.325-0.174 0.72-0.155 1.027 0.050l6 4c0.278 0.185 0.445 0.498 0.445 0.832s-0.167 0.647-0.445 0.832l-6 4c-0.307 0.205-0.701 0.224-1.027 0.050s-0.528-0.513-0.528-0.882v-8c0-0.369 0.203-0.708 0.528-0.882zM15 13.869v4.263l3.197-2.131-3.197-2.131z">
            </path>
            <path
                d="M15.999 5.050h0.083c0.054 0 0.134 0.001 0.236 0.002 0.204 0.002 0.497 0.007 0.863 0.018 0.729 0.022 1.746 0.068 2.897 0.165 2.276 0.192 5.174 0.591 7.406 1.444l0.015 0.006c0.438 0.175 0.829 0.451 1.141 0.806s0.536 0.777 0.655 1.234l0.001 0.004c0.311 1.219 0.706 3.478 0.706 7.273s-0.395 6.054-0.706 7.273l-0.001 0.004c-0.119 0.457-0.343 0.88-0.655 1.234s-0.703 0.63-1.141 0.806l-0.015 0.006c-2.231 0.853-5.129 1.251-7.406 1.444-1.151 0.097-2.167 0.143-2.897 0.165-0.365 0.011-0.659 0.016-0.863 0.018-0.102 0.001-0.181 0.001-0.236 0.002h-0.162c-0.054-0-0.134-0.001-0.236-0.002-0.204-0.002-0.497-0.007-0.863-0.018-0.729-0.022-1.746-0.068-2.897-0.165-2.276-0.192-5.174-0.591-7.406-1.444l-0.015-0.006c-0.438-0.175-0.829-0.451-1.141-0.806s-0.536-0.777-0.655-1.234l-0.001-0.004c-0.311-1.219-0.706-3.478-0.706-7.273s0.395-6.054 0.706-7.273l0.001-0.004c0.119-0.457 0.343-0.88 0.655-1.234s0.703-0.63 1.141-0.806l0.015-0.006c2.231-0.853 5.129-1.251 7.406-1.444 1.151-0.097 2.168-0.143 2.897-0.165 0.365-0.011 0.659-0.016 0.863-0.018 0.102-0.001 0.181-0.001 0.236-0.002h0.080zM15.995 24.95l0.011-0 0.003 0h0.068c0.049-0 0.123-0.001 0.219-0.001 0.192-0.002 0.473-0.007 0.824-0.017 0.702-0.021 1.682-0.065 2.789-0.159 2.236-0.189 4.896-0.57 6.852-1.316 0.145-0.059 0.274-0.151 0.377-0.268 0.105-0.119 0.18-0.26 0.22-0.413 0.264-1.032 0.643-3.122 0.643-6.775s-0.38-5.743-0.643-6.775c-0.040-0.153-0.115-0.294-0.22-0.413-0.103-0.117-0.233-0.209-0.377-0.268-1.955-0.745-4.615-1.127-6.852-1.316-1.107-0.093-2.086-0.138-2.789-0.159-0.351-0.011-0.632-0.015-0.824-0.017-0.096-0.001-0.17-0.001-0.219-0.002l-0.153-0c-0.049 0-0.123 0-0.219 0.002-0.192 0.002-0.473 0.007-0.824 0.017-0.702 0.021-1.682 0.066-2.789 0.159-2.236 0.189-4.896 0.57-6.852 1.316-0.145 0.059-0.274 0.151-0.377 0.268-0.104 0.119-0.18 0.26-0.22 0.413-0.264 1.032-0.643 3.122-0.643 6.775s0.38 5.743 0.643 6.775c0.040 0.153 0.115 0.294 0.22 0.413 0.103 0.117 0.233 0.209 0.377 0.268 1.956 0.745 4.616 1.127 6.852 1.316 1.107 0.093 2.086 0.138 2.789 0.159 0.351 0.011 0.632 0.015 0.824 0.017 0.096 0.001 0.17 0.001 0.219 0.001h0.071z">
            </path>
        </symbol>
        <symbol id="icon-twit2-optimized" viewBox="0 0 32 32">
            <path fill="none" stroke="#858584" style="stroke: var(--color1, #858584)" stroke-linejoin="round"
                stroke-linecap="round" stroke-miterlimit="4" stroke-width="2"
                d="M16 11c0-2.75 2.313-5.037 5.063-5 2.015 0.024 3.741 1.237 4.512 2.968l0.013 0.032h4.413l-4.038 4.038c-0.555 8.377-7.486 14.962-15.955 14.962-0.002 0-0.005 0-0.007 0h0c-4 0-5-1.5-5-1.5s3.999-1.5 5.999-4.5c0 0-8-4-6-15 0 0 5 5 11 6v-2z">
            </path>
        </symbol>
        <symbol id="icon-InstagramLogo" viewBox="0 0 32 32">
            <path
                d="M16 12c-2.209 0-4 1.791-4 4s1.791 4 4 4c2.209 0 4-1.791 4-4s-1.791-4-4-4zM10 16c0-3.314 2.686-6 6-6s6 2.686 6 6c0 3.314-2.686 6-6 6s-6-2.686-6-6z">
            </path>
            <path
                d="M10.5 5.5c-2.761 0-5 2.239-5 5v11c0 2.761 2.239 5 5 5h11c2.761 0 5-2.239 5-5v-11c0-2.761-2.239-5-5-5h-11zM3.5 10.5c0-3.866 3.134-7 7-7h11c3.866 0 7 3.134 7 7v11c0 3.866-3.134 7-7 7h-11c-3.866 0-7-3.134-7-7v-11z">
            </path>
            <path
                d="M22.5 11c0.828 0 1.5-0.672 1.5-1.5s-0.672-1.5-1.5-1.5c-0.828 0-1.5 0.672-1.5 1.5s0.672 1.5 1.5 1.5z">
            </path>
        </symbol><symbol>
<svg id="button-icon" width="20" height="20" viewBox="0 0 20 20" fill="none" xmlns="http://www.w3.org/2000/svg">
  <path fill-rule="evenodd" clip-rule="evenodd" d="M1.875 4.375C1.875 4.02982 2.15482 3.75 2.5 3.75H17.5C17.8452 3.75 18.125 4.02982 18.125 4.375V15C18.125 15.3315 17.9933 15.6495 17.7589 15.8839C17.5245 16.1183 17.2065 16.25 16.875 16.25H3.125C2.79348 16.25 2.47554 16.1183 2.24112 15.8839C2.0067 15.6495 1.875 15.3315 1.875 15V4.375ZM3.125 5V15H16.875V5H3.125Z" fill="white" />
  <path fill-rule="evenodd" clip-rule="evenodd" d="M2.03928 3.95268C2.27253 3.69823 2.66788 3.68104 2.92233 3.91428L10 10.4021L17.0777 3.91428C17.3321 3.68104 17.7275 3.69823 17.9607 3.95268C18.194 4.20713 18.1768 4.60248 17.9223 4.83573L10.4223 11.7107C10.1834 11.9298 9.81663 11.9298 9.57768 11.7107L2.07768 4.83573C1.82323 4.60248 1.80604 4.20713 2.03928 3.95268Z" fill="white" />
</svg>
</symbol>

</defs>
</svg>
